<?xml version="1.0" encoding="utf-8" standalone="no"?>
<!DOCTYPE svg PUBLIC "-//W3C//DTD SVG 1.1//EN"
  "http://www.w3.org/Graphics/SVG/1.1/DTD/svg11.dtd">
<svg xmlns:xlink="http://www.w3.org/1999/xlink" width="422.48375pt" height="331.869812pt" viewBox="0 0 422.48375 331.869812" xmlns="http://www.w3.org/2000/svg" version="1.1">
 <metadata>
  <rdf:RDF xmlns:dc="http://purl.org/dc/elements/1.1/" xmlns:cc="http://creativecommons.org/ns#" xmlns:rdf="http://www.w3.org/1999/02/22-rdf-syntax-ns#">
   <cc:Work>
    <dc:type rdf:resource="http://purl.org/dc/dcmitype/StillImage"/>
    <dc:date>2023-09-15T23:19:16.461417</dc:date>
    <dc:format>image/svg+xml</dc:format>
    <dc:creator>
     <cc:Agent>
      <dc:title>Matplotlib v3.7.1, https://matplotlib.org/</dc:title>
     </cc:Agent>
    </dc:creator>
   </cc:Work>
  </rdf:RDF>
 </metadata>
 <defs>
  <style type="text/css">*{stroke-linejoin: round; stroke-linecap: butt}</style>
 </defs>
 <g id="figure_1">
  <g id="patch_1">
   <path d="M 0 331.869812 
L 422.48375 331.869812 
L 422.48375 0 
L 0 0 
z
" style="fill: #ffffff"/>
  </g>
  <g id="axes_1">
   <g id="patch_2">
    <path d="M 58.16375 288.910125 
L 415.28375 288.910125 
L 415.28375 22.798125 
L 58.16375 22.798125 
z
" style="fill: #eaeaf2"/>
   </g>
   <g id="matplotlib.axis_1">
    <g id="xtick_1">
     <g id="line2d_1">
      <path d="M 200.033896 288.910125 
L 200.033896 22.798125 
" clip-path="url(#pfb79ad676e)" style="fill: none; stroke: #ffffff; stroke-linecap: round"/>
     </g>
     <g id="text_1">
      <!-- $\mathdefault{10^{1}}$ -->
      <g style="fill: #262626" transform="translate(190.353896 306.768406) scale(0.11 -0.11)">
       <defs>
        <path id="DejaVuSans-31" d="M 794 531 
L 1825 531 
L 1825 4091 
L 703 3866 
L 703 4441 
L 1819 4666 
L 2450 4666 
L 2450 531 
L 3481 531 
L 3481 0 
L 794 0 
L 794 531 
z
" transform="scale(0.015625)"/>
        <path id="DejaVuSans-30" d="M 2034 4250 
Q 1547 4250 1301 3770 
Q 1056 3291 1056 2328 
Q 1056 1369 1301 889 
Q 1547 409 2034 409 
Q 2525 409 2770 889 
Q 3016 1369 3016 2328 
Q 3016 3291 2770 3770 
Q 2525 4250 2034 4250 
z
M 2034 4750 
Q 2819 4750 3233 4129 
Q 3647 3509 3647 2328 
Q 3647 1150 3233 529 
Q 2819 -91 2034 -91 
Q 1250 -91 836 529 
Q 422 1150 422 2328 
Q 422 3509 836 4129 
Q 1250 4750 2034 4750 
z
" transform="scale(0.015625)"/>
       </defs>
       <use xlink:href="#DejaVuSans-31" transform="translate(0 0.684375)"/>
       <use xlink:href="#DejaVuSans-30" transform="translate(63.623047 0.684375)"/>
       <use xlink:href="#DejaVuSans-31" transform="translate(128.203125 38.965625) scale(0.7)"/>
      </g>
     </g>
    </g>
    <g id="xtick_2">
     <g id="line2d_2">
      <path d="M 379.780405 288.910125 
L 379.780405 22.798125 
" clip-path="url(#pfb79ad676e)" style="fill: none; stroke: #ffffff; stroke-linecap: round"/>
     </g>
     <g id="text_2">
      <!-- $\mathdefault{10^{2}}$ -->
      <g style="fill: #262626" transform="translate(370.100405 306.768406) scale(0.11 -0.11)">
       <defs>
        <path id="DejaVuSans-32" d="M 1228 531 
L 3431 531 
L 3431 0 
L 469 0 
L 469 531 
Q 828 903 1448 1529 
Q 2069 2156 2228 2338 
Q 2531 2678 2651 2914 
Q 2772 3150 2772 3378 
Q 2772 3750 2511 3984 
Q 2250 4219 1831 4219 
Q 1534 4219 1204 4116 
Q 875 4013 500 3803 
L 500 4441 
Q 881 4594 1212 4672 
Q 1544 4750 1819 4750 
Q 2544 4750 2975 4387 
Q 3406 4025 3406 3419 
Q 3406 3131 3298 2873 
Q 3191 2616 2906 2266 
Q 2828 2175 2409 1742 
Q 1991 1309 1228 531 
z
" transform="scale(0.015625)"/>
       </defs>
       <use xlink:href="#DejaVuSans-31" transform="translate(0 0.765625)"/>
       <use xlink:href="#DejaVuSans-30" transform="translate(63.623047 0.765625)"/>
       <use xlink:href="#DejaVuSans-32" transform="translate(128.203125 39.046875) scale(0.7)"/>
      </g>
     </g>
    </g>
    <g id="xtick_3"/>
    <g id="xtick_4"/>
    <g id="xtick_5"/>
    <g id="xtick_6"/>
    <g id="xtick_7"/>
    <g id="xtick_8"/>
    <g id="xtick_9"/>
    <g id="xtick_10"/>
    <g id="xtick_11"/>
    <g id="xtick_12"/>
    <g id="xtick_13"/>
    <g id="xtick_14"/>
    <g id="xtick_15"/>
    <g id="xtick_16"/>
    <g id="xtick_17"/>
    <g id="xtick_18"/>
    <g id="text_3">
     <!-- Tamaño de la matriz cuadrada (adim.) -->
     <g style="fill: #262626" transform="translate(122.039375 322.174187) scale(0.12 -0.12)">
      <defs>
       <path id="DejaVuSans-54" d="M -19 4666 
L 3928 4666 
L 3928 4134 
L 2272 4134 
L 2272 0 
L 1638 0 
L 1638 4134 
L -19 4134 
L -19 4666 
z
" transform="scale(0.015625)"/>
       <path id="DejaVuSans-61" d="M 2194 1759 
Q 1497 1759 1228 1600 
Q 959 1441 959 1056 
Q 959 750 1161 570 
Q 1363 391 1709 391 
Q 2188 391 2477 730 
Q 2766 1069 2766 1631 
L 2766 1759 
L 2194 1759 
z
M 3341 1997 
L 3341 0 
L 2766 0 
L 2766 531 
Q 2569 213 2275 61 
Q 1981 -91 1556 -91 
Q 1019 -91 701 211 
Q 384 513 384 1019 
Q 384 1609 779 1909 
Q 1175 2209 1959 2209 
L 2766 2209 
L 2766 2266 
Q 2766 2663 2505 2880 
Q 2244 3097 1772 3097 
Q 1472 3097 1187 3025 
Q 903 2953 641 2809 
L 641 3341 
Q 956 3463 1253 3523 
Q 1550 3584 1831 3584 
Q 2591 3584 2966 3190 
Q 3341 2797 3341 1997 
z
" transform="scale(0.015625)"/>
       <path id="DejaVuSans-6d" d="M 3328 2828 
Q 3544 3216 3844 3400 
Q 4144 3584 4550 3584 
Q 5097 3584 5394 3201 
Q 5691 2819 5691 2113 
L 5691 0 
L 5113 0 
L 5113 2094 
Q 5113 2597 4934 2840 
Q 4756 3084 4391 3084 
Q 3944 3084 3684 2787 
Q 3425 2491 3425 1978 
L 3425 0 
L 2847 0 
L 2847 2094 
Q 2847 2600 2669 2842 
Q 2491 3084 2119 3084 
Q 1678 3084 1418 2786 
Q 1159 2488 1159 1978 
L 1159 0 
L 581 0 
L 581 3500 
L 1159 3500 
L 1159 2956 
Q 1356 3278 1631 3431 
Q 1906 3584 2284 3584 
Q 2666 3584 2933 3390 
Q 3200 3197 3328 2828 
z
" transform="scale(0.015625)"/>
       <path id="DejaVuSans-f1" d="M 3513 2113 
L 3513 0 
L 2938 0 
L 2938 2094 
Q 2938 2591 2744 2837 
Q 2550 3084 2163 3084 
Q 1697 3084 1428 2787 
Q 1159 2491 1159 1978 
L 1159 0 
L 581 0 
L 581 3500 
L 1159 3500 
L 1159 2956 
Q 1366 3272 1645 3428 
Q 1925 3584 2291 3584 
Q 2894 3584 3203 3211 
Q 3513 2838 3513 2113 
z
M 2060 4281 
L 1881 4453 
Q 1813 4516 1761 4545 
Q 1710 4575 1669 4575 
Q 1550 4575 1494 4461 
Q 1438 4347 1431 4091 
L 1041 4091 
Q 1047 4513 1206 4742 
Q 1366 4972 1650 4972 
Q 1769 4972 1869 4928 
Q 1969 4884 2085 4781 
L 2263 4609 
Q 2331 4547 2383 4517 
Q 2435 4488 2475 4488 
Q 2594 4488 2650 4602 
Q 2706 4716 2713 4972 
L 3103 4972 
Q 3097 4550 2937 4320 
Q 2778 4091 2494 4091 
Q 2375 4091 2275 4134 
Q 2175 4178 2060 4281 
z
" transform="scale(0.015625)"/>
       <path id="DejaVuSans-6f" d="M 1959 3097 
Q 1497 3097 1228 2736 
Q 959 2375 959 1747 
Q 959 1119 1226 758 
Q 1494 397 1959 397 
Q 2419 397 2687 759 
Q 2956 1122 2956 1747 
Q 2956 2369 2687 2733 
Q 2419 3097 1959 3097 
z
M 1959 3584 
Q 2709 3584 3137 3096 
Q 3566 2609 3566 1747 
Q 3566 888 3137 398 
Q 2709 -91 1959 -91 
Q 1206 -91 779 398 
Q 353 888 353 1747 
Q 353 2609 779 3096 
Q 1206 3584 1959 3584 
z
" transform="scale(0.015625)"/>
       <path id="DejaVuSans-20" transform="scale(0.015625)"/>
       <path id="DejaVuSans-64" d="M 2906 2969 
L 2906 4863 
L 3481 4863 
L 3481 0 
L 2906 0 
L 2906 525 
Q 2725 213 2448 61 
Q 2172 -91 1784 -91 
Q 1150 -91 751 415 
Q 353 922 353 1747 
Q 353 2572 751 3078 
Q 1150 3584 1784 3584 
Q 2172 3584 2448 3432 
Q 2725 3281 2906 2969 
z
M 947 1747 
Q 947 1113 1208 752 
Q 1469 391 1925 391 
Q 2381 391 2643 752 
Q 2906 1113 2906 1747 
Q 2906 2381 2643 2742 
Q 2381 3103 1925 3103 
Q 1469 3103 1208 2742 
Q 947 2381 947 1747 
z
" transform="scale(0.015625)"/>
       <path id="DejaVuSans-65" d="M 3597 1894 
L 3597 1613 
L 953 1613 
Q 991 1019 1311 708 
Q 1631 397 2203 397 
Q 2534 397 2845 478 
Q 3156 559 3463 722 
L 3463 178 
Q 3153 47 2828 -22 
Q 2503 -91 2169 -91 
Q 1331 -91 842 396 
Q 353 884 353 1716 
Q 353 2575 817 3079 
Q 1281 3584 2069 3584 
Q 2775 3584 3186 3129 
Q 3597 2675 3597 1894 
z
M 3022 2063 
Q 3016 2534 2758 2815 
Q 2500 3097 2075 3097 
Q 1594 3097 1305 2825 
Q 1016 2553 972 2059 
L 3022 2063 
z
" transform="scale(0.015625)"/>
       <path id="DejaVuSans-6c" d="M 603 4863 
L 1178 4863 
L 1178 0 
L 603 0 
L 603 4863 
z
" transform="scale(0.015625)"/>
       <path id="DejaVuSans-74" d="M 1172 4494 
L 1172 3500 
L 2356 3500 
L 2356 3053 
L 1172 3053 
L 1172 1153 
Q 1172 725 1289 603 
Q 1406 481 1766 481 
L 2356 481 
L 2356 0 
L 1766 0 
Q 1100 0 847 248 
Q 594 497 594 1153 
L 594 3053 
L 172 3053 
L 172 3500 
L 594 3500 
L 594 4494 
L 1172 4494 
z
" transform="scale(0.015625)"/>
       <path id="DejaVuSans-72" d="M 2631 2963 
Q 2534 3019 2420 3045 
Q 2306 3072 2169 3072 
Q 1681 3072 1420 2755 
Q 1159 2438 1159 1844 
L 1159 0 
L 581 0 
L 581 3500 
L 1159 3500 
L 1159 2956 
Q 1341 3275 1631 3429 
Q 1922 3584 2338 3584 
Q 2397 3584 2469 3576 
Q 2541 3569 2628 3553 
L 2631 2963 
z
" transform="scale(0.015625)"/>
       <path id="DejaVuSans-69" d="M 603 3500 
L 1178 3500 
L 1178 0 
L 603 0 
L 603 3500 
z
M 603 4863 
L 1178 4863 
L 1178 4134 
L 603 4134 
L 603 4863 
z
" transform="scale(0.015625)"/>
       <path id="DejaVuSans-7a" d="M 353 3500 
L 3084 3500 
L 3084 2975 
L 922 459 
L 3084 459 
L 3084 0 
L 275 0 
L 275 525 
L 2438 3041 
L 353 3041 
L 353 3500 
z
" transform="scale(0.015625)"/>
       <path id="DejaVuSans-63" d="M 3122 3366 
L 3122 2828 
Q 2878 2963 2633 3030 
Q 2388 3097 2138 3097 
Q 1578 3097 1268 2742 
Q 959 2388 959 1747 
Q 959 1106 1268 751 
Q 1578 397 2138 397 
Q 2388 397 2633 464 
Q 2878 531 3122 666 
L 3122 134 
Q 2881 22 2623 -34 
Q 2366 -91 2075 -91 
Q 1284 -91 818 406 
Q 353 903 353 1747 
Q 353 2603 823 3093 
Q 1294 3584 2113 3584 
Q 2378 3584 2631 3529 
Q 2884 3475 3122 3366 
z
" transform="scale(0.015625)"/>
       <path id="DejaVuSans-75" d="M 544 1381 
L 544 3500 
L 1119 3500 
L 1119 1403 
Q 1119 906 1312 657 
Q 1506 409 1894 409 
Q 2359 409 2629 706 
Q 2900 1003 2900 1516 
L 2900 3500 
L 3475 3500 
L 3475 0 
L 2900 0 
L 2900 538 
Q 2691 219 2414 64 
Q 2138 -91 1772 -91 
Q 1169 -91 856 284 
Q 544 659 544 1381 
z
M 1991 3584 
L 1991 3584 
z
" transform="scale(0.015625)"/>
       <path id="DejaVuSans-28" d="M 1984 4856 
Q 1566 4138 1362 3434 
Q 1159 2731 1159 2009 
Q 1159 1288 1364 580 
Q 1569 -128 1984 -844 
L 1484 -844 
Q 1016 -109 783 600 
Q 550 1309 550 2009 
Q 550 2706 781 3412 
Q 1013 4119 1484 4856 
L 1984 4856 
z
" transform="scale(0.015625)"/>
       <path id="DejaVuSans-2e" d="M 684 794 
L 1344 794 
L 1344 0 
L 684 0 
L 684 794 
z
" transform="scale(0.015625)"/>
       <path id="DejaVuSans-29" d="M 513 4856 
L 1013 4856 
Q 1481 4119 1714 3412 
Q 1947 2706 1947 2009 
Q 1947 1309 1714 600 
Q 1481 -109 1013 -844 
L 513 -844 
Q 928 -128 1133 580 
Q 1338 1288 1338 2009 
Q 1338 2731 1133 3434 
Q 928 4138 513 4856 
z
" transform="scale(0.015625)"/>
      </defs>
      <use xlink:href="#DejaVuSans-54"/>
      <use xlink:href="#DejaVuSans-61" x="44.583984"/>
      <use xlink:href="#DejaVuSans-6d" x="105.863281"/>
      <use xlink:href="#DejaVuSans-61" x="203.275391"/>
      <use xlink:href="#DejaVuSans-f1" x="264.554688"/>
      <use xlink:href="#DejaVuSans-6f" x="327.933594"/>
      <use xlink:href="#DejaVuSans-20" x="389.115234"/>
      <use xlink:href="#DejaVuSans-64" x="420.902344"/>
      <use xlink:href="#DejaVuSans-65" x="484.378906"/>
      <use xlink:href="#DejaVuSans-20" x="545.902344"/>
      <use xlink:href="#DejaVuSans-6c" x="577.689453"/>
      <use xlink:href="#DejaVuSans-61" x="605.472656"/>
      <use xlink:href="#DejaVuSans-20" x="666.751953"/>
      <use xlink:href="#DejaVuSans-6d" x="698.539062"/>
      <use xlink:href="#DejaVuSans-61" x="795.951172"/>
      <use xlink:href="#DejaVuSans-74" x="857.230469"/>
      <use xlink:href="#DejaVuSans-72" x="896.439453"/>
      <use xlink:href="#DejaVuSans-69" x="937.552734"/>
      <use xlink:href="#DejaVuSans-7a" x="965.335938"/>
      <use xlink:href="#DejaVuSans-20" x="1017.826172"/>
      <use xlink:href="#DejaVuSans-63" x="1049.613281"/>
      <use xlink:href="#DejaVuSans-75" x="1104.59375"/>
      <use xlink:href="#DejaVuSans-61" x="1167.972656"/>
      <use xlink:href="#DejaVuSans-64" x="1229.251953"/>
      <use xlink:href="#DejaVuSans-72" x="1292.728516"/>
      <use xlink:href="#DejaVuSans-61" x="1333.841797"/>
      <use xlink:href="#DejaVuSans-64" x="1395.121094"/>
      <use xlink:href="#DejaVuSans-61" x="1458.597656"/>
      <use xlink:href="#DejaVuSans-20" x="1519.876953"/>
      <use xlink:href="#DejaVuSans-28" x="1551.664062"/>
      <use xlink:href="#DejaVuSans-61" x="1590.677734"/>
      <use xlink:href="#DejaVuSans-64" x="1651.957031"/>
      <use xlink:href="#DejaVuSans-69" x="1715.433594"/>
      <use xlink:href="#DejaVuSans-6d" x="1743.216797"/>
      <use xlink:href="#DejaVuSans-2e" x="1840.628906"/>
      <use xlink:href="#DejaVuSans-29" x="1872.416016"/>
     </g>
    </g>
   </g>
   <g id="matplotlib.axis_2">
    <g id="ytick_1">
     <g id="line2d_3">
      <path d="M 58.16375 264.319597 
L 415.28375 264.319597 
" clip-path="url(#pfb79ad676e)" style="fill: none; stroke: #ffffff; stroke-linecap: round"/>
     </g>
     <g id="text_4">
      <!-- $\mathdefault{10^{-5}}$ -->
      <g style="fill: #262626" transform="translate(22.81375 268.498738) scale(0.11 -0.11)">
       <defs>
        <path id="DejaVuSans-2212" d="M 678 2272 
L 4684 2272 
L 4684 1741 
L 678 1741 
L 678 2272 
z
" transform="scale(0.015625)"/>
        <path id="DejaVuSans-35" d="M 691 4666 
L 3169 4666 
L 3169 4134 
L 1269 4134 
L 1269 2991 
Q 1406 3038 1543 3061 
Q 1681 3084 1819 3084 
Q 2600 3084 3056 2656 
Q 3513 2228 3513 1497 
Q 3513 744 3044 326 
Q 2575 -91 1722 -91 
Q 1428 -91 1123 -41 
Q 819 9 494 109 
L 494 744 
Q 775 591 1075 516 
Q 1375 441 1709 441 
Q 2250 441 2565 725 
Q 2881 1009 2881 1497 
Q 2881 1984 2565 2268 
Q 2250 2553 1709 2553 
Q 1456 2553 1204 2497 
Q 953 2441 691 2322 
L 691 4666 
z
" transform="scale(0.015625)"/>
       </defs>
       <use xlink:href="#DejaVuSans-31" transform="translate(0 0.684375)"/>
       <use xlink:href="#DejaVuSans-30" transform="translate(63.623047 0.684375)"/>
       <use xlink:href="#DejaVuSans-2212" transform="translate(128.203125 38.965625) scale(0.7)"/>
       <use xlink:href="#DejaVuSans-35" transform="translate(186.855469 38.965625) scale(0.7)"/>
      </g>
     </g>
    </g>
    <g id="ytick_2">
     <g id="line2d_4">
      <path d="M 58.16375 186.786507 
L 415.28375 186.786507 
" clip-path="url(#pfb79ad676e)" style="fill: none; stroke: #ffffff; stroke-linecap: round"/>
     </g>
     <g id="text_5">
      <!-- $\mathdefault{10^{-4}}$ -->
      <g style="fill: #262626" transform="translate(22.81375 190.965648) scale(0.11 -0.11)">
       <defs>
        <path id="DejaVuSans-34" d="M 2419 4116 
L 825 1625 
L 2419 1625 
L 2419 4116 
z
M 2253 4666 
L 3047 4666 
L 3047 1625 
L 3713 1625 
L 3713 1100 
L 3047 1100 
L 3047 0 
L 2419 0 
L 2419 1100 
L 313 1100 
L 313 1709 
L 2253 4666 
z
" transform="scale(0.015625)"/>
       </defs>
       <use xlink:href="#DejaVuSans-31" transform="translate(0 0.684375)"/>
       <use xlink:href="#DejaVuSans-30" transform="translate(63.623047 0.684375)"/>
       <use xlink:href="#DejaVuSans-2212" transform="translate(128.203125 38.965625) scale(0.7)"/>
       <use xlink:href="#DejaVuSans-34" transform="translate(186.855469 38.965625) scale(0.7)"/>
      </g>
     </g>
    </g>
    <g id="ytick_3">
     <g id="line2d_5">
      <path d="M 58.16375 109.253417 
L 415.28375 109.253417 
" clip-path="url(#pfb79ad676e)" style="fill: none; stroke: #ffffff; stroke-linecap: round"/>
     </g>
     <g id="text_6">
      <!-- $\mathdefault{10^{-3}}$ -->
      <g style="fill: #262626" transform="translate(22.81375 113.432558) scale(0.11 -0.11)">
       <defs>
        <path id="DejaVuSans-33" d="M 2597 2516 
Q 3050 2419 3304 2112 
Q 3559 1806 3559 1356 
Q 3559 666 3084 287 
Q 2609 -91 1734 -91 
Q 1441 -91 1130 -33 
Q 819 25 488 141 
L 488 750 
Q 750 597 1062 519 
Q 1375 441 1716 441 
Q 2309 441 2620 675 
Q 2931 909 2931 1356 
Q 2931 1769 2642 2001 
Q 2353 2234 1838 2234 
L 1294 2234 
L 1294 2753 
L 1863 2753 
Q 2328 2753 2575 2939 
Q 2822 3125 2822 3475 
Q 2822 3834 2567 4026 
Q 2313 4219 1838 4219 
Q 1578 4219 1281 4162 
Q 984 4106 628 3988 
L 628 4550 
Q 988 4650 1302 4700 
Q 1616 4750 1894 4750 
Q 2613 4750 3031 4423 
Q 3450 4097 3450 3541 
Q 3450 3153 3228 2886 
Q 3006 2619 2597 2516 
z
" transform="scale(0.015625)"/>
       </defs>
       <use xlink:href="#DejaVuSans-31" transform="translate(0 0.765625)"/>
       <use xlink:href="#DejaVuSans-30" transform="translate(63.623047 0.765625)"/>
       <use xlink:href="#DejaVuSans-2212" transform="translate(128.203125 39.046875) scale(0.7)"/>
       <use xlink:href="#DejaVuSans-33" transform="translate(186.855469 39.046875) scale(0.7)"/>
      </g>
     </g>
    </g>
    <g id="ytick_4">
     <g id="line2d_6">
      <path d="M 58.16375 31.720328 
L 415.28375 31.720328 
" clip-path="url(#pfb79ad676e)" style="fill: none; stroke: #ffffff; stroke-linecap: round"/>
     </g>
     <g id="text_7">
      <!-- $\mathdefault{10^{-2}}$ -->
      <g style="fill: #262626" transform="translate(22.81375 35.899468) scale(0.11 -0.11)">
       <use xlink:href="#DejaVuSans-31" transform="translate(0 0.765625)"/>
       <use xlink:href="#DejaVuSans-30" transform="translate(63.623047 0.765625)"/>
       <use xlink:href="#DejaVuSans-2212" transform="translate(128.203125 39.046875) scale(0.7)"/>
       <use xlink:href="#DejaVuSans-32" transform="translate(186.855469 39.046875) scale(0.7)"/>
      </g>
     </g>
    </g>
    <g id="ytick_5"/>
    <g id="ytick_6"/>
    <g id="ytick_7"/>
    <g id="ytick_8"/>
    <g id="ytick_9"/>
    <g id="ytick_10"/>
    <g id="ytick_11"/>
    <g id="ytick_12"/>
    <g id="ytick_13"/>
    <g id="ytick_14"/>
    <g id="ytick_15"/>
    <g id="ytick_16"/>
    <g id="ytick_17"/>
    <g id="ytick_18"/>
    <g id="ytick_19"/>
    <g id="ytick_20"/>
    <g id="ytick_21"/>
    <g id="ytick_22"/>
    <g id="ytick_23"/>
    <g id="ytick_24"/>
    <g id="ytick_25"/>
    <g id="ytick_26"/>
    <g id="ytick_27"/>
    <g id="ytick_28"/>
    <g id="ytick_29"/>
    <g id="ytick_30"/>
    <g id="ytick_31"/>
    <g id="ytick_32"/>
    <g id="ytick_33"/>
    <g id="text_8">
     <!-- MT (Mejor tiempo) (s) -->
     <g style="fill: #262626" transform="translate(16.318125 220.61475) rotate(-90) scale(0.12 -0.12)">
      <defs>
       <path id="DejaVuSans-4d" d="M 628 4666 
L 1569 4666 
L 2759 1491 
L 3956 4666 
L 4897 4666 
L 4897 0 
L 4281 0 
L 4281 4097 
L 3078 897 
L 2444 897 
L 1241 4097 
L 1241 0 
L 628 0 
L 628 4666 
z
" transform="scale(0.015625)"/>
       <path id="DejaVuSans-6a" d="M 603 3500 
L 1178 3500 
L 1178 -63 
Q 1178 -731 923 -1031 
Q 669 -1331 103 -1331 
L -116 -1331 
L -116 -844 
L 38 -844 
Q 366 -844 484 -692 
Q 603 -541 603 -63 
L 603 3500 
z
M 603 4863 
L 1178 4863 
L 1178 4134 
L 603 4134 
L 603 4863 
z
" transform="scale(0.015625)"/>
       <path id="DejaVuSans-70" d="M 1159 525 
L 1159 -1331 
L 581 -1331 
L 581 3500 
L 1159 3500 
L 1159 2969 
Q 1341 3281 1617 3432 
Q 1894 3584 2278 3584 
Q 2916 3584 3314 3078 
Q 3713 2572 3713 1747 
Q 3713 922 3314 415 
Q 2916 -91 2278 -91 
Q 1894 -91 1617 61 
Q 1341 213 1159 525 
z
M 3116 1747 
Q 3116 2381 2855 2742 
Q 2594 3103 2138 3103 
Q 1681 3103 1420 2742 
Q 1159 2381 1159 1747 
Q 1159 1113 1420 752 
Q 1681 391 2138 391 
Q 2594 391 2855 752 
Q 3116 1113 3116 1747 
z
" transform="scale(0.015625)"/>
       <path id="DejaVuSans-73" d="M 2834 3397 
L 2834 2853 
Q 2591 2978 2328 3040 
Q 2066 3103 1784 3103 
Q 1356 3103 1142 2972 
Q 928 2841 928 2578 
Q 928 2378 1081 2264 
Q 1234 2150 1697 2047 
L 1894 2003 
Q 2506 1872 2764 1633 
Q 3022 1394 3022 966 
Q 3022 478 2636 193 
Q 2250 -91 1575 -91 
Q 1294 -91 989 -36 
Q 684 19 347 128 
L 347 722 
Q 666 556 975 473 
Q 1284 391 1588 391 
Q 1994 391 2212 530 
Q 2431 669 2431 922 
Q 2431 1156 2273 1281 
Q 2116 1406 1581 1522 
L 1381 1569 
Q 847 1681 609 1914 
Q 372 2147 372 2553 
Q 372 3047 722 3315 
Q 1072 3584 1716 3584 
Q 2034 3584 2315 3537 
Q 2597 3491 2834 3397 
z
" transform="scale(0.015625)"/>
      </defs>
      <use xlink:href="#DejaVuSans-4d"/>
      <use xlink:href="#DejaVuSans-54" x="86.279297"/>
      <use xlink:href="#DejaVuSans-20" x="147.363281"/>
      <use xlink:href="#DejaVuSans-28" x="179.150391"/>
      <use xlink:href="#DejaVuSans-4d" x="218.164062"/>
      <use xlink:href="#DejaVuSans-65" x="304.443359"/>
      <use xlink:href="#DejaVuSans-6a" x="365.966797"/>
      <use xlink:href="#DejaVuSans-6f" x="393.75"/>
      <use xlink:href="#DejaVuSans-72" x="454.931641"/>
      <use xlink:href="#DejaVuSans-20" x="496.044922"/>
      <use xlink:href="#DejaVuSans-74" x="527.832031"/>
      <use xlink:href="#DejaVuSans-69" x="567.041016"/>
      <use xlink:href="#DejaVuSans-65" x="594.824219"/>
      <use xlink:href="#DejaVuSans-6d" x="656.347656"/>
      <use xlink:href="#DejaVuSans-70" x="753.759766"/>
      <use xlink:href="#DejaVuSans-6f" x="817.236328"/>
      <use xlink:href="#DejaVuSans-29" x="878.417969"/>
      <use xlink:href="#DejaVuSans-20" x="917.431641"/>
      <use xlink:href="#DejaVuSans-28" x="949.21875"/>
      <use xlink:href="#DejaVuSans-73" x="988.232422"/>
      <use xlink:href="#DejaVuSans-29" x="1040.332031"/>
     </g>
    </g>
   </g>
   <g id="line2d_7">
    <path d="M 74.396477 259.613506 
L 106.048266 243.970953 
L 128.505568 231.250861 
L 160.157357 213.376027 
L 182.614659 199.086398 
L 214.266448 178.421615 
L 236.72375 162.829478 
L 268.375539 139.846982 
L 290.832841 123.01593 
L 322.48463 98.262076 
L 344.941932 79.889709 
L 376.593721 53.669604 
L 399.051023 34.894125 
" clip-path="url(#pfb79ad676e)" style="fill: none; stroke-dasharray: 5.55,2.4; stroke-dashoffset: 0; stroke: #4c72b0; stroke-width: 1.5"/>
    <defs>
     <path id="m707a23f511" d="M 0 3 
C 0.795609 3 1.55874 2.683901 2.12132 2.12132 
C 2.683901 1.55874 3 0.795609 3 0 
C 3 -0.795609 2.683901 -1.55874 2.12132 -2.12132 
C 1.55874 -2.683901 0.795609 -3 0 -3 
C -0.795609 -3 -1.55874 -2.683901 -2.12132 -2.12132 
C -2.683901 -1.55874 -3 -0.795609 -3 0 
C -3 0.795609 -2.683901 1.55874 -2.12132 2.12132 
C -1.55874 2.683901 -0.795609 3 0 3 
z
" style="stroke: #4c72b0"/>
    </defs>
    <g clip-path="url(#pfb79ad676e)">
     <use xlink:href="#m707a23f511" x="74.396477" y="259.613506" style="fill: #4c72b0; stroke: #4c72b0"/>
     <use xlink:href="#m707a23f511" x="106.048266" y="243.970953" style="fill: #4c72b0; stroke: #4c72b0"/>
     <use xlink:href="#m707a23f511" x="128.505568" y="231.250861" style="fill: #4c72b0; stroke: #4c72b0"/>
     <use xlink:href="#m707a23f511" x="160.157357" y="213.376027" style="fill: #4c72b0; stroke: #4c72b0"/>
     <use xlink:href="#m707a23f511" x="182.614659" y="199.086398" style="fill: #4c72b0; stroke: #4c72b0"/>
     <use xlink:href="#m707a23f511" x="214.266448" y="178.421615" style="fill: #4c72b0; stroke: #4c72b0"/>
     <use xlink:href="#m707a23f511" x="236.72375" y="162.829478" style="fill: #4c72b0; stroke: #4c72b0"/>
     <use xlink:href="#m707a23f511" x="268.375539" y="139.846982" style="fill: #4c72b0; stroke: #4c72b0"/>
     <use xlink:href="#m707a23f511" x="290.832841" y="123.01593" style="fill: #4c72b0; stroke: #4c72b0"/>
     <use xlink:href="#m707a23f511" x="322.48463" y="98.262076" style="fill: #4c72b0; stroke: #4c72b0"/>
     <use xlink:href="#m707a23f511" x="344.941932" y="79.889709" style="fill: #4c72b0; stroke: #4c72b0"/>
     <use xlink:href="#m707a23f511" x="376.593721" y="53.669604" style="fill: #4c72b0; stroke: #4c72b0"/>
     <use xlink:href="#m707a23f511" x="399.051023" y="34.894125" style="fill: #4c72b0; stroke: #4c72b0"/>
    </g>
   </g>
   <g id="line2d_8">
    <path d="M 74.396477 276.814125 
L 106.048266 274.006483 
L 128.505568 272.256885 
L 160.157357 268.243546 
L 182.614659 264.999867 
L 214.266448 258.462208 
L 236.72375 252.989839 
L 268.375539 244.71512 
L 290.832841 238.232834 
L 322.48463 227.665329 
L 344.941932 219.993245 
L 376.593721 206.310268 
L 399.051023 197.475887 
" clip-path="url(#pfb79ad676e)" style="fill: none; stroke-dasharray: 5.55,2.4; stroke-dashoffset: 0; stroke: #dd8452; stroke-width: 1.5"/>
    <defs>
     <path id="m3a6138cae4" d="M 0 3 
C 0.795609 3 1.55874 2.683901 2.12132 2.12132 
C 2.683901 1.55874 3 0.795609 3 0 
C 3 -0.795609 2.683901 -1.55874 2.12132 -2.12132 
C 1.55874 -2.683901 0.795609 -3 0 -3 
C -0.795609 -3 -1.55874 -2.683901 -2.12132 -2.12132 
C -2.683901 -1.55874 -3 -0.795609 -3 0 
C -3 0.795609 -2.683901 1.55874 -2.12132 2.12132 
C -1.55874 2.683901 -0.795609 3 0 3 
z
" style="stroke: #dd8452"/>
    </defs>
    <g clip-path="url(#pfb79ad676e)">
     <use xlink:href="#m3a6138cae4" x="74.396477" y="276.814125" style="fill: #dd8452; stroke: #dd8452"/>
     <use xlink:href="#m3a6138cae4" x="106.048266" y="274.006483" style="fill: #dd8452; stroke: #dd8452"/>
     <use xlink:href="#m3a6138cae4" x="128.505568" y="272.256885" style="fill: #dd8452; stroke: #dd8452"/>
     <use xlink:href="#m3a6138cae4" x="160.157357" y="268.243546" style="fill: #dd8452; stroke: #dd8452"/>
     <use xlink:href="#m3a6138cae4" x="182.614659" y="264.999867" style="fill: #dd8452; stroke: #dd8452"/>
     <use xlink:href="#m3a6138cae4" x="214.266448" y="258.462208" style="fill: #dd8452; stroke: #dd8452"/>
     <use xlink:href="#m3a6138cae4" x="236.72375" y="252.989839" style="fill: #dd8452; stroke: #dd8452"/>
     <use xlink:href="#m3a6138cae4" x="268.375539" y="244.71512" style="fill: #dd8452; stroke: #dd8452"/>
     <use xlink:href="#m3a6138cae4" x="290.832841" y="238.232834" style="fill: #dd8452; stroke: #dd8452"/>
     <use xlink:href="#m3a6138cae4" x="322.48463" y="227.665329" style="fill: #dd8452; stroke: #dd8452"/>
     <use xlink:href="#m3a6138cae4" x="344.941932" y="219.993245" style="fill: #dd8452; stroke: #dd8452"/>
     <use xlink:href="#m3a6138cae4" x="376.593721" y="206.310268" style="fill: #dd8452; stroke: #dd8452"/>
     <use xlink:href="#m3a6138cae4" x="399.051023" y="197.475887" style="fill: #dd8452; stroke: #dd8452"/>
    </g>
   </g>
   <g id="patch_3">
    <path d="M 58.16375 288.910125 
L 58.16375 22.798125 
" style="fill: none; stroke: #ffffff; stroke-width: 1.25; stroke-linejoin: miter; stroke-linecap: square"/>
   </g>
   <g id="patch_4">
    <path d="M 415.28375 288.910125 
L 415.28375 22.798125 
" style="fill: none; stroke: #ffffff; stroke-width: 1.25; stroke-linejoin: miter; stroke-linecap: square"/>
   </g>
   <g id="patch_5">
    <path d="M 58.16375 288.910125 
L 415.28375 288.910125 
" style="fill: none; stroke: #ffffff; stroke-width: 1.25; stroke-linejoin: miter; stroke-linecap: square"/>
   </g>
   <g id="patch_6">
    <path d="M 58.16375 22.798125 
L 415.28375 22.798125 
" style="fill: none; stroke: #ffffff; stroke-width: 1.25; stroke-linejoin: miter; stroke-linecap: square"/>
   </g>
   <g id="text_9">
    <!-- Tiempo de cómputo vs n para matrices tridiagonales -->
    <g style="fill: #262626" transform="translate(77.949688 16.798125) scale(0.12 -0.12)">
     <defs>
      <path id="DejaVuSans-f3" d="M 1959 3097 
Q 1497 3097 1228 2736 
Q 959 2375 959 1747 
Q 959 1119 1226 758 
Q 1494 397 1959 397 
Q 2419 397 2687 759 
Q 2956 1122 2956 1747 
Q 2956 2369 2687 2733 
Q 2419 3097 1959 3097 
z
M 1959 3584 
Q 2709 3584 3137 3096 
Q 3566 2609 3566 1747 
Q 3566 888 3137 398 
Q 2709 -91 1959 -91 
Q 1206 -91 779 398 
Q 353 888 353 1747 
Q 353 2609 779 3096 
Q 1206 3584 1959 3584 
z
M 2394 5119 
L 3016 5119 
L 1998 3944 
L 1519 3944 
L 2394 5119 
z
" transform="scale(0.015625)"/>
      <path id="DejaVuSans-76" d="M 191 3500 
L 800 3500 
L 1894 563 
L 2988 3500 
L 3597 3500 
L 2284 0 
L 1503 0 
L 191 3500 
z
" transform="scale(0.015625)"/>
      <path id="DejaVuSans-6e" d="M 3513 2113 
L 3513 0 
L 2938 0 
L 2938 2094 
Q 2938 2591 2744 2837 
Q 2550 3084 2163 3084 
Q 1697 3084 1428 2787 
Q 1159 2491 1159 1978 
L 1159 0 
L 581 0 
L 581 3500 
L 1159 3500 
L 1159 2956 
Q 1366 3272 1645 3428 
Q 1925 3584 2291 3584 
Q 2894 3584 3203 3211 
Q 3513 2838 3513 2113 
z
" transform="scale(0.015625)"/>
      <path id="DejaVuSans-67" d="M 2906 1791 
Q 2906 2416 2648 2759 
Q 2391 3103 1925 3103 
Q 1463 3103 1205 2759 
Q 947 2416 947 1791 
Q 947 1169 1205 825 
Q 1463 481 1925 481 
Q 2391 481 2648 825 
Q 2906 1169 2906 1791 
z
M 3481 434 
Q 3481 -459 3084 -895 
Q 2688 -1331 1869 -1331 
Q 1566 -1331 1297 -1286 
Q 1028 -1241 775 -1147 
L 775 -588 
Q 1028 -725 1275 -790 
Q 1522 -856 1778 -856 
Q 2344 -856 2625 -561 
Q 2906 -266 2906 331 
L 2906 616 
Q 2728 306 2450 153 
Q 2172 0 1784 0 
Q 1141 0 747 490 
Q 353 981 353 1791 
Q 353 2603 747 3093 
Q 1141 3584 1784 3584 
Q 2172 3584 2450 3431 
Q 2728 3278 2906 2969 
L 2906 3500 
L 3481 3500 
L 3481 434 
z
" transform="scale(0.015625)"/>
     </defs>
     <use xlink:href="#DejaVuSans-54"/>
     <use xlink:href="#DejaVuSans-69" x="57.958984"/>
     <use xlink:href="#DejaVuSans-65" x="85.742188"/>
     <use xlink:href="#DejaVuSans-6d" x="147.265625"/>
     <use xlink:href="#DejaVuSans-70" x="244.677734"/>
     <use xlink:href="#DejaVuSans-6f" x="308.154297"/>
     <use xlink:href="#DejaVuSans-20" x="369.335938"/>
     <use xlink:href="#DejaVuSans-64" x="401.123047"/>
     <use xlink:href="#DejaVuSans-65" x="464.599609"/>
     <use xlink:href="#DejaVuSans-20" x="526.123047"/>
     <use xlink:href="#DejaVuSans-63" x="557.910156"/>
     <use xlink:href="#DejaVuSans-f3" x="612.890625"/>
     <use xlink:href="#DejaVuSans-6d" x="674.072266"/>
     <use xlink:href="#DejaVuSans-70" x="771.484375"/>
     <use xlink:href="#DejaVuSans-75" x="834.960938"/>
     <use xlink:href="#DejaVuSans-74" x="898.339844"/>
     <use xlink:href="#DejaVuSans-6f" x="937.548828"/>
     <use xlink:href="#DejaVuSans-20" x="998.730469"/>
     <use xlink:href="#DejaVuSans-76" x="1030.517578"/>
     <use xlink:href="#DejaVuSans-73" x="1089.697266"/>
     <use xlink:href="#DejaVuSans-20" x="1141.796875"/>
     <use xlink:href="#DejaVuSans-6e" x="1173.583984"/>
     <use xlink:href="#DejaVuSans-20" x="1236.962891"/>
     <use xlink:href="#DejaVuSans-70" x="1268.75"/>
     <use xlink:href="#DejaVuSans-61" x="1332.226562"/>
     <use xlink:href="#DejaVuSans-72" x="1393.505859"/>
     <use xlink:href="#DejaVuSans-61" x="1434.619141"/>
     <use xlink:href="#DejaVuSans-20" x="1495.898438"/>
     <use xlink:href="#DejaVuSans-6d" x="1527.685547"/>
     <use xlink:href="#DejaVuSans-61" x="1625.097656"/>
     <use xlink:href="#DejaVuSans-74" x="1686.376953"/>
     <use xlink:href="#DejaVuSans-72" x="1725.585938"/>
     <use xlink:href="#DejaVuSans-69" x="1766.699219"/>
     <use xlink:href="#DejaVuSans-63" x="1794.482422"/>
     <use xlink:href="#DejaVuSans-65" x="1849.462891"/>
     <use xlink:href="#DejaVuSans-73" x="1910.986328"/>
     <use xlink:href="#DejaVuSans-20" x="1963.085938"/>
     <use xlink:href="#DejaVuSans-74" x="1994.873047"/>
     <use xlink:href="#DejaVuSans-72" x="2034.082031"/>
     <use xlink:href="#DejaVuSans-69" x="2075.195312"/>
     <use xlink:href="#DejaVuSans-64" x="2102.978516"/>
     <use xlink:href="#DejaVuSans-69" x="2166.455078"/>
     <use xlink:href="#DejaVuSans-61" x="2194.238281"/>
     <use xlink:href="#DejaVuSans-67" x="2255.517578"/>
     <use xlink:href="#DejaVuSans-6f" x="2318.994141"/>
     <use xlink:href="#DejaVuSans-6e" x="2380.175781"/>
     <use xlink:href="#DejaVuSans-61" x="2443.554688"/>
     <use xlink:href="#DejaVuSans-6c" x="2504.833984"/>
     <use xlink:href="#DejaVuSans-65" x="2532.617188"/>
     <use xlink:href="#DejaVuSans-73" x="2594.140625"/>
    </g>
   </g>
   <g id="legend_1">
    <g id="patch_7">
     <path d="M 65.86375 63.89 
L 289.535 63.89 
Q 291.735 63.89 291.735 61.69 
L 291.735 30.498125 
Q 291.735 28.298125 289.535 28.298125 
L 65.86375 28.298125 
Q 63.66375 28.298125 63.66375 30.498125 
L 63.66375 61.69 
Q 63.66375 63.89 65.86375 63.89 
z
" style="fill: #eaeaf2; opacity: 0.8; stroke: #cccccc; stroke-linejoin: miter"/>
    </g>
    <g id="line2d_9">
     <path d="M 68.06375 37.206406 
L 79.06375 37.206406 
L 90.06375 37.206406 
" style="fill: none; stroke-dasharray: 5.55,2.4; stroke-dashoffset: 0; stroke: #4c72b0; stroke-width: 1.5"/>
     <g>
      <use xlink:href="#m707a23f511" x="79.06375" y="37.206406" style="fill: #4c72b0; stroke: #4c72b0"/>
     </g>
    </g>
    <g id="text_10">
     <!-- EG con pivoteo -->
     <g style="fill: #262626" transform="translate(98.86375 41.056406) scale(0.11 -0.11)">
      <defs>
       <path id="DejaVuSans-45" d="M 628 4666 
L 3578 4666 
L 3578 4134 
L 1259 4134 
L 1259 2753 
L 3481 2753 
L 3481 2222 
L 1259 2222 
L 1259 531 
L 3634 531 
L 3634 0 
L 628 0 
L 628 4666 
z
" transform="scale(0.015625)"/>
       <path id="DejaVuSans-47" d="M 3809 666 
L 3809 1919 
L 2778 1919 
L 2778 2438 
L 4434 2438 
L 4434 434 
Q 4069 175 3628 42 
Q 3188 -91 2688 -91 
Q 1594 -91 976 548 
Q 359 1188 359 2328 
Q 359 3472 976 4111 
Q 1594 4750 2688 4750 
Q 3144 4750 3555 4637 
Q 3966 4525 4313 4306 
L 4313 3634 
Q 3963 3931 3569 4081 
Q 3175 4231 2741 4231 
Q 1884 4231 1454 3753 
Q 1025 3275 1025 2328 
Q 1025 1384 1454 906 
Q 1884 428 2741 428 
Q 3075 428 3337 486 
Q 3600 544 3809 666 
z
" transform="scale(0.015625)"/>
      </defs>
      <use xlink:href="#DejaVuSans-45"/>
      <use xlink:href="#DejaVuSans-47" x="63.183594"/>
      <use xlink:href="#DejaVuSans-20" x="140.673828"/>
      <use xlink:href="#DejaVuSans-63" x="172.460938"/>
      <use xlink:href="#DejaVuSans-6f" x="227.441406"/>
      <use xlink:href="#DejaVuSans-6e" x="288.623047"/>
      <use xlink:href="#DejaVuSans-20" x="352.001953"/>
      <use xlink:href="#DejaVuSans-70" x="383.789062"/>
      <use xlink:href="#DejaVuSans-69" x="447.265625"/>
      <use xlink:href="#DejaVuSans-76" x="475.048828"/>
      <use xlink:href="#DejaVuSans-6f" x="534.228516"/>
      <use xlink:href="#DejaVuSans-74" x="595.410156"/>
      <use xlink:href="#DejaVuSans-65" x="634.619141"/>
      <use xlink:href="#DejaVuSans-6f" x="696.142578"/>
     </g>
    </g>
    <g id="line2d_10">
     <path d="M 68.06375 53.352344 
L 79.06375 53.352344 
L 90.06375 53.352344 
" style="fill: none; stroke-dasharray: 5.55,2.4; stroke-dashoffset: 0; stroke: #dd8452; stroke-width: 1.5"/>
     <g>
      <use xlink:href="#m3a6138cae4" x="79.06375" y="53.352344" style="fill: #dd8452; stroke: #dd8452"/>
     </g>
    </g>
    <g id="text_11">
     <!-- EG tridiagonales (sin precomputo) -->
     <g style="fill: #262626" transform="translate(98.86375 57.202344) scale(0.11 -0.11)">
      <use xlink:href="#DejaVuSans-45"/>
      <use xlink:href="#DejaVuSans-47" x="63.183594"/>
      <use xlink:href="#DejaVuSans-20" x="140.673828"/>
      <use xlink:href="#DejaVuSans-74" x="172.460938"/>
      <use xlink:href="#DejaVuSans-72" x="211.669922"/>
      <use xlink:href="#DejaVuSans-69" x="252.783203"/>
      <use xlink:href="#DejaVuSans-64" x="280.566406"/>
      <use xlink:href="#DejaVuSans-69" x="344.042969"/>
      <use xlink:href="#DejaVuSans-61" x="371.826172"/>
      <use xlink:href="#DejaVuSans-67" x="433.105469"/>
      <use xlink:href="#DejaVuSans-6f" x="496.582031"/>
      <use xlink:href="#DejaVuSans-6e" x="557.763672"/>
      <use xlink:href="#DejaVuSans-61" x="621.142578"/>
      <use xlink:href="#DejaVuSans-6c" x="682.421875"/>
      <use xlink:href="#DejaVuSans-65" x="710.205078"/>
      <use xlink:href="#DejaVuSans-73" x="771.728516"/>
      <use xlink:href="#DejaVuSans-20" x="823.828125"/>
      <use xlink:href="#DejaVuSans-28" x="855.615234"/>
      <use xlink:href="#DejaVuSans-73" x="894.628906"/>
      <use xlink:href="#DejaVuSans-69" x="946.728516"/>
      <use xlink:href="#DejaVuSans-6e" x="974.511719"/>
      <use xlink:href="#DejaVuSans-20" x="1037.890625"/>
      <use xlink:href="#DejaVuSans-70" x="1069.677734"/>
      <use xlink:href="#DejaVuSans-72" x="1133.154297"/>
      <use xlink:href="#DejaVuSans-65" x="1172.017578"/>
      <use xlink:href="#DejaVuSans-63" x="1233.541016"/>
      <use xlink:href="#DejaVuSans-6f" x="1288.521484"/>
      <use xlink:href="#DejaVuSans-6d" x="1349.703125"/>
      <use xlink:href="#DejaVuSans-70" x="1447.115234"/>
      <use xlink:href="#DejaVuSans-75" x="1510.591797"/>
      <use xlink:href="#DejaVuSans-74" x="1573.970703"/>
      <use xlink:href="#DejaVuSans-6f" x="1613.179688"/>
      <use xlink:href="#DejaVuSans-29" x="1674.361328"/>
     </g>
    </g>
   </g>
  </g>
 </g>
 <defs>
  <clipPath id="pfb79ad676e">
   <rect x="58.16375" y="22.798125" width="357.12" height="266.112"/>
  </clipPath>
 </defs>
</svg>
