<?xml version="1.0" encoding="utf-8" standalone="no"?>
<!DOCTYPE svg PUBLIC "-//W3C//DTD SVG 1.1//EN"
  "http://www.w3.org/Graphics/SVG/1.1/DTD/svg11.dtd">
<svg xmlns:xlink="http://www.w3.org/1999/xlink" width="420.916562pt" height="330.902pt" viewBox="0 0 420.916562 330.902" xmlns="http://www.w3.org/2000/svg" version="1.1">
 <metadata>
  <rdf:RDF xmlns:dc="http://purl.org/dc/elements/1.1/" xmlns:cc="http://creativecommons.org/ns#" xmlns:rdf="http://www.w3.org/1999/02/22-rdf-syntax-ns#">
   <cc:Work>
    <dc:type rdf:resource="http://purl.org/dc/dcmitype/StillImage"/>
    <dc:date>2023-09-09T14:12:38.888655</dc:date>
    <dc:format>image/svg+xml</dc:format>
    <dc:creator>
     <cc:Agent>
      <dc:title>Matplotlib v3.7.1, https://matplotlib.org/</dc:title>
     </cc:Agent>
    </dc:creator>
   </cc:Work>
  </rdf:RDF>
 </metadata>
 <defs>
  <style type="text/css">*{stroke-linejoin: round; stroke-linecap: butt}</style>
 </defs>
 <g id="figure_1">
  <g id="patch_1">
   <path d="M 0 330.902 
L 420.916562 330.902 
L 420.916562 0 
L 0 0 
z
" style="fill: #ffffff"/>
  </g>
  <g id="axes_1">
   <g id="patch_2">
    <path d="M 56.596563 288.910125 
L 413.716563 288.910125 
L 413.716563 22.798125 
L 56.596563 22.798125 
z
" style="fill: #eaeaf2"/>
   </g>
   <g id="matplotlib.axis_1">
    <g id="xtick_1">
     <g id="line2d_1">
      <path d="M 72.82929 288.910125 
L 72.82929 22.798125 
" clip-path="url(#pfdeb91a603)" style="fill: none; stroke: #ffffff; stroke-linecap: round"/>
     </g>
     <g id="text_1">
      <!-- 0 -->
      <g style="fill: #262626" transform="translate(69.64804 306.008562) scale(0.1 -0.1)">
       <defs>
        <path id="DejaVuSans-30" d="M 2034 4250 
Q 1547 4250 1301 3770 
Q 1056 3291 1056 2328 
Q 1056 1369 1301 889 
Q 1547 409 2034 409 
Q 2525 409 2770 889 
Q 3016 1369 3016 2328 
Q 3016 3291 2770 3770 
Q 2525 4250 2034 4250 
z
M 2034 4750 
Q 2819 4750 3233 4129 
Q 3647 3509 3647 2328 
Q 3647 1150 3233 529 
Q 2819 -91 2034 -91 
Q 1250 -91 836 529 
Q 422 1150 422 2328 
Q 422 3509 836 4129 
Q 1250 4750 2034 4750 
z
" transform="scale(0.015625)"/>
       </defs>
       <use xlink:href="#DejaVuSans-30"/>
      </g>
     </g>
    </g>
    <g id="xtick_2">
     <g id="line2d_2">
      <path d="M 137.760199 288.910125 
L 137.760199 22.798125 
" clip-path="url(#pfdeb91a603)" style="fill: none; stroke: #ffffff; stroke-linecap: round"/>
     </g>
     <g id="text_2">
      <!-- 20 -->
      <g style="fill: #262626" transform="translate(131.397699 306.008562) scale(0.1 -0.1)">
       <defs>
        <path id="DejaVuSans-32" d="M 1228 531 
L 3431 531 
L 3431 0 
L 469 0 
L 469 531 
Q 828 903 1448 1529 
Q 2069 2156 2228 2338 
Q 2531 2678 2651 2914 
Q 2772 3150 2772 3378 
Q 2772 3750 2511 3984 
Q 2250 4219 1831 4219 
Q 1534 4219 1204 4116 
Q 875 4013 500 3803 
L 500 4441 
Q 881 4594 1212 4672 
Q 1544 4750 1819 4750 
Q 2544 4750 2975 4387 
Q 3406 4025 3406 3419 
Q 3406 3131 3298 2873 
Q 3191 2616 2906 2266 
Q 2828 2175 2409 1742 
Q 1991 1309 1228 531 
z
" transform="scale(0.015625)"/>
       </defs>
       <use xlink:href="#DejaVuSans-32"/>
       <use xlink:href="#DejaVuSans-30" x="63.623047"/>
      </g>
     </g>
    </g>
    <g id="xtick_3">
     <g id="line2d_3">
      <path d="M 202.691108 288.910125 
L 202.691108 22.798125 
" clip-path="url(#pfdeb91a603)" style="fill: none; stroke: #ffffff; stroke-linecap: round"/>
     </g>
     <g id="text_3">
      <!-- 40 -->
      <g style="fill: #262626" transform="translate(196.328608 306.008562) scale(0.1 -0.1)">
       <defs>
        <path id="DejaVuSans-34" d="M 2419 4116 
L 825 1625 
L 2419 1625 
L 2419 4116 
z
M 2253 4666 
L 3047 4666 
L 3047 1625 
L 3713 1625 
L 3713 1100 
L 3047 1100 
L 3047 0 
L 2419 0 
L 2419 1100 
L 313 1100 
L 313 1709 
L 2253 4666 
z
" transform="scale(0.015625)"/>
       </defs>
       <use xlink:href="#DejaVuSans-34"/>
       <use xlink:href="#DejaVuSans-30" x="63.623047"/>
      </g>
     </g>
    </g>
    <g id="xtick_4">
     <g id="line2d_4">
      <path d="M 267.622017 288.910125 
L 267.622017 22.798125 
" clip-path="url(#pfdeb91a603)" style="fill: none; stroke: #ffffff; stroke-linecap: round"/>
     </g>
     <g id="text_4">
      <!-- 60 -->
      <g style="fill: #262626" transform="translate(261.259517 306.008562) scale(0.1 -0.1)">
       <defs>
        <path id="DejaVuSans-36" d="M 2113 2584 
Q 1688 2584 1439 2293 
Q 1191 2003 1191 1497 
Q 1191 994 1439 701 
Q 1688 409 2113 409 
Q 2538 409 2786 701 
Q 3034 994 3034 1497 
Q 3034 2003 2786 2293 
Q 2538 2584 2113 2584 
z
M 3366 4563 
L 3366 3988 
Q 3128 4100 2886 4159 
Q 2644 4219 2406 4219 
Q 1781 4219 1451 3797 
Q 1122 3375 1075 2522 
Q 1259 2794 1537 2939 
Q 1816 3084 2150 3084 
Q 2853 3084 3261 2657 
Q 3669 2231 3669 1497 
Q 3669 778 3244 343 
Q 2819 -91 2113 -91 
Q 1303 -91 875 529 
Q 447 1150 447 2328 
Q 447 3434 972 4092 
Q 1497 4750 2381 4750 
Q 2619 4750 2861 4703 
Q 3103 4656 3366 4563 
z
" transform="scale(0.015625)"/>
       </defs>
       <use xlink:href="#DejaVuSans-36"/>
       <use xlink:href="#DejaVuSans-30" x="63.623047"/>
      </g>
     </g>
    </g>
    <g id="xtick_5">
     <g id="line2d_5">
      <path d="M 332.552926 288.910125 
L 332.552926 22.798125 
" clip-path="url(#pfdeb91a603)" style="fill: none; stroke: #ffffff; stroke-linecap: round"/>
     </g>
     <g id="text_5">
      <!-- 80 -->
      <g style="fill: #262626" transform="translate(326.190426 306.008562) scale(0.1 -0.1)">
       <defs>
        <path id="DejaVuSans-38" d="M 2034 2216 
Q 1584 2216 1326 1975 
Q 1069 1734 1069 1313 
Q 1069 891 1326 650 
Q 1584 409 2034 409 
Q 2484 409 2743 651 
Q 3003 894 3003 1313 
Q 3003 1734 2745 1975 
Q 2488 2216 2034 2216 
z
M 1403 2484 
Q 997 2584 770 2862 
Q 544 3141 544 3541 
Q 544 4100 942 4425 
Q 1341 4750 2034 4750 
Q 2731 4750 3128 4425 
Q 3525 4100 3525 3541 
Q 3525 3141 3298 2862 
Q 3072 2584 2669 2484 
Q 3125 2378 3379 2068 
Q 3634 1759 3634 1313 
Q 3634 634 3220 271 
Q 2806 -91 2034 -91 
Q 1263 -91 848 271 
Q 434 634 434 1313 
Q 434 1759 690 2068 
Q 947 2378 1403 2484 
z
M 1172 3481 
Q 1172 3119 1398 2916 
Q 1625 2713 2034 2713 
Q 2441 2713 2670 2916 
Q 2900 3119 2900 3481 
Q 2900 3844 2670 4047 
Q 2441 4250 2034 4250 
Q 1625 4250 1398 4047 
Q 1172 3844 1172 3481 
z
" transform="scale(0.015625)"/>
       </defs>
       <use xlink:href="#DejaVuSans-38"/>
       <use xlink:href="#DejaVuSans-30" x="63.623047"/>
      </g>
     </g>
    </g>
    <g id="xtick_6">
     <g id="line2d_6">
      <path d="M 397.483835 288.910125 
L 397.483835 22.798125 
" clip-path="url(#pfdeb91a603)" style="fill: none; stroke: #ffffff; stroke-linecap: round"/>
     </g>
     <g id="text_6">
      <!-- 100 -->
      <g style="fill: #262626" transform="translate(387.940085 306.008562) scale(0.1 -0.1)">
       <defs>
        <path id="DejaVuSans-31" d="M 794 531 
L 1825 531 
L 1825 4091 
L 703 3866 
L 703 4441 
L 1819 4666 
L 2450 4666 
L 2450 531 
L 3481 531 
L 3481 0 
L 794 0 
L 794 531 
z
" transform="scale(0.015625)"/>
       </defs>
       <use xlink:href="#DejaVuSans-31"/>
       <use xlink:href="#DejaVuSans-30" x="63.623047"/>
       <use xlink:href="#DejaVuSans-30" x="127.246094"/>
      </g>
     </g>
    </g>
    <g id="text_7">
     <!-- x -->
     <g style="fill: #262626" transform="translate(231.605312 321.206375) scale(0.12 -0.12)">
      <defs>
       <path id="DejaVuSans-78" d="M 3513 3500 
L 2247 1797 
L 3578 0 
L 2900 0 
L 1881 1375 
L 863 0 
L 184 0 
L 1544 1831 
L 300 3500 
L 978 3500 
L 1906 2253 
L 2834 3500 
L 3513 3500 
z
" transform="scale(0.015625)"/>
      </defs>
      <use xlink:href="#DejaVuSans-78"/>
     </g>
    </g>
   </g>
   <g id="matplotlib.axis_2">
    <g id="ytick_1">
     <g id="line2d_7">
      <path d="M 56.596563 274.91166 
L 413.716563 274.91166 
" clip-path="url(#pfdeb91a603)" style="fill: none; stroke: #ffffff; stroke-linecap: round"/>
     </g>
     <g id="text_8">
      <!-- −1.0 -->
      <g style="fill: #262626" transform="translate(22.81375 278.710879) scale(0.1 -0.1)">
       <defs>
        <path id="DejaVuSans-2212" d="M 678 2272 
L 4684 2272 
L 4684 1741 
L 678 1741 
L 678 2272 
z
" transform="scale(0.015625)"/>
        <path id="DejaVuSans-2e" d="M 684 794 
L 1344 794 
L 1344 0 
L 684 0 
L 684 794 
z
" transform="scale(0.015625)"/>
       </defs>
       <use xlink:href="#DejaVuSans-2212"/>
       <use xlink:href="#DejaVuSans-31" x="83.789062"/>
       <use xlink:href="#DejaVuSans-2e" x="147.412109"/>
       <use xlink:href="#DejaVuSans-30" x="179.199219"/>
      </g>
     </g>
    </g>
    <g id="ytick_2">
     <g id="line2d_8">
      <path d="M 56.596563 234.913312 
L 413.716563 234.913312 
" clip-path="url(#pfdeb91a603)" style="fill: none; stroke: #ffffff; stroke-linecap: round"/>
     </g>
     <g id="text_9">
      <!-- −0.8 -->
      <g style="fill: #262626" transform="translate(22.81375 238.712531) scale(0.1 -0.1)">
       <use xlink:href="#DejaVuSans-2212"/>
       <use xlink:href="#DejaVuSans-30" x="83.789062"/>
       <use xlink:href="#DejaVuSans-2e" x="147.412109"/>
       <use xlink:href="#DejaVuSans-38" x="179.199219"/>
      </g>
     </g>
    </g>
    <g id="ytick_3">
     <g id="line2d_9">
      <path d="M 56.596563 194.914964 
L 413.716563 194.914964 
" clip-path="url(#pfdeb91a603)" style="fill: none; stroke: #ffffff; stroke-linecap: round"/>
     </g>
     <g id="text_10">
      <!-- −0.6 -->
      <g style="fill: #262626" transform="translate(22.81375 198.714183) scale(0.1 -0.1)">
       <use xlink:href="#DejaVuSans-2212"/>
       <use xlink:href="#DejaVuSans-30" x="83.789062"/>
       <use xlink:href="#DejaVuSans-2e" x="147.412109"/>
       <use xlink:href="#DejaVuSans-36" x="179.199219"/>
      </g>
     </g>
    </g>
    <g id="ytick_4">
     <g id="line2d_10">
      <path d="M 56.596563 154.916616 
L 413.716563 154.916616 
" clip-path="url(#pfdeb91a603)" style="fill: none; stroke: #ffffff; stroke-linecap: round"/>
     </g>
     <g id="text_11">
      <!-- −0.4 -->
      <g style="fill: #262626" transform="translate(22.81375 158.715835) scale(0.1 -0.1)">
       <use xlink:href="#DejaVuSans-2212"/>
       <use xlink:href="#DejaVuSans-30" x="83.789062"/>
       <use xlink:href="#DejaVuSans-2e" x="147.412109"/>
       <use xlink:href="#DejaVuSans-34" x="179.199219"/>
      </g>
     </g>
    </g>
    <g id="ytick_5">
     <g id="line2d_11">
      <path d="M 56.596563 114.918268 
L 413.716563 114.918268 
" clip-path="url(#pfdeb91a603)" style="fill: none; stroke: #ffffff; stroke-linecap: round"/>
     </g>
     <g id="text_12">
      <!-- −0.2 -->
      <g style="fill: #262626" transform="translate(22.81375 118.717487) scale(0.1 -0.1)">
       <use xlink:href="#DejaVuSans-2212"/>
       <use xlink:href="#DejaVuSans-30" x="83.789062"/>
       <use xlink:href="#DejaVuSans-2e" x="147.412109"/>
       <use xlink:href="#DejaVuSans-32" x="179.199219"/>
      </g>
     </g>
    </g>
    <g id="ytick_6">
     <g id="line2d_12">
      <path d="M 56.596563 74.91992 
L 413.716563 74.91992 
" clip-path="url(#pfdeb91a603)" style="fill: none; stroke: #ffffff; stroke-linecap: round"/>
     </g>
     <g id="text_13">
      <!-- 0.0 -->
      <g style="fill: #262626" transform="translate(31.193438 78.719139) scale(0.1 -0.1)">
       <use xlink:href="#DejaVuSans-30"/>
       <use xlink:href="#DejaVuSans-2e" x="63.623047"/>
       <use xlink:href="#DejaVuSans-30" x="95.410156"/>
      </g>
     </g>
    </g>
    <g id="ytick_7">
     <g id="line2d_13">
      <path d="M 56.596563 34.921572 
L 413.716563 34.921572 
" clip-path="url(#pfdeb91a603)" style="fill: none; stroke: #ffffff; stroke-linecap: round"/>
     </g>
     <g id="text_14">
      <!-- 0.2 -->
      <g style="fill: #262626" transform="translate(31.193438 38.720791) scale(0.1 -0.1)">
       <use xlink:href="#DejaVuSans-30"/>
       <use xlink:href="#DejaVuSans-2e" x="63.623047"/>
       <use xlink:href="#DejaVuSans-32" x="95.410156"/>
      </g>
     </g>
    </g>
    <g id="text_15">
     <!-- f(x) -->
     <g style="fill: #262626" transform="translate(16.318125 166.199437) rotate(-90) scale(0.12 -0.12)">
      <defs>
       <path id="DejaVuSans-66" d="M 2375 4863 
L 2375 4384 
L 1825 4384 
Q 1516 4384 1395 4259 
Q 1275 4134 1275 3809 
L 1275 3500 
L 2222 3500 
L 2222 3053 
L 1275 3053 
L 1275 0 
L 697 0 
L 697 3053 
L 147 3053 
L 147 3500 
L 697 3500 
L 697 3744 
Q 697 4328 969 4595 
Q 1241 4863 1831 4863 
L 2375 4863 
z
" transform="scale(0.015625)"/>
       <path id="DejaVuSans-28" d="M 1984 4856 
Q 1566 4138 1362 3434 
Q 1159 2731 1159 2009 
Q 1159 1288 1364 580 
Q 1569 -128 1984 -844 
L 1484 -844 
Q 1016 -109 783 600 
Q 550 1309 550 2009 
Q 550 2706 781 3412 
Q 1013 4119 1484 4856 
L 1984 4856 
z
" transform="scale(0.015625)"/>
       <path id="DejaVuSans-29" d="M 513 4856 
L 1013 4856 
Q 1481 4119 1714 3412 
Q 1947 2706 1947 2009 
Q 1947 1309 1714 600 
Q 1481 -109 1013 -844 
L 513 -844 
Q 928 -128 1133 580 
Q 1338 1288 1338 2009 
Q 1338 2731 1133 3434 
Q 928 4138 513 4856 
z
" transform="scale(0.015625)"/>
      </defs>
      <use xlink:href="#DejaVuSans-66"/>
      <use xlink:href="#DejaVuSans-28" x="35.205078"/>
      <use xlink:href="#DejaVuSans-78" x="74.21875"/>
      <use xlink:href="#DejaVuSans-29" x="133.398438"/>
     </g>
    </g>
   </g>
   <g id="line2d_14">
    <path d="M 72.82929 78.802501 
L 76.075835 82.685082 
L 79.322381 86.567663 
L 82.568926 90.450244 
L 85.815472 94.332825 
L 89.062017 98.215405 
L 92.308563 102.097986 
L 95.555108 105.980567 
L 98.801653 109.863148 
L 102.048199 113.745729 
L 105.294744 117.62831 
L 108.54129 121.510891 
L 111.787835 125.393471 
L 115.034381 129.276052 
L 118.280926 133.158633 
L 121.527472 137.041214 
L 124.774017 140.923795 
L 128.020563 144.806376 
L 131.267108 148.688957 
L 134.513653 152.571537 
L 137.760199 156.454118 
L 141.006744 160.336699 
L 144.25329 164.21928 
L 147.499835 168.101861 
L 150.746381 171.984442 
L 153.992926 175.867023 
L 157.239472 179.749603 
L 160.486017 183.632184 
L 163.732563 187.514765 
L 166.979108 191.397346 
L 170.225653 195.279927 
L 173.472199 199.162508 
L 176.718744 203.045089 
L 179.96529 206.927669 
L 183.211835 210.81025 
L 186.458381 214.692831 
L 189.704926 218.575412 
L 192.951472 222.457993 
L 196.198017 226.340574 
L 199.444563 230.223155 
L 202.691108 234.105736 
L 205.937653 237.988316 
L 209.184199 241.870897 
L 212.430744 245.753478 
L 215.67729 249.636059 
L 218.923835 253.51864 
L 222.170381 257.401221 
L 225.416926 261.283802 
L 228.663472 265.166382 
L 231.910017 269.048963 
L 235.156563 272.931544 
L 238.403108 276.814125 
L 241.649653 272.776241 
L 244.896199 268.738357 
L 248.142744 264.700473 
L 251.38929 260.662589 
L 254.635835 256.624705 
L 257.882381 252.58682 
L 261.128926 248.548936 
L 264.375472 244.511052 
L 267.622017 240.473168 
L 270.868562 236.435284 
L 274.115108 232.3974 
L 277.361653 228.359516 
L 280.608199 224.321632 
L 283.854744 220.283748 
L 287.10129 216.245864 
L 290.347835 212.207979 
L 293.594381 208.170095 
L 296.840926 204.132211 
L 300.087472 200.094327 
L 303.334017 196.056443 
L 306.580562 192.018559 
L 309.827108 187.980675 
L 313.073653 183.942791 
L 316.320199 179.904907 
L 319.566744 175.867023 
L 322.81329 171.829139 
L 326.059835 167.791254 
L 329.306381 163.75337 
L 332.552926 159.715486 
L 335.799472 155.677602 
L 339.046017 151.639718 
L 342.292563 147.601834 
L 345.539108 143.56395 
L 348.785653 139.526066 
L 352.032199 135.488182 
L 355.278744 131.450298 
L 358.52529 127.412413 
L 361.771835 123.374529 
L 365.018381 119.336645 
L 368.264926 115.298761 
L 371.511472 111.260877 
L 374.758017 107.222993 
L 378.004563 103.185109 
L 381.251108 99.147225 
L 384.497653 95.109341 
L 387.744199 91.071457 
L 390.990744 87.033572 
L 394.23729 82.995688 
L 397.483835 78.957804 
" clip-path="url(#pfdeb91a603)" style="fill: none; stroke: #4c72b0; stroke-width: 1.5; stroke-linecap: round"/>
   </g>
   <g id="line2d_15">
    <path d="M 72.82929 78.880153 
L 76.075835 82.761965 
L 79.322381 86.565356 
L 82.568926 90.290327 
L 85.815472 93.936878 
L 89.062017 97.505008 
L 92.308563 100.994718 
L 95.555108 104.406008 
L 98.801653 107.738876 
L 102.048199 110.993325 
L 105.294744 114.169353 
L 108.54129 117.266961 
L 111.787835 120.286148 
L 115.034381 123.226914 
L 118.280926 126.089261 
L 121.527472 128.873186 
L 124.774017 131.578692 
L 128.020563 134.205777 
L 131.267108 136.754441 
L 134.513653 139.224685 
L 137.760199 141.616509 
L 141.006744 143.929912 
L 144.25329 146.164895 
L 147.499835 148.321457 
L 150.746381 150.399599 
L 153.992926 152.39932 
L 157.239472 154.320621 
L 160.486017 156.163501 
L 163.732563 157.927961 
L 166.979108 159.614001 
L 170.225653 161.22162 
L 173.472199 162.750819 
L 176.718744 164.201597 
L 179.96529 165.573955 
L 183.211835 166.867892 
L 186.458381 168.083409 
L 189.704926 169.220505 
L 192.951472 170.279181 
L 196.198017 171.259437 
L 199.444563 172.161272 
L 202.691108 172.984687 
L 205.937653 173.729681 
L 209.184199 174.396255 
L 212.430744 174.984408 
L 215.67729 175.494141 
L 218.923835 175.925454 
L 222.170381 176.278346 
L 225.416926 176.552817 
L 228.663472 176.748868 
L 231.910017 176.866499 
L 235.156563 176.905709 
L 238.403108 176.866499 
L 241.649653 176.748868 
L 244.896199 176.552817 
L 248.142744 176.278346 
L 251.38929 175.925454 
L 254.635835 175.494141 
L 257.882381 174.984408 
L 261.128926 174.396255 
L 264.375472 173.729681 
L 267.622017 172.984687 
L 270.868562 172.161272 
L 274.115108 171.259437 
L 277.361653 170.279181 
L 280.608199 169.220505 
L 283.854744 168.083409 
L 287.10129 166.867892 
L 290.347835 165.573955 
L 293.594381 164.201597 
L 296.840926 162.750819 
L 300.087472 161.22162 
L 303.334017 159.614001 
L 306.580562 157.927961 
L 309.827108 156.163501 
L 313.073653 154.320621 
L 316.320199 152.39932 
L 319.566744 150.399599 
L 322.81329 148.321457 
L 326.059835 146.164895 
L 329.306381 143.929912 
L 332.552926 141.616509 
L 335.799472 139.224685 
L 339.046017 136.754441 
L 342.292563 134.205777 
L 345.539108 131.578692 
L 348.785653 128.873186 
L 352.032199 126.089261 
L 355.278744 123.226914 
L 358.52529 120.286148 
L 361.771835 117.266961 
L 365.018381 114.169353 
L 368.264926 110.993325 
L 371.511472 107.738876 
L 374.758017 104.406008 
L 378.004563 100.994718 
L 381.251108 97.505008 
L 384.497653 93.936878 
L 387.744199 90.290327 
L 390.990744 86.565356 
L 394.23729 82.761965 
L 397.483835 78.880153 
" clip-path="url(#pfdeb91a603)" style="fill: none; stroke: #dd8452; stroke-width: 1.5; stroke-linecap: round"/>
   </g>
   <g id="line2d_16">
    <path d="M 72.82929 70.959688 
L 76.075835 67.234717 
L 79.322381 63.740302 
L 82.568926 60.471737 
L 85.815472 57.424319 
L 89.062017 54.593341 
L 92.308563 51.974098 
L 95.555108 49.561885 
L 98.801653 47.351997 
L 102.048199 45.339728 
L 105.294744 43.520374 
L 108.54129 41.889229 
L 111.787835 40.441587 
L 115.034381 39.172744 
L 118.280926 38.077995 
L 121.527472 37.152634 
L 124.774017 36.391956 
L 128.020563 35.791255 
L 131.267108 35.345827 
L 134.513653 35.050966 
L 137.760199 34.901967 
L 141.006744 34.894125 
L 144.25329 35.022735 
L 147.499835 35.28309 
L 150.746381 35.670487 
L 153.992926 36.18022 
L 157.239472 36.807584 
L 160.486017 37.547873 
L 163.732563 38.396382 
L 166.979108 39.348406 
L 170.225653 40.39924 
L 173.472199 41.544179 
L 176.718744 42.778517 
L 179.96529 44.097548 
L 183.211835 45.496569 
L 186.458381 46.970874 
L 189.704926 48.515756 
L 192.951472 50.126512 
L 196.198017 51.798436 
L 199.444563 53.526823 
L 202.691108 55.306967 
L 205.937653 57.134163 
L 209.184199 59.003707 
L 212.430744 60.910892 
L 215.67729 62.851014 
L 218.923835 64.819367 
L 222.170381 66.811246 
L 225.416926 68.821946 
L 228.663472 70.846762 
L 231.910017 72.880989 
L 235.156563 74.91992 
L 238.403108 76.958852 
L 241.649653 78.993078 
L 244.896199 81.017894 
L 248.142744 83.028594 
L 251.38929 85.020474 
L 254.635835 86.988827 
L 257.882381 88.928949 
L 261.128926 90.836134 
L 264.375472 92.705677 
L 267.622017 94.532874 
L 270.868562 96.313018 
L 274.115108 98.041404 
L 277.361653 99.713328 
L 280.608199 101.324084 
L 283.854744 102.868967 
L 287.10129 104.343271 
L 290.347835 105.742292 
L 293.594381 107.061324 
L 296.840926 108.295662 
L 300.087472 109.4406 
L 303.334017 110.491434 
L 306.580562 111.443458 
L 309.827108 112.291968 
L 313.073653 113.032257 
L 316.320199 113.65962 
L 319.566744 114.169353 
L 322.81329 114.55675 
L 326.059835 114.817106 
L 329.306381 114.945715 
L 332.552926 114.937873 
L 335.799472 114.788874 
L 339.046017 114.494014 
L 342.292563 114.048585 
L 345.539108 113.447885 
L 348.785653 112.687207 
L 352.032199 111.761845 
L 355.278744 110.667096 
L 358.52529 109.398253 
L 361.771835 107.950612 
L 365.018381 106.319466 
L 368.264926 104.500112 
L 371.511472 102.487843 
L 374.758017 100.277955 
L 378.004563 97.865742 
L 381.251108 95.2465 
L 384.497653 92.415522 
L 387.744199 89.368103 
L 390.990744 86.099539 
L 394.23729 82.605124 
L 397.483835 78.880153 
" clip-path="url(#pfdeb91a603)" style="fill: none; stroke: #55a868; stroke-width: 1.5; stroke-linecap: round"/>
   </g>
   <g id="patch_3">
    <path d="M 56.596563 288.910125 
L 56.596563 22.798125 
" style="fill: none; stroke: #ffffff; stroke-width: 1.25; stroke-linejoin: miter; stroke-linecap: square"/>
   </g>
   <g id="patch_4">
    <path d="M 413.716563 288.910125 
L 413.716563 22.798125 
" style="fill: none; stroke: #ffffff; stroke-width: 1.25; stroke-linejoin: miter; stroke-linecap: square"/>
   </g>
   <g id="patch_5">
    <path d="M 56.596563 288.910125 
L 413.716563 288.910125 
" style="fill: none; stroke: #ffffff; stroke-width: 1.25; stroke-linejoin: miter; stroke-linecap: square"/>
   </g>
   <g id="patch_6">
    <path d="M 56.596563 22.798125 
L 413.716563 22.798125 
" style="fill: none; stroke: #ffffff; stroke-width: 1.25; stroke-linejoin: miter; stroke-linecap: square"/>
   </g>
   <g id="text_16">
    <!-- Gráfico de función correspondiente a su derivada segunda -->
    <g style="fill: #262626" transform="translate(59.159688 16.798125) scale(0.12 -0.12)">
     <defs>
      <path id="DejaVuSans-47" d="M 3809 666 
L 3809 1919 
L 2778 1919 
L 2778 2438 
L 4434 2438 
L 4434 434 
Q 4069 175 3628 42 
Q 3188 -91 2688 -91 
Q 1594 -91 976 548 
Q 359 1188 359 2328 
Q 359 3472 976 4111 
Q 1594 4750 2688 4750 
Q 3144 4750 3555 4637 
Q 3966 4525 4313 4306 
L 4313 3634 
Q 3963 3931 3569 4081 
Q 3175 4231 2741 4231 
Q 1884 4231 1454 3753 
Q 1025 3275 1025 2328 
Q 1025 1384 1454 906 
Q 1884 428 2741 428 
Q 3075 428 3337 486 
Q 3600 544 3809 666 
z
" transform="scale(0.015625)"/>
      <path id="DejaVuSans-72" d="M 2631 2963 
Q 2534 3019 2420 3045 
Q 2306 3072 2169 3072 
Q 1681 3072 1420 2755 
Q 1159 2438 1159 1844 
L 1159 0 
L 581 0 
L 581 3500 
L 1159 3500 
L 1159 2956 
Q 1341 3275 1631 3429 
Q 1922 3584 2338 3584 
Q 2397 3584 2469 3576 
Q 2541 3569 2628 3553 
L 2631 2963 
z
" transform="scale(0.015625)"/>
      <path id="DejaVuSans-e1" d="M 2194 1759 
Q 1497 1759 1228 1600 
Q 959 1441 959 1056 
Q 959 750 1161 570 
Q 1363 391 1709 391 
Q 2188 391 2477 730 
Q 2766 1069 2766 1631 
L 2766 1759 
L 2194 1759 
z
M 3341 1997 
L 3341 0 
L 2766 0 
L 2766 531 
Q 2569 213 2275 61 
Q 1981 -91 1556 -91 
Q 1019 -91 701 211 
Q 384 513 384 1019 
Q 384 1609 779 1909 
Q 1175 2209 1959 2209 
L 2766 2209 
L 2766 2266 
Q 2766 2663 2505 2880 
Q 2244 3097 1772 3097 
Q 1472 3097 1187 3025 
Q 903 2953 641 2809 
L 641 3341 
Q 956 3463 1253 3523 
Q 1550 3584 1831 3584 
Q 2591 3584 2966 3190 
Q 3341 2797 3341 1997 
z
M 2290 5119 
L 2912 5119 
L 1894 3944 
L 1415 3944 
L 2290 5119 
z
" transform="scale(0.015625)"/>
      <path id="DejaVuSans-69" d="M 603 3500 
L 1178 3500 
L 1178 0 
L 603 0 
L 603 3500 
z
M 603 4863 
L 1178 4863 
L 1178 4134 
L 603 4134 
L 603 4863 
z
" transform="scale(0.015625)"/>
      <path id="DejaVuSans-63" d="M 3122 3366 
L 3122 2828 
Q 2878 2963 2633 3030 
Q 2388 3097 2138 3097 
Q 1578 3097 1268 2742 
Q 959 2388 959 1747 
Q 959 1106 1268 751 
Q 1578 397 2138 397 
Q 2388 397 2633 464 
Q 2878 531 3122 666 
L 3122 134 
Q 2881 22 2623 -34 
Q 2366 -91 2075 -91 
Q 1284 -91 818 406 
Q 353 903 353 1747 
Q 353 2603 823 3093 
Q 1294 3584 2113 3584 
Q 2378 3584 2631 3529 
Q 2884 3475 3122 3366 
z
" transform="scale(0.015625)"/>
      <path id="DejaVuSans-6f" d="M 1959 3097 
Q 1497 3097 1228 2736 
Q 959 2375 959 1747 
Q 959 1119 1226 758 
Q 1494 397 1959 397 
Q 2419 397 2687 759 
Q 2956 1122 2956 1747 
Q 2956 2369 2687 2733 
Q 2419 3097 1959 3097 
z
M 1959 3584 
Q 2709 3584 3137 3096 
Q 3566 2609 3566 1747 
Q 3566 888 3137 398 
Q 2709 -91 1959 -91 
Q 1206 -91 779 398 
Q 353 888 353 1747 
Q 353 2609 779 3096 
Q 1206 3584 1959 3584 
z
" transform="scale(0.015625)"/>
      <path id="DejaVuSans-20" transform="scale(0.015625)"/>
      <path id="DejaVuSans-64" d="M 2906 2969 
L 2906 4863 
L 3481 4863 
L 3481 0 
L 2906 0 
L 2906 525 
Q 2725 213 2448 61 
Q 2172 -91 1784 -91 
Q 1150 -91 751 415 
Q 353 922 353 1747 
Q 353 2572 751 3078 
Q 1150 3584 1784 3584 
Q 2172 3584 2448 3432 
Q 2725 3281 2906 2969 
z
M 947 1747 
Q 947 1113 1208 752 
Q 1469 391 1925 391 
Q 2381 391 2643 752 
Q 2906 1113 2906 1747 
Q 2906 2381 2643 2742 
Q 2381 3103 1925 3103 
Q 1469 3103 1208 2742 
Q 947 2381 947 1747 
z
" transform="scale(0.015625)"/>
      <path id="DejaVuSans-65" d="M 3597 1894 
L 3597 1613 
L 953 1613 
Q 991 1019 1311 708 
Q 1631 397 2203 397 
Q 2534 397 2845 478 
Q 3156 559 3463 722 
L 3463 178 
Q 3153 47 2828 -22 
Q 2503 -91 2169 -91 
Q 1331 -91 842 396 
Q 353 884 353 1716 
Q 353 2575 817 3079 
Q 1281 3584 2069 3584 
Q 2775 3584 3186 3129 
Q 3597 2675 3597 1894 
z
M 3022 2063 
Q 3016 2534 2758 2815 
Q 2500 3097 2075 3097 
Q 1594 3097 1305 2825 
Q 1016 2553 972 2059 
L 3022 2063 
z
" transform="scale(0.015625)"/>
      <path id="DejaVuSans-75" d="M 544 1381 
L 544 3500 
L 1119 3500 
L 1119 1403 
Q 1119 906 1312 657 
Q 1506 409 1894 409 
Q 2359 409 2629 706 
Q 2900 1003 2900 1516 
L 2900 3500 
L 3475 3500 
L 3475 0 
L 2900 0 
L 2900 538 
Q 2691 219 2414 64 
Q 2138 -91 1772 -91 
Q 1169 -91 856 284 
Q 544 659 544 1381 
z
M 1991 3584 
L 1991 3584 
z
" transform="scale(0.015625)"/>
      <path id="DejaVuSans-6e" d="M 3513 2113 
L 3513 0 
L 2938 0 
L 2938 2094 
Q 2938 2591 2744 2837 
Q 2550 3084 2163 3084 
Q 1697 3084 1428 2787 
Q 1159 2491 1159 1978 
L 1159 0 
L 581 0 
L 581 3500 
L 1159 3500 
L 1159 2956 
Q 1366 3272 1645 3428 
Q 1925 3584 2291 3584 
Q 2894 3584 3203 3211 
Q 3513 2838 3513 2113 
z
" transform="scale(0.015625)"/>
      <path id="DejaVuSans-f3" d="M 1959 3097 
Q 1497 3097 1228 2736 
Q 959 2375 959 1747 
Q 959 1119 1226 758 
Q 1494 397 1959 397 
Q 2419 397 2687 759 
Q 2956 1122 2956 1747 
Q 2956 2369 2687 2733 
Q 2419 3097 1959 3097 
z
M 1959 3584 
Q 2709 3584 3137 3096 
Q 3566 2609 3566 1747 
Q 3566 888 3137 398 
Q 2709 -91 1959 -91 
Q 1206 -91 779 398 
Q 353 888 353 1747 
Q 353 2609 779 3096 
Q 1206 3584 1959 3584 
z
M 2394 5119 
L 3016 5119 
L 1998 3944 
L 1519 3944 
L 2394 5119 
z
" transform="scale(0.015625)"/>
      <path id="DejaVuSans-73" d="M 2834 3397 
L 2834 2853 
Q 2591 2978 2328 3040 
Q 2066 3103 1784 3103 
Q 1356 3103 1142 2972 
Q 928 2841 928 2578 
Q 928 2378 1081 2264 
Q 1234 2150 1697 2047 
L 1894 2003 
Q 2506 1872 2764 1633 
Q 3022 1394 3022 966 
Q 3022 478 2636 193 
Q 2250 -91 1575 -91 
Q 1294 -91 989 -36 
Q 684 19 347 128 
L 347 722 
Q 666 556 975 473 
Q 1284 391 1588 391 
Q 1994 391 2212 530 
Q 2431 669 2431 922 
Q 2431 1156 2273 1281 
Q 2116 1406 1581 1522 
L 1381 1569 
Q 847 1681 609 1914 
Q 372 2147 372 2553 
Q 372 3047 722 3315 
Q 1072 3584 1716 3584 
Q 2034 3584 2315 3537 
Q 2597 3491 2834 3397 
z
" transform="scale(0.015625)"/>
      <path id="DejaVuSans-70" d="M 1159 525 
L 1159 -1331 
L 581 -1331 
L 581 3500 
L 1159 3500 
L 1159 2969 
Q 1341 3281 1617 3432 
Q 1894 3584 2278 3584 
Q 2916 3584 3314 3078 
Q 3713 2572 3713 1747 
Q 3713 922 3314 415 
Q 2916 -91 2278 -91 
Q 1894 -91 1617 61 
Q 1341 213 1159 525 
z
M 3116 1747 
Q 3116 2381 2855 2742 
Q 2594 3103 2138 3103 
Q 1681 3103 1420 2742 
Q 1159 2381 1159 1747 
Q 1159 1113 1420 752 
Q 1681 391 2138 391 
Q 2594 391 2855 752 
Q 3116 1113 3116 1747 
z
" transform="scale(0.015625)"/>
      <path id="DejaVuSans-74" d="M 1172 4494 
L 1172 3500 
L 2356 3500 
L 2356 3053 
L 1172 3053 
L 1172 1153 
Q 1172 725 1289 603 
Q 1406 481 1766 481 
L 2356 481 
L 2356 0 
L 1766 0 
Q 1100 0 847 248 
Q 594 497 594 1153 
L 594 3053 
L 172 3053 
L 172 3500 
L 594 3500 
L 594 4494 
L 1172 4494 
z
" transform="scale(0.015625)"/>
      <path id="DejaVuSans-61" d="M 2194 1759 
Q 1497 1759 1228 1600 
Q 959 1441 959 1056 
Q 959 750 1161 570 
Q 1363 391 1709 391 
Q 2188 391 2477 730 
Q 2766 1069 2766 1631 
L 2766 1759 
L 2194 1759 
z
M 3341 1997 
L 3341 0 
L 2766 0 
L 2766 531 
Q 2569 213 2275 61 
Q 1981 -91 1556 -91 
Q 1019 -91 701 211 
Q 384 513 384 1019 
Q 384 1609 779 1909 
Q 1175 2209 1959 2209 
L 2766 2209 
L 2766 2266 
Q 2766 2663 2505 2880 
Q 2244 3097 1772 3097 
Q 1472 3097 1187 3025 
Q 903 2953 641 2809 
L 641 3341 
Q 956 3463 1253 3523 
Q 1550 3584 1831 3584 
Q 2591 3584 2966 3190 
Q 3341 2797 3341 1997 
z
" transform="scale(0.015625)"/>
      <path id="DejaVuSans-76" d="M 191 3500 
L 800 3500 
L 1894 563 
L 2988 3500 
L 3597 3500 
L 2284 0 
L 1503 0 
L 191 3500 
z
" transform="scale(0.015625)"/>
      <path id="DejaVuSans-67" d="M 2906 1791 
Q 2906 2416 2648 2759 
Q 2391 3103 1925 3103 
Q 1463 3103 1205 2759 
Q 947 2416 947 1791 
Q 947 1169 1205 825 
Q 1463 481 1925 481 
Q 2391 481 2648 825 
Q 2906 1169 2906 1791 
z
M 3481 434 
Q 3481 -459 3084 -895 
Q 2688 -1331 1869 -1331 
Q 1566 -1331 1297 -1286 
Q 1028 -1241 775 -1147 
L 775 -588 
Q 1028 -725 1275 -790 
Q 1522 -856 1778 -856 
Q 2344 -856 2625 -561 
Q 2906 -266 2906 331 
L 2906 616 
Q 2728 306 2450 153 
Q 2172 0 1784 0 
Q 1141 0 747 490 
Q 353 981 353 1791 
Q 353 2603 747 3093 
Q 1141 3584 1784 3584 
Q 2172 3584 2450 3431 
Q 2728 3278 2906 2969 
L 2906 3500 
L 3481 3500 
L 3481 434 
z
" transform="scale(0.015625)"/>
     </defs>
     <use xlink:href="#DejaVuSans-47"/>
     <use xlink:href="#DejaVuSans-72" x="77.490234"/>
     <use xlink:href="#DejaVuSans-e1" x="118.603516"/>
     <use xlink:href="#DejaVuSans-66" x="179.882812"/>
     <use xlink:href="#DejaVuSans-69" x="215.087891"/>
     <use xlink:href="#DejaVuSans-63" x="242.871094"/>
     <use xlink:href="#DejaVuSans-6f" x="297.851562"/>
     <use xlink:href="#DejaVuSans-20" x="359.033203"/>
     <use xlink:href="#DejaVuSans-64" x="390.820312"/>
     <use xlink:href="#DejaVuSans-65" x="454.296875"/>
     <use xlink:href="#DejaVuSans-20" x="515.820312"/>
     <use xlink:href="#DejaVuSans-66" x="547.607422"/>
     <use xlink:href="#DejaVuSans-75" x="582.8125"/>
     <use xlink:href="#DejaVuSans-6e" x="646.191406"/>
     <use xlink:href="#DejaVuSans-63" x="709.570312"/>
     <use xlink:href="#DejaVuSans-69" x="764.550781"/>
     <use xlink:href="#DejaVuSans-f3" x="792.333984"/>
     <use xlink:href="#DejaVuSans-6e" x="853.515625"/>
     <use xlink:href="#DejaVuSans-20" x="916.894531"/>
     <use xlink:href="#DejaVuSans-63" x="948.681641"/>
     <use xlink:href="#DejaVuSans-6f" x="1003.662109"/>
     <use xlink:href="#DejaVuSans-72" x="1064.84375"/>
     <use xlink:href="#DejaVuSans-72" x="1104.207031"/>
     <use xlink:href="#DejaVuSans-65" x="1143.070312"/>
     <use xlink:href="#DejaVuSans-73" x="1204.59375"/>
     <use xlink:href="#DejaVuSans-70" x="1256.693359"/>
     <use xlink:href="#DejaVuSans-6f" x="1320.169922"/>
     <use xlink:href="#DejaVuSans-6e" x="1381.351562"/>
     <use xlink:href="#DejaVuSans-64" x="1444.730469"/>
     <use xlink:href="#DejaVuSans-69" x="1508.207031"/>
     <use xlink:href="#DejaVuSans-65" x="1535.990234"/>
     <use xlink:href="#DejaVuSans-6e" x="1597.513672"/>
     <use xlink:href="#DejaVuSans-74" x="1660.892578"/>
     <use xlink:href="#DejaVuSans-65" x="1700.101562"/>
     <use xlink:href="#DejaVuSans-20" x="1761.625"/>
     <use xlink:href="#DejaVuSans-61" x="1793.412109"/>
     <use xlink:href="#DejaVuSans-20" x="1854.691406"/>
     <use xlink:href="#DejaVuSans-73" x="1886.478516"/>
     <use xlink:href="#DejaVuSans-75" x="1938.578125"/>
     <use xlink:href="#DejaVuSans-20" x="2001.957031"/>
     <use xlink:href="#DejaVuSans-64" x="2033.744141"/>
     <use xlink:href="#DejaVuSans-65" x="2097.220703"/>
     <use xlink:href="#DejaVuSans-72" x="2158.744141"/>
     <use xlink:href="#DejaVuSans-69" x="2199.857422"/>
     <use xlink:href="#DejaVuSans-76" x="2227.640625"/>
     <use xlink:href="#DejaVuSans-61" x="2286.820312"/>
     <use xlink:href="#DejaVuSans-64" x="2348.099609"/>
     <use xlink:href="#DejaVuSans-61" x="2411.576172"/>
     <use xlink:href="#DejaVuSans-20" x="2472.855469"/>
     <use xlink:href="#DejaVuSans-73" x="2504.642578"/>
     <use xlink:href="#DejaVuSans-65" x="2556.742188"/>
     <use xlink:href="#DejaVuSans-67" x="2618.265625"/>
     <use xlink:href="#DejaVuSans-75" x="2681.742188"/>
     <use xlink:href="#DejaVuSans-6e" x="2745.121094"/>
     <use xlink:href="#DejaVuSans-64" x="2808.5"/>
     <use xlink:href="#DejaVuSans-61" x="2871.976562"/>
    </g>
   </g>
   <g id="legend_1">
    <g id="patch_7">
     <path d="M 64.296563 283.410125 
L 106.479844 283.410125 
Q 108.679844 283.410125 108.679844 281.210125 
L 108.679844 233.872312 
Q 108.679844 231.672312 106.479844 231.672312 
L 64.296563 231.672312 
Q 62.096563 231.672312 62.096563 233.872312 
L 62.096563 281.210125 
Q 62.096563 283.410125 64.296563 283.410125 
z
" style="fill: #eaeaf2; opacity: 0.8; stroke: #cccccc; stroke-linejoin: miter"/>
    </g>
    <g id="line2d_17">
     <path d="M 66.496563 240.580594 
L 77.496563 240.580594 
L 88.496563 240.580594 
" style="fill: none; stroke: #4c72b0; stroke-width: 1.5; stroke-linecap: round"/>
    </g>
    <g id="text_17">
     <!-- a -->
     <g style="fill: #262626" transform="translate(97.296563 244.430594) scale(0.11 -0.11)">
      <use xlink:href="#DejaVuSans-61"/>
     </g>
    </g>
    <g id="line2d_18">
     <path d="M 66.496563 256.726531 
L 77.496563 256.726531 
L 88.496563 256.726531 
" style="fill: none; stroke: #dd8452; stroke-width: 1.5; stroke-linecap: round"/>
    </g>
    <g id="text_18">
     <!-- b -->
     <g style="fill: #262626" transform="translate(97.296563 260.576531) scale(0.11 -0.11)">
      <defs>
       <path id="DejaVuSans-62" d="M 3116 1747 
Q 3116 2381 2855 2742 
Q 2594 3103 2138 3103 
Q 1681 3103 1420 2742 
Q 1159 2381 1159 1747 
Q 1159 1113 1420 752 
Q 1681 391 2138 391 
Q 2594 391 2855 752 
Q 3116 1113 3116 1747 
z
M 1159 2969 
Q 1341 3281 1617 3432 
Q 1894 3584 2278 3584 
Q 2916 3584 3314 3078 
Q 3713 2572 3713 1747 
Q 3713 922 3314 415 
Q 2916 -91 2278 -91 
Q 1894 -91 1617 61 
Q 1341 213 1159 525 
L 1159 0 
L 581 0 
L 581 4863 
L 1159 4863 
L 1159 2969 
z
" transform="scale(0.015625)"/>
      </defs>
      <use xlink:href="#DejaVuSans-62"/>
     </g>
    </g>
    <g id="line2d_19">
     <path d="M 66.496563 272.872469 
L 77.496563 272.872469 
L 88.496563 272.872469 
" style="fill: none; stroke: #55a868; stroke-width: 1.5; stroke-linecap: round"/>
    </g>
    <g id="text_19">
     <!-- c -->
     <g style="fill: #262626" transform="translate(97.296563 276.722469) scale(0.11 -0.11)">
      <use xlink:href="#DejaVuSans-63"/>
     </g>
    </g>
   </g>
  </g>
 </g>
 <defs>
  <clipPath id="pfdeb91a603">
   <rect x="56.596563" y="22.798125" width="357.12" height="266.112"/>
  </clipPath>
 </defs>
</svg>
