<?xml version="1.0" encoding="utf-8" standalone="no"?>
<!DOCTYPE svg PUBLIC "-//W3C//DTD SVG 1.1//EN"
  "http://www.w3.org/Graphics/SVG/1.1/DTD/svg11.dtd">
<svg xmlns:xlink="http://www.w3.org/1999/xlink" width="414.127187pt" height="316.271687pt" viewBox="0 0 414.127187 316.271687" xmlns="http://www.w3.org/2000/svg" version="1.1">
 <metadata>
  <rdf:RDF xmlns:dc="http://purl.org/dc/elements/1.1/" xmlns:cc="http://creativecommons.org/ns#" xmlns:rdf="http://www.w3.org/1999/02/22-rdf-syntax-ns#">
   <cc:Work>
    <dc:type rdf:resource="http://purl.org/dc/dcmitype/StillImage"/>
    <dc:date>2023-10-29T19:27:03.813284</dc:date>
    <dc:format>image/svg+xml</dc:format>
    <dc:creator>
     <cc:Agent>
      <dc:title>Matplotlib v3.7.1, https://matplotlib.org/</dc:title>
     </cc:Agent>
    </dc:creator>
   </cc:Work>
  </rdf:RDF>
 </metadata>
 <defs>
  <style type="text/css">*{stroke-linejoin: round; stroke-linecap: butt}</style>
 </defs>
 <g id="figure_1">
  <g id="patch_1">
   <path d="M 0 316.271687 
L 414.127187 316.271687 
L 414.127187 0 
L 0 0 
z
" style="fill: #ffffff"/>
  </g>
  <g id="axes_1">
   <g id="patch_2">
    <path d="M 49.807188 273.312 
L 406.927188 273.312 
L 406.927188 7.2 
L 49.807188 7.2 
z
" style="fill: #eaeaf2"/>
   </g>
   <g id="matplotlib.axis_1">
    <g id="xtick_1">
     <g id="line2d_1">
      <path d="M 66.039915 273.312 
L 66.039915 7.2 
" clip-path="url(#p11e8b8ab63)" style="fill: none; stroke: #ffffff; stroke-linecap: round"/>
     </g>
     <g id="text_1">
      <!-- −1.00 -->
      <g style="fill: #262626" transform="translate(49.184993 291.170281) scale(0.11 -0.11)">
       <defs>
        <path id="DejaVuSans-2212" d="M 678 2272 
L 4684 2272 
L 4684 1741 
L 678 1741 
L 678 2272 
z
" transform="scale(0.015625)"/>
        <path id="DejaVuSans-31" d="M 794 531 
L 1825 531 
L 1825 4091 
L 703 3866 
L 703 4441 
L 1819 4666 
L 2450 4666 
L 2450 531 
L 3481 531 
L 3481 0 
L 794 0 
L 794 531 
z
" transform="scale(0.015625)"/>
        <path id="DejaVuSans-2e" d="M 684 794 
L 1344 794 
L 1344 0 
L 684 0 
L 684 794 
z
" transform="scale(0.015625)"/>
        <path id="DejaVuSans-30" d="M 2034 4250 
Q 1547 4250 1301 3770 
Q 1056 3291 1056 2328 
Q 1056 1369 1301 889 
Q 1547 409 2034 409 
Q 2525 409 2770 889 
Q 3016 1369 3016 2328 
Q 3016 3291 2770 3770 
Q 2525 4250 2034 4250 
z
M 2034 4750 
Q 2819 4750 3233 4129 
Q 3647 3509 3647 2328 
Q 3647 1150 3233 529 
Q 2819 -91 2034 -91 
Q 1250 -91 836 529 
Q 422 1150 422 2328 
Q 422 3509 836 4129 
Q 1250 4750 2034 4750 
z
" transform="scale(0.015625)"/>
       </defs>
       <use xlink:href="#DejaVuSans-2212"/>
       <use xlink:href="#DejaVuSans-31" x="83.789062"/>
       <use xlink:href="#DejaVuSans-2e" x="147.412109"/>
       <use xlink:href="#DejaVuSans-30" x="179.199219"/>
       <use xlink:href="#DejaVuSans-30" x="242.822266"/>
      </g>
     </g>
    </g>
    <g id="xtick_2">
     <g id="line2d_2">
      <path d="M 106.621733 273.312 
L 106.621733 7.2 
" clip-path="url(#p11e8b8ab63)" style="fill: none; stroke: #ffffff; stroke-linecap: round"/>
     </g>
     <g id="text_2">
      <!-- −0.75 -->
      <g style="fill: #262626" transform="translate(89.766811 291.170281) scale(0.11 -0.11)">
       <defs>
        <path id="DejaVuSans-37" d="M 525 4666 
L 3525 4666 
L 3525 4397 
L 1831 0 
L 1172 0 
L 2766 4134 
L 525 4134 
L 525 4666 
z
" transform="scale(0.015625)"/>
        <path id="DejaVuSans-35" d="M 691 4666 
L 3169 4666 
L 3169 4134 
L 1269 4134 
L 1269 2991 
Q 1406 3038 1543 3061 
Q 1681 3084 1819 3084 
Q 2600 3084 3056 2656 
Q 3513 2228 3513 1497 
Q 3513 744 3044 326 
Q 2575 -91 1722 -91 
Q 1428 -91 1123 -41 
Q 819 9 494 109 
L 494 744 
Q 775 591 1075 516 
Q 1375 441 1709 441 
Q 2250 441 2565 725 
Q 2881 1009 2881 1497 
Q 2881 1984 2565 2268 
Q 2250 2553 1709 2553 
Q 1456 2553 1204 2497 
Q 953 2441 691 2322 
L 691 4666 
z
" transform="scale(0.015625)"/>
       </defs>
       <use xlink:href="#DejaVuSans-2212"/>
       <use xlink:href="#DejaVuSans-30" x="83.789062"/>
       <use xlink:href="#DejaVuSans-2e" x="147.412109"/>
       <use xlink:href="#DejaVuSans-37" x="179.199219"/>
       <use xlink:href="#DejaVuSans-35" x="242.822266"/>
      </g>
     </g>
    </g>
    <g id="xtick_3">
     <g id="line2d_3">
      <path d="M 147.203551 273.312 
L 147.203551 7.2 
" clip-path="url(#p11e8b8ab63)" style="fill: none; stroke: #ffffff; stroke-linecap: round"/>
     </g>
     <g id="text_3">
      <!-- −0.50 -->
      <g style="fill: #262626" transform="translate(130.348629 291.170281) scale(0.11 -0.11)">
       <use xlink:href="#DejaVuSans-2212"/>
       <use xlink:href="#DejaVuSans-30" x="83.789062"/>
       <use xlink:href="#DejaVuSans-2e" x="147.412109"/>
       <use xlink:href="#DejaVuSans-35" x="179.199219"/>
       <use xlink:href="#DejaVuSans-30" x="242.822266"/>
      </g>
     </g>
    </g>
    <g id="xtick_4">
     <g id="line2d_4">
      <path d="M 187.785369 273.312 
L 187.785369 7.2 
" clip-path="url(#p11e8b8ab63)" style="fill: none; stroke: #ffffff; stroke-linecap: round"/>
     </g>
     <g id="text_4">
      <!-- −0.25 -->
      <g style="fill: #262626" transform="translate(170.930447 291.170281) scale(0.11 -0.11)">
       <defs>
        <path id="DejaVuSans-32" d="M 1228 531 
L 3431 531 
L 3431 0 
L 469 0 
L 469 531 
Q 828 903 1448 1529 
Q 2069 2156 2228 2338 
Q 2531 2678 2651 2914 
Q 2772 3150 2772 3378 
Q 2772 3750 2511 3984 
Q 2250 4219 1831 4219 
Q 1534 4219 1204 4116 
Q 875 4013 500 3803 
L 500 4441 
Q 881 4594 1212 4672 
Q 1544 4750 1819 4750 
Q 2544 4750 2975 4387 
Q 3406 4025 3406 3419 
Q 3406 3131 3298 2873 
Q 3191 2616 2906 2266 
Q 2828 2175 2409 1742 
Q 1991 1309 1228 531 
z
" transform="scale(0.015625)"/>
       </defs>
       <use xlink:href="#DejaVuSans-2212"/>
       <use xlink:href="#DejaVuSans-30" x="83.789062"/>
       <use xlink:href="#DejaVuSans-2e" x="147.412109"/>
       <use xlink:href="#DejaVuSans-32" x="179.199219"/>
       <use xlink:href="#DejaVuSans-35" x="242.822266"/>
      </g>
     </g>
    </g>
    <g id="xtick_5">
     <g id="line2d_5">
      <path d="M 228.367188 273.312 
L 228.367188 7.2 
" clip-path="url(#p11e8b8ab63)" style="fill: none; stroke: #ffffff; stroke-linecap: round"/>
     </g>
     <g id="text_5">
      <!-- 0.00 -->
      <g style="fill: #262626" transform="translate(216.121094 291.170281) scale(0.11 -0.11)">
       <use xlink:href="#DejaVuSans-30"/>
       <use xlink:href="#DejaVuSans-2e" x="63.623047"/>
       <use xlink:href="#DejaVuSans-30" x="95.410156"/>
       <use xlink:href="#DejaVuSans-30" x="159.033203"/>
      </g>
     </g>
    </g>
    <g id="xtick_6">
     <g id="line2d_6">
      <path d="M 268.949006 273.312 
L 268.949006 7.2 
" clip-path="url(#p11e8b8ab63)" style="fill: none; stroke: #ffffff; stroke-linecap: round"/>
     </g>
     <g id="text_6">
      <!-- 0.25 -->
      <g style="fill: #262626" transform="translate(256.702912 291.170281) scale(0.11 -0.11)">
       <use xlink:href="#DejaVuSans-30"/>
       <use xlink:href="#DejaVuSans-2e" x="63.623047"/>
       <use xlink:href="#DejaVuSans-32" x="95.410156"/>
       <use xlink:href="#DejaVuSans-35" x="159.033203"/>
      </g>
     </g>
    </g>
    <g id="xtick_7">
     <g id="line2d_7">
      <path d="M 309.530824 273.312 
L 309.530824 7.2 
" clip-path="url(#p11e8b8ab63)" style="fill: none; stroke: #ffffff; stroke-linecap: round"/>
     </g>
     <g id="text_7">
      <!-- 0.50 -->
      <g style="fill: #262626" transform="translate(297.28473 291.170281) scale(0.11 -0.11)">
       <use xlink:href="#DejaVuSans-30"/>
       <use xlink:href="#DejaVuSans-2e" x="63.623047"/>
       <use xlink:href="#DejaVuSans-35" x="95.410156"/>
       <use xlink:href="#DejaVuSans-30" x="159.033203"/>
      </g>
     </g>
    </g>
    <g id="xtick_8">
     <g id="line2d_8">
      <path d="M 350.112642 273.312 
L 350.112642 7.2 
" clip-path="url(#p11e8b8ab63)" style="fill: none; stroke: #ffffff; stroke-linecap: round"/>
     </g>
     <g id="text_8">
      <!-- 0.75 -->
      <g style="fill: #262626" transform="translate(337.866548 291.170281) scale(0.11 -0.11)">
       <use xlink:href="#DejaVuSans-30"/>
       <use xlink:href="#DejaVuSans-2e" x="63.623047"/>
       <use xlink:href="#DejaVuSans-37" x="95.410156"/>
       <use xlink:href="#DejaVuSans-35" x="159.033203"/>
      </g>
     </g>
    </g>
    <g id="xtick_9">
     <g id="line2d_9">
      <path d="M 390.69446 273.312 
L 390.69446 7.2 
" clip-path="url(#p11e8b8ab63)" style="fill: none; stroke: #ffffff; stroke-linecap: round"/>
     </g>
     <g id="text_9">
      <!-- 1.00 -->
      <g style="fill: #262626" transform="translate(378.448366 291.170281) scale(0.11 -0.11)">
       <use xlink:href="#DejaVuSans-31"/>
       <use xlink:href="#DejaVuSans-2e" x="63.623047"/>
       <use xlink:href="#DejaVuSans-30" x="95.410156"/>
       <use xlink:href="#DejaVuSans-30" x="159.033203"/>
      </g>
     </g>
    </g>
    <g id="text_10">
     <!-- Umbral (adim.) -->
     <g style="fill: #262626" transform="translate(183.019375 306.576062) scale(0.12 -0.12)">
      <defs>
       <path id="DejaVuSans-55" d="M 556 4666 
L 1191 4666 
L 1191 1831 
Q 1191 1081 1462 751 
Q 1734 422 2344 422 
Q 2950 422 3222 751 
Q 3494 1081 3494 1831 
L 3494 4666 
L 4128 4666 
L 4128 1753 
Q 4128 841 3676 375 
Q 3225 -91 2344 -91 
Q 1459 -91 1007 375 
Q 556 841 556 1753 
L 556 4666 
z
" transform="scale(0.015625)"/>
       <path id="DejaVuSans-6d" d="M 3328 2828 
Q 3544 3216 3844 3400 
Q 4144 3584 4550 3584 
Q 5097 3584 5394 3201 
Q 5691 2819 5691 2113 
L 5691 0 
L 5113 0 
L 5113 2094 
Q 5113 2597 4934 2840 
Q 4756 3084 4391 3084 
Q 3944 3084 3684 2787 
Q 3425 2491 3425 1978 
L 3425 0 
L 2847 0 
L 2847 2094 
Q 2847 2600 2669 2842 
Q 2491 3084 2119 3084 
Q 1678 3084 1418 2786 
Q 1159 2488 1159 1978 
L 1159 0 
L 581 0 
L 581 3500 
L 1159 3500 
L 1159 2956 
Q 1356 3278 1631 3431 
Q 1906 3584 2284 3584 
Q 2666 3584 2933 3390 
Q 3200 3197 3328 2828 
z
" transform="scale(0.015625)"/>
       <path id="DejaVuSans-62" d="M 3116 1747 
Q 3116 2381 2855 2742 
Q 2594 3103 2138 3103 
Q 1681 3103 1420 2742 
Q 1159 2381 1159 1747 
Q 1159 1113 1420 752 
Q 1681 391 2138 391 
Q 2594 391 2855 752 
Q 3116 1113 3116 1747 
z
M 1159 2969 
Q 1341 3281 1617 3432 
Q 1894 3584 2278 3584 
Q 2916 3584 3314 3078 
Q 3713 2572 3713 1747 
Q 3713 922 3314 415 
Q 2916 -91 2278 -91 
Q 1894 -91 1617 61 
Q 1341 213 1159 525 
L 1159 0 
L 581 0 
L 581 4863 
L 1159 4863 
L 1159 2969 
z
" transform="scale(0.015625)"/>
       <path id="DejaVuSans-72" d="M 2631 2963 
Q 2534 3019 2420 3045 
Q 2306 3072 2169 3072 
Q 1681 3072 1420 2755 
Q 1159 2438 1159 1844 
L 1159 0 
L 581 0 
L 581 3500 
L 1159 3500 
L 1159 2956 
Q 1341 3275 1631 3429 
Q 1922 3584 2338 3584 
Q 2397 3584 2469 3576 
Q 2541 3569 2628 3553 
L 2631 2963 
z
" transform="scale(0.015625)"/>
       <path id="DejaVuSans-61" d="M 2194 1759 
Q 1497 1759 1228 1600 
Q 959 1441 959 1056 
Q 959 750 1161 570 
Q 1363 391 1709 391 
Q 2188 391 2477 730 
Q 2766 1069 2766 1631 
L 2766 1759 
L 2194 1759 
z
M 3341 1997 
L 3341 0 
L 2766 0 
L 2766 531 
Q 2569 213 2275 61 
Q 1981 -91 1556 -91 
Q 1019 -91 701 211 
Q 384 513 384 1019 
Q 384 1609 779 1909 
Q 1175 2209 1959 2209 
L 2766 2209 
L 2766 2266 
Q 2766 2663 2505 2880 
Q 2244 3097 1772 3097 
Q 1472 3097 1187 3025 
Q 903 2953 641 2809 
L 641 3341 
Q 956 3463 1253 3523 
Q 1550 3584 1831 3584 
Q 2591 3584 2966 3190 
Q 3341 2797 3341 1997 
z
" transform="scale(0.015625)"/>
       <path id="DejaVuSans-6c" d="M 603 4863 
L 1178 4863 
L 1178 0 
L 603 0 
L 603 4863 
z
" transform="scale(0.015625)"/>
       <path id="DejaVuSans-20" transform="scale(0.015625)"/>
       <path id="DejaVuSans-28" d="M 1984 4856 
Q 1566 4138 1362 3434 
Q 1159 2731 1159 2009 
Q 1159 1288 1364 580 
Q 1569 -128 1984 -844 
L 1484 -844 
Q 1016 -109 783 600 
Q 550 1309 550 2009 
Q 550 2706 781 3412 
Q 1013 4119 1484 4856 
L 1984 4856 
z
" transform="scale(0.015625)"/>
       <path id="DejaVuSans-64" d="M 2906 2969 
L 2906 4863 
L 3481 4863 
L 3481 0 
L 2906 0 
L 2906 525 
Q 2725 213 2448 61 
Q 2172 -91 1784 -91 
Q 1150 -91 751 415 
Q 353 922 353 1747 
Q 353 2572 751 3078 
Q 1150 3584 1784 3584 
Q 2172 3584 2448 3432 
Q 2725 3281 2906 2969 
z
M 947 1747 
Q 947 1113 1208 752 
Q 1469 391 1925 391 
Q 2381 391 2643 752 
Q 2906 1113 2906 1747 
Q 2906 2381 2643 2742 
Q 2381 3103 1925 3103 
Q 1469 3103 1208 2742 
Q 947 2381 947 1747 
z
" transform="scale(0.015625)"/>
       <path id="DejaVuSans-69" d="M 603 3500 
L 1178 3500 
L 1178 0 
L 603 0 
L 603 3500 
z
M 603 4863 
L 1178 4863 
L 1178 4134 
L 603 4134 
L 603 4863 
z
" transform="scale(0.015625)"/>
       <path id="DejaVuSans-29" d="M 513 4856 
L 1013 4856 
Q 1481 4119 1714 3412 
Q 1947 2706 1947 2009 
Q 1947 1309 1714 600 
Q 1481 -109 1013 -844 
L 513 -844 
Q 928 -128 1133 580 
Q 1338 1288 1338 2009 
Q 1338 2731 1133 3434 
Q 928 4138 513 4856 
z
" transform="scale(0.015625)"/>
      </defs>
      <use xlink:href="#DejaVuSans-55"/>
      <use xlink:href="#DejaVuSans-6d" x="73.193359"/>
      <use xlink:href="#DejaVuSans-62" x="170.605469"/>
      <use xlink:href="#DejaVuSans-72" x="234.082031"/>
      <use xlink:href="#DejaVuSans-61" x="275.195312"/>
      <use xlink:href="#DejaVuSans-6c" x="336.474609"/>
      <use xlink:href="#DejaVuSans-20" x="364.257812"/>
      <use xlink:href="#DejaVuSans-28" x="396.044922"/>
      <use xlink:href="#DejaVuSans-61" x="435.058594"/>
      <use xlink:href="#DejaVuSans-64" x="496.337891"/>
      <use xlink:href="#DejaVuSans-69" x="559.814453"/>
      <use xlink:href="#DejaVuSans-6d" x="587.597656"/>
      <use xlink:href="#DejaVuSans-2e" x="685.009766"/>
      <use xlink:href="#DejaVuSans-29" x="716.796875"/>
     </g>
    </g>
   </g>
   <g id="matplotlib.axis_2">
    <g id="ytick_1">
     <g id="line2d_10">
      <path d="M 49.807188 269.5731 
L 406.927188 269.5731 
" clip-path="url(#p11e8b8ab63)" style="fill: none; stroke: #ffffff; stroke-linecap: round"/>
     </g>
     <g id="text_11">
      <!-- 0.4 -->
      <g style="fill: #262626" transform="translate(22.81375 273.752241) scale(0.11 -0.11)">
       <defs>
        <path id="DejaVuSans-34" d="M 2419 4116 
L 825 1625 
L 2419 1625 
L 2419 4116 
z
M 2253 4666 
L 3047 4666 
L 3047 1625 
L 3713 1625 
L 3713 1100 
L 3047 1100 
L 3047 0 
L 2419 0 
L 2419 1100 
L 313 1100 
L 313 1709 
L 2253 4666 
z
" transform="scale(0.015625)"/>
       </defs>
       <use xlink:href="#DejaVuSans-30"/>
       <use xlink:href="#DejaVuSans-2e" x="63.623047"/>
       <use xlink:href="#DejaVuSans-34" x="95.410156"/>
      </g>
     </g>
    </g>
    <g id="ytick_2">
     <g id="line2d_11">
      <path d="M 49.807188 222.677363 
L 406.927188 222.677363 
" clip-path="url(#p11e8b8ab63)" style="fill: none; stroke: #ffffff; stroke-linecap: round"/>
     </g>
     <g id="text_12">
      <!-- 0.5 -->
      <g style="fill: #262626" transform="translate(22.81375 226.856503) scale(0.11 -0.11)">
       <use xlink:href="#DejaVuSans-30"/>
       <use xlink:href="#DejaVuSans-2e" x="63.623047"/>
       <use xlink:href="#DejaVuSans-35" x="95.410156"/>
      </g>
     </g>
    </g>
    <g id="ytick_3">
     <g id="line2d_12">
      <path d="M 49.807188 175.781625 
L 406.927188 175.781625 
" clip-path="url(#p11e8b8ab63)" style="fill: none; stroke: #ffffff; stroke-linecap: round"/>
     </g>
     <g id="text_13">
      <!-- 0.6 -->
      <g style="fill: #262626" transform="translate(22.81375 179.960766) scale(0.11 -0.11)">
       <defs>
        <path id="DejaVuSans-36" d="M 2113 2584 
Q 1688 2584 1439 2293 
Q 1191 2003 1191 1497 
Q 1191 994 1439 701 
Q 1688 409 2113 409 
Q 2538 409 2786 701 
Q 3034 994 3034 1497 
Q 3034 2003 2786 2293 
Q 2538 2584 2113 2584 
z
M 3366 4563 
L 3366 3988 
Q 3128 4100 2886 4159 
Q 2644 4219 2406 4219 
Q 1781 4219 1451 3797 
Q 1122 3375 1075 2522 
Q 1259 2794 1537 2939 
Q 1816 3084 2150 3084 
Q 2853 3084 3261 2657 
Q 3669 2231 3669 1497 
Q 3669 778 3244 343 
Q 2819 -91 2113 -91 
Q 1303 -91 875 529 
Q 447 1150 447 2328 
Q 447 3434 972 4092 
Q 1497 4750 2381 4750 
Q 2619 4750 2861 4703 
Q 3103 4656 3366 4563 
z
" transform="scale(0.015625)"/>
       </defs>
       <use xlink:href="#DejaVuSans-30"/>
       <use xlink:href="#DejaVuSans-2e" x="63.623047"/>
       <use xlink:href="#DejaVuSans-36" x="95.410156"/>
      </g>
     </g>
    </g>
    <g id="ytick_4">
     <g id="line2d_13">
      <path d="M 49.807188 128.885887 
L 406.927188 128.885887 
" clip-path="url(#p11e8b8ab63)" style="fill: none; stroke: #ffffff; stroke-linecap: round"/>
     </g>
     <g id="text_14">
      <!-- 0.7 -->
      <g style="fill: #262626" transform="translate(22.81375 133.065028) scale(0.11 -0.11)">
       <use xlink:href="#DejaVuSans-30"/>
       <use xlink:href="#DejaVuSans-2e" x="63.623047"/>
       <use xlink:href="#DejaVuSans-37" x="95.410156"/>
      </g>
     </g>
    </g>
    <g id="ytick_5">
     <g id="line2d_14">
      <path d="M 49.807188 81.99015 
L 406.927188 81.99015 
" clip-path="url(#p11e8b8ab63)" style="fill: none; stroke: #ffffff; stroke-linecap: round"/>
     </g>
     <g id="text_15">
      <!-- 0.8 -->
      <g style="fill: #262626" transform="translate(22.81375 86.16929) scale(0.11 -0.11)">
       <defs>
        <path id="DejaVuSans-38" d="M 2034 2216 
Q 1584 2216 1326 1975 
Q 1069 1734 1069 1313 
Q 1069 891 1326 650 
Q 1584 409 2034 409 
Q 2484 409 2743 651 
Q 3003 894 3003 1313 
Q 3003 1734 2745 1975 
Q 2488 2216 2034 2216 
z
M 1403 2484 
Q 997 2584 770 2862 
Q 544 3141 544 3541 
Q 544 4100 942 4425 
Q 1341 4750 2034 4750 
Q 2731 4750 3128 4425 
Q 3525 4100 3525 3541 
Q 3525 3141 3298 2862 
Q 3072 2584 2669 2484 
Q 3125 2378 3379 2068 
Q 3634 1759 3634 1313 
Q 3634 634 3220 271 
Q 2806 -91 2034 -91 
Q 1263 -91 848 271 
Q 434 634 434 1313 
Q 434 1759 690 2068 
Q 947 2378 1403 2484 
z
M 1172 3481 
Q 1172 3119 1398 2916 
Q 1625 2713 2034 2713 
Q 2441 2713 2670 2916 
Q 2900 3119 2900 3481 
Q 2900 3844 2670 4047 
Q 2441 4250 2034 4250 
Q 1625 4250 1398 4047 
Q 1172 3844 1172 3481 
z
" transform="scale(0.015625)"/>
       </defs>
       <use xlink:href="#DejaVuSans-30"/>
       <use xlink:href="#DejaVuSans-2e" x="63.623047"/>
       <use xlink:href="#DejaVuSans-38" x="95.410156"/>
      </g>
     </g>
    </g>
    <g id="ytick_6">
     <g id="line2d_15">
      <path d="M 49.807188 35.094412 
L 406.927188 35.094412 
" clip-path="url(#p11e8b8ab63)" style="fill: none; stroke: #ffffff; stroke-linecap: round"/>
     </g>
     <g id="text_16">
      <!-- 0.9 -->
      <g style="fill: #262626" transform="translate(22.81375 39.273553) scale(0.11 -0.11)">
       <defs>
        <path id="DejaVuSans-39" d="M 703 97 
L 703 672 
Q 941 559 1184 500 
Q 1428 441 1663 441 
Q 2288 441 2617 861 
Q 2947 1281 2994 2138 
Q 2813 1869 2534 1725 
Q 2256 1581 1919 1581 
Q 1219 1581 811 2004 
Q 403 2428 403 3163 
Q 403 3881 828 4315 
Q 1253 4750 1959 4750 
Q 2769 4750 3195 4129 
Q 3622 3509 3622 2328 
Q 3622 1225 3098 567 
Q 2575 -91 1691 -91 
Q 1453 -91 1209 -44 
Q 966 3 703 97 
z
M 1959 2075 
Q 2384 2075 2632 2365 
Q 2881 2656 2881 3163 
Q 2881 3666 2632 3958 
Q 2384 4250 1959 4250 
Q 1534 4250 1286 3958 
Q 1038 3666 1038 3163 
Q 1038 2656 1286 2365 
Q 1534 2075 1959 2075 
z
" transform="scale(0.015625)"/>
       </defs>
       <use xlink:href="#DejaVuSans-30"/>
       <use xlink:href="#DejaVuSans-2e" x="63.623047"/>
       <use xlink:href="#DejaVuSans-39" x="95.410156"/>
      </g>
     </g>
    </g>
    <g id="text_17">
     <!-- r de Pearson (mat. de ady. aplanadas) (adim.) -->
     <g style="fill: #262626" transform="translate(16.318125 277.965375) rotate(-90) scale(0.12 -0.12)">
      <defs>
       <path id="DejaVuSans-65" d="M 3597 1894 
L 3597 1613 
L 953 1613 
Q 991 1019 1311 708 
Q 1631 397 2203 397 
Q 2534 397 2845 478 
Q 3156 559 3463 722 
L 3463 178 
Q 3153 47 2828 -22 
Q 2503 -91 2169 -91 
Q 1331 -91 842 396 
Q 353 884 353 1716 
Q 353 2575 817 3079 
Q 1281 3584 2069 3584 
Q 2775 3584 3186 3129 
Q 3597 2675 3597 1894 
z
M 3022 2063 
Q 3016 2534 2758 2815 
Q 2500 3097 2075 3097 
Q 1594 3097 1305 2825 
Q 1016 2553 972 2059 
L 3022 2063 
z
" transform="scale(0.015625)"/>
       <path id="DejaVuSans-50" d="M 1259 4147 
L 1259 2394 
L 2053 2394 
Q 2494 2394 2734 2622 
Q 2975 2850 2975 3272 
Q 2975 3691 2734 3919 
Q 2494 4147 2053 4147 
L 1259 4147 
z
M 628 4666 
L 2053 4666 
Q 2838 4666 3239 4311 
Q 3641 3956 3641 3272 
Q 3641 2581 3239 2228 
Q 2838 1875 2053 1875 
L 1259 1875 
L 1259 0 
L 628 0 
L 628 4666 
z
" transform="scale(0.015625)"/>
       <path id="DejaVuSans-73" d="M 2834 3397 
L 2834 2853 
Q 2591 2978 2328 3040 
Q 2066 3103 1784 3103 
Q 1356 3103 1142 2972 
Q 928 2841 928 2578 
Q 928 2378 1081 2264 
Q 1234 2150 1697 2047 
L 1894 2003 
Q 2506 1872 2764 1633 
Q 3022 1394 3022 966 
Q 3022 478 2636 193 
Q 2250 -91 1575 -91 
Q 1294 -91 989 -36 
Q 684 19 347 128 
L 347 722 
Q 666 556 975 473 
Q 1284 391 1588 391 
Q 1994 391 2212 530 
Q 2431 669 2431 922 
Q 2431 1156 2273 1281 
Q 2116 1406 1581 1522 
L 1381 1569 
Q 847 1681 609 1914 
Q 372 2147 372 2553 
Q 372 3047 722 3315 
Q 1072 3584 1716 3584 
Q 2034 3584 2315 3537 
Q 2597 3491 2834 3397 
z
" transform="scale(0.015625)"/>
       <path id="DejaVuSans-6f" d="M 1959 3097 
Q 1497 3097 1228 2736 
Q 959 2375 959 1747 
Q 959 1119 1226 758 
Q 1494 397 1959 397 
Q 2419 397 2687 759 
Q 2956 1122 2956 1747 
Q 2956 2369 2687 2733 
Q 2419 3097 1959 3097 
z
M 1959 3584 
Q 2709 3584 3137 3096 
Q 3566 2609 3566 1747 
Q 3566 888 3137 398 
Q 2709 -91 1959 -91 
Q 1206 -91 779 398 
Q 353 888 353 1747 
Q 353 2609 779 3096 
Q 1206 3584 1959 3584 
z
" transform="scale(0.015625)"/>
       <path id="DejaVuSans-6e" d="M 3513 2113 
L 3513 0 
L 2938 0 
L 2938 2094 
Q 2938 2591 2744 2837 
Q 2550 3084 2163 3084 
Q 1697 3084 1428 2787 
Q 1159 2491 1159 1978 
L 1159 0 
L 581 0 
L 581 3500 
L 1159 3500 
L 1159 2956 
Q 1366 3272 1645 3428 
Q 1925 3584 2291 3584 
Q 2894 3584 3203 3211 
Q 3513 2838 3513 2113 
z
" transform="scale(0.015625)"/>
       <path id="DejaVuSans-74" d="M 1172 4494 
L 1172 3500 
L 2356 3500 
L 2356 3053 
L 1172 3053 
L 1172 1153 
Q 1172 725 1289 603 
Q 1406 481 1766 481 
L 2356 481 
L 2356 0 
L 1766 0 
Q 1100 0 847 248 
Q 594 497 594 1153 
L 594 3053 
L 172 3053 
L 172 3500 
L 594 3500 
L 594 4494 
L 1172 4494 
z
" transform="scale(0.015625)"/>
       <path id="DejaVuSans-79" d="M 2059 -325 
Q 1816 -950 1584 -1140 
Q 1353 -1331 966 -1331 
L 506 -1331 
L 506 -850 
L 844 -850 
Q 1081 -850 1212 -737 
Q 1344 -625 1503 -206 
L 1606 56 
L 191 3500 
L 800 3500 
L 1894 763 
L 2988 3500 
L 3597 3500 
L 2059 -325 
z
" transform="scale(0.015625)"/>
       <path id="DejaVuSans-70" d="M 1159 525 
L 1159 -1331 
L 581 -1331 
L 581 3500 
L 1159 3500 
L 1159 2969 
Q 1341 3281 1617 3432 
Q 1894 3584 2278 3584 
Q 2916 3584 3314 3078 
Q 3713 2572 3713 1747 
Q 3713 922 3314 415 
Q 2916 -91 2278 -91 
Q 1894 -91 1617 61 
Q 1341 213 1159 525 
z
M 3116 1747 
Q 3116 2381 2855 2742 
Q 2594 3103 2138 3103 
Q 1681 3103 1420 2742 
Q 1159 2381 1159 1747 
Q 1159 1113 1420 752 
Q 1681 391 2138 391 
Q 2594 391 2855 752 
Q 3116 1113 3116 1747 
z
" transform="scale(0.015625)"/>
      </defs>
      <use xlink:href="#DejaVuSans-72"/>
      <use xlink:href="#DejaVuSans-20" x="41.113281"/>
      <use xlink:href="#DejaVuSans-64" x="72.900391"/>
      <use xlink:href="#DejaVuSans-65" x="136.376953"/>
      <use xlink:href="#DejaVuSans-20" x="197.900391"/>
      <use xlink:href="#DejaVuSans-50" x="229.6875"/>
      <use xlink:href="#DejaVuSans-65" x="286.365234"/>
      <use xlink:href="#DejaVuSans-61" x="347.888672"/>
      <use xlink:href="#DejaVuSans-72" x="409.167969"/>
      <use xlink:href="#DejaVuSans-73" x="450.28125"/>
      <use xlink:href="#DejaVuSans-6f" x="502.380859"/>
      <use xlink:href="#DejaVuSans-6e" x="563.5625"/>
      <use xlink:href="#DejaVuSans-20" x="626.941406"/>
      <use xlink:href="#DejaVuSans-28" x="658.728516"/>
      <use xlink:href="#DejaVuSans-6d" x="697.742188"/>
      <use xlink:href="#DejaVuSans-61" x="795.154297"/>
      <use xlink:href="#DejaVuSans-74" x="856.433594"/>
      <use xlink:href="#DejaVuSans-2e" x="895.642578"/>
      <use xlink:href="#DejaVuSans-20" x="927.429688"/>
      <use xlink:href="#DejaVuSans-64" x="959.216797"/>
      <use xlink:href="#DejaVuSans-65" x="1022.693359"/>
      <use xlink:href="#DejaVuSans-20" x="1084.216797"/>
      <use xlink:href="#DejaVuSans-61" x="1116.003906"/>
      <use xlink:href="#DejaVuSans-64" x="1177.283203"/>
      <use xlink:href="#DejaVuSans-79" x="1240.759766"/>
      <use xlink:href="#DejaVuSans-2e" x="1285.689453"/>
      <use xlink:href="#DejaVuSans-20" x="1317.476562"/>
      <use xlink:href="#DejaVuSans-61" x="1349.263672"/>
      <use xlink:href="#DejaVuSans-70" x="1410.542969"/>
      <use xlink:href="#DejaVuSans-6c" x="1474.019531"/>
      <use xlink:href="#DejaVuSans-61" x="1501.802734"/>
      <use xlink:href="#DejaVuSans-6e" x="1563.082031"/>
      <use xlink:href="#DejaVuSans-61" x="1626.460938"/>
      <use xlink:href="#DejaVuSans-64" x="1687.740234"/>
      <use xlink:href="#DejaVuSans-61" x="1751.216797"/>
      <use xlink:href="#DejaVuSans-73" x="1812.496094"/>
      <use xlink:href="#DejaVuSans-29" x="1864.595703"/>
      <use xlink:href="#DejaVuSans-20" x="1903.609375"/>
      <use xlink:href="#DejaVuSans-28" x="1935.396484"/>
      <use xlink:href="#DejaVuSans-61" x="1974.410156"/>
      <use xlink:href="#DejaVuSans-64" x="2035.689453"/>
      <use xlink:href="#DejaVuSans-69" x="2099.166016"/>
      <use xlink:href="#DejaVuSans-6d" x="2126.949219"/>
      <use xlink:href="#DejaVuSans-2e" x="2224.361328"/>
      <use xlink:href="#DejaVuSans-29" x="2256.148438"/>
     </g>
    </g>
   </g>
   <g id="line2d_16">
    <path d="M 66.039915 261.216 
L 83.126996 193.885252 
L 100.214077 193.885751 
L 117.301159 193.885289 
L 134.38824 193.885622 
L 151.475321 193.885585 
L 168.562403 193.885751 
L 185.649484 193.88552 
L 202.736565 193.885815 
L 219.823647 193.88552 
L 236.910728 193.885289 
L 253.99781 193.885225 
L 271.084891 193.885188 
L 288.171972 193.885354 
L 305.259054 193.88552 
L 322.346135 193.885547 
L 339.433216 193.885751 
L 356.520298 193.885649 
L 373.607379 193.885418 
L 390.69446 193.885649 
" clip-path="url(#p11e8b8ab63)" style="fill: none; stroke-dasharray: 5.55,2.4; stroke-dashoffset: 0; stroke: #4c72b0; stroke-width: 1.5"/>
    <defs>
     <path id="m9ac6048539" d="M 0 3 
C 0.795609 3 1.55874 2.683901 2.12132 2.12132 
C 2.683901 1.55874 3 0.795609 3 0 
C 3 -0.795609 2.683901 -1.55874 2.12132 -2.12132 
C 1.55874 -2.683901 0.795609 -3 0 -3 
C -0.795609 -3 -1.55874 -2.683901 -2.12132 -2.12132 
C -2.683901 -1.55874 -3 -0.795609 -3 0 
C -3 0.795609 -2.683901 1.55874 -2.12132 2.12132 
C -1.55874 2.683901 -0.795609 3 0 3 
z
" style="stroke: #4c72b0"/>
    </defs>
    <g clip-path="url(#p11e8b8ab63)">
     <use xlink:href="#m9ac6048539" x="66.039915" y="261.216" style="fill: #4c72b0; stroke: #4c72b0"/>
     <use xlink:href="#m9ac6048539" x="83.126996" y="193.885252" style="fill: #4c72b0; stroke: #4c72b0"/>
     <use xlink:href="#m9ac6048539" x="100.214077" y="193.885751" style="fill: #4c72b0; stroke: #4c72b0"/>
     <use xlink:href="#m9ac6048539" x="117.301159" y="193.885289" style="fill: #4c72b0; stroke: #4c72b0"/>
     <use xlink:href="#m9ac6048539" x="134.38824" y="193.885622" style="fill: #4c72b0; stroke: #4c72b0"/>
     <use xlink:href="#m9ac6048539" x="151.475321" y="193.885585" style="fill: #4c72b0; stroke: #4c72b0"/>
     <use xlink:href="#m9ac6048539" x="168.562403" y="193.885751" style="fill: #4c72b0; stroke: #4c72b0"/>
     <use xlink:href="#m9ac6048539" x="185.649484" y="193.88552" style="fill: #4c72b0; stroke: #4c72b0"/>
     <use xlink:href="#m9ac6048539" x="202.736565" y="193.885815" style="fill: #4c72b0; stroke: #4c72b0"/>
     <use xlink:href="#m9ac6048539" x="219.823647" y="193.88552" style="fill: #4c72b0; stroke: #4c72b0"/>
     <use xlink:href="#m9ac6048539" x="236.910728" y="193.885289" style="fill: #4c72b0; stroke: #4c72b0"/>
     <use xlink:href="#m9ac6048539" x="253.99781" y="193.885225" style="fill: #4c72b0; stroke: #4c72b0"/>
     <use xlink:href="#m9ac6048539" x="271.084891" y="193.885188" style="fill: #4c72b0; stroke: #4c72b0"/>
     <use xlink:href="#m9ac6048539" x="288.171972" y="193.885354" style="fill: #4c72b0; stroke: #4c72b0"/>
     <use xlink:href="#m9ac6048539" x="305.259054" y="193.88552" style="fill: #4c72b0; stroke: #4c72b0"/>
     <use xlink:href="#m9ac6048539" x="322.346135" y="193.885547" style="fill: #4c72b0; stroke: #4c72b0"/>
     <use xlink:href="#m9ac6048539" x="339.433216" y="193.885751" style="fill: #4c72b0; stroke: #4c72b0"/>
     <use xlink:href="#m9ac6048539" x="356.520298" y="193.885649" style="fill: #4c72b0; stroke: #4c72b0"/>
     <use xlink:href="#m9ac6048539" x="373.607379" y="193.885418" style="fill: #4c72b0; stroke: #4c72b0"/>
     <use xlink:href="#m9ac6048539" x="390.69446" y="193.885649" style="fill: #4c72b0; stroke: #4c72b0"/>
    </g>
   </g>
   <g id="line2d_17">
    <path d="M 66.039915 261.216 
L 83.126996 180.103876 
L 100.214077 165.951862 
L 117.301159 157.852546 
L 134.38824 154.090745 
L 151.475321 150.192102 
L 168.562403 148.250163 
L 185.649484 146.362748 
L 202.736565 142.648048 
L 219.823647 139.200352 
L 236.910728 135.02112 
L 253.99781 129.738493 
L 271.084891 127.071882 
L 288.171972 125.91324 
L 305.259054 122.879643 
L 322.346135 122.964569 
L 339.433216 115.995209 
L 356.520298 110.060074 
L 373.607379 106.199945 
L 390.69446 147.983988 
" clip-path="url(#p11e8b8ab63)" style="fill: none; stroke-dasharray: 5.55,2.4; stroke-dashoffset: 0; stroke: #dd8452; stroke-width: 1.5"/>
    <defs>
     <path id="ma160644fce" d="M 0 3 
C 0.795609 3 1.55874 2.683901 2.12132 2.12132 
C 2.683901 1.55874 3 0.795609 3 0 
C 3 -0.795609 2.683901 -1.55874 2.12132 -2.12132 
C 1.55874 -2.683901 0.795609 -3 0 -3 
C -0.795609 -3 -1.55874 -2.683901 -2.12132 -2.12132 
C -2.683901 -1.55874 -3 -0.795609 -3 0 
C -3 0.795609 -2.683901 1.55874 -2.12132 2.12132 
C -1.55874 2.683901 -0.795609 3 0 3 
z
" style="stroke: #dd8452"/>
    </defs>
    <g clip-path="url(#p11e8b8ab63)">
     <use xlink:href="#ma160644fce" x="66.039915" y="261.216" style="fill: #dd8452; stroke: #dd8452"/>
     <use xlink:href="#ma160644fce" x="83.126996" y="180.103876" style="fill: #dd8452; stroke: #dd8452"/>
     <use xlink:href="#ma160644fce" x="100.214077" y="165.951862" style="fill: #dd8452; stroke: #dd8452"/>
     <use xlink:href="#ma160644fce" x="117.301159" y="157.852546" style="fill: #dd8452; stroke: #dd8452"/>
     <use xlink:href="#ma160644fce" x="134.38824" y="154.090745" style="fill: #dd8452; stroke: #dd8452"/>
     <use xlink:href="#ma160644fce" x="151.475321" y="150.192102" style="fill: #dd8452; stroke: #dd8452"/>
     <use xlink:href="#ma160644fce" x="168.562403" y="148.250163" style="fill: #dd8452; stroke: #dd8452"/>
     <use xlink:href="#ma160644fce" x="185.649484" y="146.362748" style="fill: #dd8452; stroke: #dd8452"/>
     <use xlink:href="#ma160644fce" x="202.736565" y="142.648048" style="fill: #dd8452; stroke: #dd8452"/>
     <use xlink:href="#ma160644fce" x="219.823647" y="139.200352" style="fill: #dd8452; stroke: #dd8452"/>
     <use xlink:href="#ma160644fce" x="236.910728" y="135.02112" style="fill: #dd8452; stroke: #dd8452"/>
     <use xlink:href="#ma160644fce" x="253.99781" y="129.738493" style="fill: #dd8452; stroke: #dd8452"/>
     <use xlink:href="#ma160644fce" x="271.084891" y="127.071882" style="fill: #dd8452; stroke: #dd8452"/>
     <use xlink:href="#ma160644fce" x="288.171972" y="125.91324" style="fill: #dd8452; stroke: #dd8452"/>
     <use xlink:href="#ma160644fce" x="305.259054" y="122.879643" style="fill: #dd8452; stroke: #dd8452"/>
     <use xlink:href="#ma160644fce" x="322.346135" y="122.964569" style="fill: #dd8452; stroke: #dd8452"/>
     <use xlink:href="#ma160644fce" x="339.433216" y="115.995209" style="fill: #dd8452; stroke: #dd8452"/>
     <use xlink:href="#ma160644fce" x="356.520298" y="110.060074" style="fill: #dd8452; stroke: #dd8452"/>
     <use xlink:href="#ma160644fce" x="373.607379" y="106.199945" style="fill: #dd8452; stroke: #dd8452"/>
     <use xlink:href="#ma160644fce" x="390.69446" y="147.983988" style="fill: #dd8452; stroke: #dd8452"/>
    </g>
   </g>
   <g id="line2d_18">
    <path d="M 66.039915 261.216 
L 83.126996 234.620199 
L 100.214077 206.426178 
L 117.301159 177.561261 
L 134.38824 163.079832 
L 151.475321 143.099772 
L 168.562403 125.962857 
L 185.649484 113.852213 
L 202.736565 102.545753 
L 219.823647 95.552091 
L 236.910728 88.865401 
L 253.99781 82.90397 
L 271.084891 79.934973 
L 288.171972 74.677197 
L 305.259054 74.471155 
L 322.346135 72.497997 
L 339.433216 68.471391 
L 356.520298 60.469657 
L 373.607379 59.319496 
L 390.69446 206.291393 
" clip-path="url(#p11e8b8ab63)" style="fill: none; stroke-dasharray: 5.55,2.4; stroke-dashoffset: 0; stroke: #55a868; stroke-width: 1.5"/>
    <defs>
     <path id="m59fbbc4490" d="M 0 3 
C 0.795609 3 1.55874 2.683901 2.12132 2.12132 
C 2.683901 1.55874 3 0.795609 3 0 
C 3 -0.795609 2.683901 -1.55874 2.12132 -2.12132 
C 1.55874 -2.683901 0.795609 -3 0 -3 
C -0.795609 -3 -1.55874 -2.683901 -2.12132 -2.12132 
C -2.683901 -1.55874 -3 -0.795609 -3 0 
C -3 0.795609 -2.683901 1.55874 -2.12132 2.12132 
C -1.55874 2.683901 -0.795609 3 0 3 
z
" style="stroke: #55a868"/>
    </defs>
    <g clip-path="url(#p11e8b8ab63)">
     <use xlink:href="#m59fbbc4490" x="66.039915" y="261.216" style="fill: #55a868; stroke: #55a868"/>
     <use xlink:href="#m59fbbc4490" x="83.126996" y="234.620199" style="fill: #55a868; stroke: #55a868"/>
     <use xlink:href="#m59fbbc4490" x="100.214077" y="206.426178" style="fill: #55a868; stroke: #55a868"/>
     <use xlink:href="#m59fbbc4490" x="117.301159" y="177.561261" style="fill: #55a868; stroke: #55a868"/>
     <use xlink:href="#m59fbbc4490" x="134.38824" y="163.079832" style="fill: #55a868; stroke: #55a868"/>
     <use xlink:href="#m59fbbc4490" x="151.475321" y="143.099772" style="fill: #55a868; stroke: #55a868"/>
     <use xlink:href="#m59fbbc4490" x="168.562403" y="125.962857" style="fill: #55a868; stroke: #55a868"/>
     <use xlink:href="#m59fbbc4490" x="185.649484" y="113.852213" style="fill: #55a868; stroke: #55a868"/>
     <use xlink:href="#m59fbbc4490" x="202.736565" y="102.545753" style="fill: #55a868; stroke: #55a868"/>
     <use xlink:href="#m59fbbc4490" x="219.823647" y="95.552091" style="fill: #55a868; stroke: #55a868"/>
     <use xlink:href="#m59fbbc4490" x="236.910728" y="88.865401" style="fill: #55a868; stroke: #55a868"/>
     <use xlink:href="#m59fbbc4490" x="253.99781" y="82.90397" style="fill: #55a868; stroke: #55a868"/>
     <use xlink:href="#m59fbbc4490" x="271.084891" y="79.934973" style="fill: #55a868; stroke: #55a868"/>
     <use xlink:href="#m59fbbc4490" x="288.171972" y="74.677197" style="fill: #55a868; stroke: #55a868"/>
     <use xlink:href="#m59fbbc4490" x="305.259054" y="74.471155" style="fill: #55a868; stroke: #55a868"/>
     <use xlink:href="#m59fbbc4490" x="322.346135" y="72.497997" style="fill: #55a868; stroke: #55a868"/>
     <use xlink:href="#m59fbbc4490" x="339.433216" y="68.471391" style="fill: #55a868; stroke: #55a868"/>
     <use xlink:href="#m59fbbc4490" x="356.520298" y="60.469657" style="fill: #55a868; stroke: #55a868"/>
     <use xlink:href="#m59fbbc4490" x="373.607379" y="59.319496" style="fill: #55a868; stroke: #55a868"/>
     <use xlink:href="#m59fbbc4490" x="390.69446" y="206.291393" style="fill: #55a868; stroke: #55a868"/>
    </g>
   </g>
   <g id="line2d_19">
    <path d="M 66.039915 261.216 
L 83.126996 249.463131 
L 100.214077 230.772879 
L 117.301159 200.118158 
L 134.38824 172.438194 
L 151.475321 148.260906 
L 168.562403 126.730787 
L 185.649484 109.003701 
L 202.736565 92.272868 
L 219.823647 80.834414 
L 236.910728 71.378822 
L 253.99781 64.375234 
L 271.084891 60.727475 
L 288.171972 57.106564 
L 305.259054 50.917916 
L 322.346135 42.401382 
L 339.433216 39.011495 
L 356.520298 39.992673 
L 373.607379 55.494166 
L 390.69446 208.145728 
" clip-path="url(#p11e8b8ab63)" style="fill: none; stroke-dasharray: 5.55,2.4; stroke-dashoffset: 0; stroke: #c44e52; stroke-width: 1.5"/>
    <defs>
     <path id="m4ffc0fbfec" d="M 0 3 
C 0.795609 3 1.55874 2.683901 2.12132 2.12132 
C 2.683901 1.55874 3 0.795609 3 0 
C 3 -0.795609 2.683901 -1.55874 2.12132 -2.12132 
C 1.55874 -2.683901 0.795609 -3 0 -3 
C -0.795609 -3 -1.55874 -2.683901 -2.12132 -2.12132 
C -2.683901 -1.55874 -3 -0.795609 -3 0 
C -3 0.795609 -2.683901 1.55874 -2.12132 2.12132 
C -1.55874 2.683901 -0.795609 3 0 3 
z
" style="stroke: #c44e52"/>
    </defs>
    <g clip-path="url(#p11e8b8ab63)">
     <use xlink:href="#m4ffc0fbfec" x="66.039915" y="261.216" style="fill: #c44e52; stroke: #c44e52"/>
     <use xlink:href="#m4ffc0fbfec" x="83.126996" y="249.463131" style="fill: #c44e52; stroke: #c44e52"/>
     <use xlink:href="#m4ffc0fbfec" x="100.214077" y="230.772879" style="fill: #c44e52; stroke: #c44e52"/>
     <use xlink:href="#m4ffc0fbfec" x="117.301159" y="200.118158" style="fill: #c44e52; stroke: #c44e52"/>
     <use xlink:href="#m4ffc0fbfec" x="134.38824" y="172.438194" style="fill: #c44e52; stroke: #c44e52"/>
     <use xlink:href="#m4ffc0fbfec" x="151.475321" y="148.260906" style="fill: #c44e52; stroke: #c44e52"/>
     <use xlink:href="#m4ffc0fbfec" x="168.562403" y="126.730787" style="fill: #c44e52; stroke: #c44e52"/>
     <use xlink:href="#m4ffc0fbfec" x="185.649484" y="109.003701" style="fill: #c44e52; stroke: #c44e52"/>
     <use xlink:href="#m4ffc0fbfec" x="202.736565" y="92.272868" style="fill: #c44e52; stroke: #c44e52"/>
     <use xlink:href="#m4ffc0fbfec" x="219.823647" y="80.834414" style="fill: #c44e52; stroke: #c44e52"/>
     <use xlink:href="#m4ffc0fbfec" x="236.910728" y="71.378822" style="fill: #c44e52; stroke: #c44e52"/>
     <use xlink:href="#m4ffc0fbfec" x="253.99781" y="64.375234" style="fill: #c44e52; stroke: #c44e52"/>
     <use xlink:href="#m4ffc0fbfec" x="271.084891" y="60.727475" style="fill: #c44e52; stroke: #c44e52"/>
     <use xlink:href="#m4ffc0fbfec" x="288.171972" y="57.106564" style="fill: #c44e52; stroke: #c44e52"/>
     <use xlink:href="#m4ffc0fbfec" x="305.259054" y="50.917916" style="fill: #c44e52; stroke: #c44e52"/>
     <use xlink:href="#m4ffc0fbfec" x="322.346135" y="42.401382" style="fill: #c44e52; stroke: #c44e52"/>
     <use xlink:href="#m4ffc0fbfec" x="339.433216" y="39.011495" style="fill: #c44e52; stroke: #c44e52"/>
     <use xlink:href="#m4ffc0fbfec" x="356.520298" y="39.992673" style="fill: #c44e52; stroke: #c44e52"/>
     <use xlink:href="#m4ffc0fbfec" x="373.607379" y="55.494166" style="fill: #c44e52; stroke: #c44e52"/>
     <use xlink:href="#m4ffc0fbfec" x="390.69446" y="208.145728" style="fill: #c44e52; stroke: #c44e52"/>
    </g>
   </g>
   <g id="line2d_20">
    <path d="M 66.039915 261.216 
L 83.126996 260.460957 
L 100.214077 255.377614 
L 117.301159 240.107264 
L 134.38824 199.133562 
L 151.475321 166.371579 
L 168.562403 140.262096 
L 185.649484 110.983458 
L 202.736565 86.611259 
L 219.823647 69.702571 
L 236.910728 56.894827 
L 253.99781 48.563542 
L 271.084891 45.202309 
L 288.171972 43.335981 
L 305.259054 26.650021 
L 322.346135 27.09052 
L 339.433216 37.31825 
L 356.520298 58.523059 
L 373.607379 93.371099 
L 390.69446 210.2438 
" clip-path="url(#p11e8b8ab63)" style="fill: none; stroke-dasharray: 5.55,2.4; stroke-dashoffset: 0; stroke: #8172b3; stroke-width: 1.5"/>
    <defs>
     <path id="mdca390bb7c" d="M 0 3 
C 0.795609 3 1.55874 2.683901 2.12132 2.12132 
C 2.683901 1.55874 3 0.795609 3 0 
C 3 -0.795609 2.683901 -1.55874 2.12132 -2.12132 
C 1.55874 -2.683901 0.795609 -3 0 -3 
C -0.795609 -3 -1.55874 -2.683901 -2.12132 -2.12132 
C -2.683901 -1.55874 -3 -0.795609 -3 0 
C -3 0.795609 -2.683901 1.55874 -2.12132 2.12132 
C -1.55874 2.683901 -0.795609 3 0 3 
z
" style="stroke: #8172b3"/>
    </defs>
    <g clip-path="url(#p11e8b8ab63)">
     <use xlink:href="#mdca390bb7c" x="66.039915" y="261.216" style="fill: #8172b3; stroke: #8172b3"/>
     <use xlink:href="#mdca390bb7c" x="83.126996" y="260.460957" style="fill: #8172b3; stroke: #8172b3"/>
     <use xlink:href="#mdca390bb7c" x="100.214077" y="255.377614" style="fill: #8172b3; stroke: #8172b3"/>
     <use xlink:href="#mdca390bb7c" x="117.301159" y="240.107264" style="fill: #8172b3; stroke: #8172b3"/>
     <use xlink:href="#mdca390bb7c" x="134.38824" y="199.133562" style="fill: #8172b3; stroke: #8172b3"/>
     <use xlink:href="#mdca390bb7c" x="151.475321" y="166.371579" style="fill: #8172b3; stroke: #8172b3"/>
     <use xlink:href="#mdca390bb7c" x="168.562403" y="140.262096" style="fill: #8172b3; stroke: #8172b3"/>
     <use xlink:href="#mdca390bb7c" x="185.649484" y="110.983458" style="fill: #8172b3; stroke: #8172b3"/>
     <use xlink:href="#mdca390bb7c" x="202.736565" y="86.611259" style="fill: #8172b3; stroke: #8172b3"/>
     <use xlink:href="#mdca390bb7c" x="219.823647" y="69.702571" style="fill: #8172b3; stroke: #8172b3"/>
     <use xlink:href="#mdca390bb7c" x="236.910728" y="56.894827" style="fill: #8172b3; stroke: #8172b3"/>
     <use xlink:href="#mdca390bb7c" x="253.99781" y="48.563542" style="fill: #8172b3; stroke: #8172b3"/>
     <use xlink:href="#mdca390bb7c" x="271.084891" y="45.202309" style="fill: #8172b3; stroke: #8172b3"/>
     <use xlink:href="#mdca390bb7c" x="288.171972" y="43.335981" style="fill: #8172b3; stroke: #8172b3"/>
     <use xlink:href="#mdca390bb7c" x="305.259054" y="26.650021" style="fill: #8172b3; stroke: #8172b3"/>
     <use xlink:href="#mdca390bb7c" x="322.346135" y="27.09052" style="fill: #8172b3; stroke: #8172b3"/>
     <use xlink:href="#mdca390bb7c" x="339.433216" y="37.31825" style="fill: #8172b3; stroke: #8172b3"/>
     <use xlink:href="#mdca390bb7c" x="356.520298" y="58.523059" style="fill: #8172b3; stroke: #8172b3"/>
     <use xlink:href="#mdca390bb7c" x="373.607379" y="93.371099" style="fill: #8172b3; stroke: #8172b3"/>
     <use xlink:href="#mdca390bb7c" x="390.69446" y="210.2438" style="fill: #8172b3; stroke: #8172b3"/>
    </g>
   </g>
   <g id="line2d_21">
    <path d="M 66.039915 261.216 
L 83.126996 261.216 
L 100.214077 261.216 
L 117.301159 260.838263 
L 134.38824 239.60019 
L 151.475321 205.11055 
L 168.562403 168.132142 
L 185.649484 131.505052 
L 202.736565 92.365762 
L 219.823647 63.314344 
L 236.910728 45.679922 
L 253.99781 36.377251 
L 271.084891 34.343116 
L 288.171972 40.225156 
L 305.259054 19.296 
L 322.346135 36.437062 
L 339.433216 63.936351 
L 356.520298 95.473728 
L 373.607379 126.181517 
L 390.69446 149.90606 
" clip-path="url(#p11e8b8ab63)" style="fill: none; stroke-dasharray: 5.55,2.4; stroke-dashoffset: 0; stroke: #937860; stroke-width: 1.5"/>
    <defs>
     <path id="m72dabf7184" d="M 0 3 
C 0.795609 3 1.55874 2.683901 2.12132 2.12132 
C 2.683901 1.55874 3 0.795609 3 0 
C 3 -0.795609 2.683901 -1.55874 2.12132 -2.12132 
C 1.55874 -2.683901 0.795609 -3 0 -3 
C -0.795609 -3 -1.55874 -2.683901 -2.12132 -2.12132 
C -2.683901 -1.55874 -3 -0.795609 -3 0 
C -3 0.795609 -2.683901 1.55874 -2.12132 2.12132 
C -1.55874 2.683901 -0.795609 3 0 3 
z
" style="stroke: #937860"/>
    </defs>
    <g clip-path="url(#p11e8b8ab63)">
     <use xlink:href="#m72dabf7184" x="66.039915" y="261.216" style="fill: #937860; stroke: #937860"/>
     <use xlink:href="#m72dabf7184" x="83.126996" y="261.216" style="fill: #937860; stroke: #937860"/>
     <use xlink:href="#m72dabf7184" x="100.214077" y="261.216" style="fill: #937860; stroke: #937860"/>
     <use xlink:href="#m72dabf7184" x="117.301159" y="260.838263" style="fill: #937860; stroke: #937860"/>
     <use xlink:href="#m72dabf7184" x="134.38824" y="239.60019" style="fill: #937860; stroke: #937860"/>
     <use xlink:href="#m72dabf7184" x="151.475321" y="205.11055" style="fill: #937860; stroke: #937860"/>
     <use xlink:href="#m72dabf7184" x="168.562403" y="168.132142" style="fill: #937860; stroke: #937860"/>
     <use xlink:href="#m72dabf7184" x="185.649484" y="131.505052" style="fill: #937860; stroke: #937860"/>
     <use xlink:href="#m72dabf7184" x="202.736565" y="92.365762" style="fill: #937860; stroke: #937860"/>
     <use xlink:href="#m72dabf7184" x="219.823647" y="63.314344" style="fill: #937860; stroke: #937860"/>
     <use xlink:href="#m72dabf7184" x="236.910728" y="45.679922" style="fill: #937860; stroke: #937860"/>
     <use xlink:href="#m72dabf7184" x="253.99781" y="36.377251" style="fill: #937860; stroke: #937860"/>
     <use xlink:href="#m72dabf7184" x="271.084891" y="34.343116" style="fill: #937860; stroke: #937860"/>
     <use xlink:href="#m72dabf7184" x="288.171972" y="40.225156" style="fill: #937860; stroke: #937860"/>
     <use xlink:href="#m72dabf7184" x="305.259054" y="19.296" style="fill: #937860; stroke: #937860"/>
     <use xlink:href="#m72dabf7184" x="322.346135" y="36.437062" style="fill: #937860; stroke: #937860"/>
     <use xlink:href="#m72dabf7184" x="339.433216" y="63.936351" style="fill: #937860; stroke: #937860"/>
     <use xlink:href="#m72dabf7184" x="356.520298" y="95.473728" style="fill: #937860; stroke: #937860"/>
     <use xlink:href="#m72dabf7184" x="373.607379" y="126.181517" style="fill: #937860; stroke: #937860"/>
     <use xlink:href="#m72dabf7184" x="390.69446" y="149.90606" style="fill: #937860; stroke: #937860"/>
    </g>
   </g>
   <g id="line2d_22">
    <path d="M 66.039915 261.216 
L 83.126996 261.216 
L 100.214077 261.216 
L 117.301159 261.216 
L 134.38824 259.212225 
L 151.475321 239.555023 
L 168.562403 207.113555 
L 185.649484 167.523469 
L 202.736565 117.912913 
L 219.823647 69.184104 
L 236.910728 38.931074 
L 253.99781 32.097938 
L 271.084891 43.602745 
L 288.171972 49.753317 
L 305.259054 55.27253 
L 322.346135 85.045403 
L 339.433216 109.824568 
L 356.520298 122.507156 
L 373.607379 140.550992 
L 390.69446 151.482047 
" clip-path="url(#p11e8b8ab63)" style="fill: none; stroke-dasharray: 5.55,2.4; stroke-dashoffset: 0; stroke: #da8bc3; stroke-width: 1.5"/>
    <defs>
     <path id="m86c39f13c5" d="M 0 3 
C 0.795609 3 1.55874 2.683901 2.12132 2.12132 
C 2.683901 1.55874 3 0.795609 3 0 
C 3 -0.795609 2.683901 -1.55874 2.12132 -2.12132 
C 1.55874 -2.683901 0.795609 -3 0 -3 
C -0.795609 -3 -1.55874 -2.683901 -2.12132 -2.12132 
C -2.683901 -1.55874 -3 -0.795609 -3 0 
C -3 0.795609 -2.683901 1.55874 -2.12132 2.12132 
C -1.55874 2.683901 -0.795609 3 0 3 
z
" style="stroke: #da8bc3"/>
    </defs>
    <g clip-path="url(#p11e8b8ab63)">
     <use xlink:href="#m86c39f13c5" x="66.039915" y="261.216" style="fill: #da8bc3; stroke: #da8bc3"/>
     <use xlink:href="#m86c39f13c5" x="83.126996" y="261.216" style="fill: #da8bc3; stroke: #da8bc3"/>
     <use xlink:href="#m86c39f13c5" x="100.214077" y="261.216" style="fill: #da8bc3; stroke: #da8bc3"/>
     <use xlink:href="#m86c39f13c5" x="117.301159" y="261.216" style="fill: #da8bc3; stroke: #da8bc3"/>
     <use xlink:href="#m86c39f13c5" x="134.38824" y="259.212225" style="fill: #da8bc3; stroke: #da8bc3"/>
     <use xlink:href="#m86c39f13c5" x="151.475321" y="239.555023" style="fill: #da8bc3; stroke: #da8bc3"/>
     <use xlink:href="#m86c39f13c5" x="168.562403" y="207.113555" style="fill: #da8bc3; stroke: #da8bc3"/>
     <use xlink:href="#m86c39f13c5" x="185.649484" y="167.523469" style="fill: #da8bc3; stroke: #da8bc3"/>
     <use xlink:href="#m86c39f13c5" x="202.736565" y="117.912913" style="fill: #da8bc3; stroke: #da8bc3"/>
     <use xlink:href="#m86c39f13c5" x="219.823647" y="69.184104" style="fill: #da8bc3; stroke: #da8bc3"/>
     <use xlink:href="#m86c39f13c5" x="236.910728" y="38.931074" style="fill: #da8bc3; stroke: #da8bc3"/>
     <use xlink:href="#m86c39f13c5" x="253.99781" y="32.097938" style="fill: #da8bc3; stroke: #da8bc3"/>
     <use xlink:href="#m86c39f13c5" x="271.084891" y="43.602745" style="fill: #da8bc3; stroke: #da8bc3"/>
     <use xlink:href="#m86c39f13c5" x="288.171972" y="49.753317" style="fill: #da8bc3; stroke: #da8bc3"/>
     <use xlink:href="#m86c39f13c5" x="305.259054" y="55.27253" style="fill: #da8bc3; stroke: #da8bc3"/>
     <use xlink:href="#m86c39f13c5" x="322.346135" y="85.045403" style="fill: #da8bc3; stroke: #da8bc3"/>
     <use xlink:href="#m86c39f13c5" x="339.433216" y="109.824568" style="fill: #da8bc3; stroke: #da8bc3"/>
     <use xlink:href="#m86c39f13c5" x="356.520298" y="122.507156" style="fill: #da8bc3; stroke: #da8bc3"/>
     <use xlink:href="#m86c39f13c5" x="373.607379" y="140.550992" style="fill: #da8bc3; stroke: #da8bc3"/>
     <use xlink:href="#m86c39f13c5" x="390.69446" y="151.482047" style="fill: #da8bc3; stroke: #da8bc3"/>
    </g>
   </g>
   <g id="line2d_23">
    <path d="M 66.039915 261.216 
L 83.126996 261.216 
L 100.214077 261.216 
L 117.301159 261.216 
L 134.38824 259.289462 
L 151.475321 247.708054 
L 168.562403 218.28135 
L 185.649484 177.595845 
L 202.736565 127.616371 
L 219.823647 72.700901 
L 236.910728 38.540033 
L 253.99781 32.659826 
L 271.084891 48.073685 
L 288.171972 52.048781 
L 305.259054 68.583268 
L 322.346135 93.11055 
L 339.433216 119.49349 
L 356.520298 131.219281 
L 373.607379 143.155252 
L 390.69446 221.804221 
" clip-path="url(#p11e8b8ab63)" style="fill: none; stroke-dasharray: 5.55,2.4; stroke-dashoffset: 0; stroke: #8c8c8c; stroke-width: 1.5"/>
    <defs>
     <path id="m415a4a98eb" d="M 0 3 
C 0.795609 3 1.55874 2.683901 2.12132 2.12132 
C 2.683901 1.55874 3 0.795609 3 0 
C 3 -0.795609 2.683901 -1.55874 2.12132 -2.12132 
C 1.55874 -2.683901 0.795609 -3 0 -3 
C -0.795609 -3 -1.55874 -2.683901 -2.12132 -2.12132 
C -2.683901 -1.55874 -3 -0.795609 -3 0 
C -3 0.795609 -2.683901 1.55874 -2.12132 2.12132 
C -1.55874 2.683901 -0.795609 3 0 3 
z
" style="stroke: #8c8c8c"/>
    </defs>
    <g clip-path="url(#p11e8b8ab63)">
     <use xlink:href="#m415a4a98eb" x="66.039915" y="261.216" style="fill: #8c8c8c; stroke: #8c8c8c"/>
     <use xlink:href="#m415a4a98eb" x="83.126996" y="261.216" style="fill: #8c8c8c; stroke: #8c8c8c"/>
     <use xlink:href="#m415a4a98eb" x="100.214077" y="261.216" style="fill: #8c8c8c; stroke: #8c8c8c"/>
     <use xlink:href="#m415a4a98eb" x="117.301159" y="261.216" style="fill: #8c8c8c; stroke: #8c8c8c"/>
     <use xlink:href="#m415a4a98eb" x="134.38824" y="259.289462" style="fill: #8c8c8c; stroke: #8c8c8c"/>
     <use xlink:href="#m415a4a98eb" x="151.475321" y="247.708054" style="fill: #8c8c8c; stroke: #8c8c8c"/>
     <use xlink:href="#m415a4a98eb" x="168.562403" y="218.28135" style="fill: #8c8c8c; stroke: #8c8c8c"/>
     <use xlink:href="#m415a4a98eb" x="185.649484" y="177.595845" style="fill: #8c8c8c; stroke: #8c8c8c"/>
     <use xlink:href="#m415a4a98eb" x="202.736565" y="127.616371" style="fill: #8c8c8c; stroke: #8c8c8c"/>
     <use xlink:href="#m415a4a98eb" x="219.823647" y="72.700901" style="fill: #8c8c8c; stroke: #8c8c8c"/>
     <use xlink:href="#m415a4a98eb" x="236.910728" y="38.540033" style="fill: #8c8c8c; stroke: #8c8c8c"/>
     <use xlink:href="#m415a4a98eb" x="253.99781" y="32.659826" style="fill: #8c8c8c; stroke: #8c8c8c"/>
     <use xlink:href="#m415a4a98eb" x="271.084891" y="48.073685" style="fill: #8c8c8c; stroke: #8c8c8c"/>
     <use xlink:href="#m415a4a98eb" x="288.171972" y="52.048781" style="fill: #8c8c8c; stroke: #8c8c8c"/>
     <use xlink:href="#m415a4a98eb" x="305.259054" y="68.583268" style="fill: #8c8c8c; stroke: #8c8c8c"/>
     <use xlink:href="#m415a4a98eb" x="322.346135" y="93.11055" style="fill: #8c8c8c; stroke: #8c8c8c"/>
     <use xlink:href="#m415a4a98eb" x="339.433216" y="119.49349" style="fill: #8c8c8c; stroke: #8c8c8c"/>
     <use xlink:href="#m415a4a98eb" x="356.520298" y="131.219281" style="fill: #8c8c8c; stroke: #8c8c8c"/>
     <use xlink:href="#m415a4a98eb" x="373.607379" y="143.155252" style="fill: #8c8c8c; stroke: #8c8c8c"/>
     <use xlink:href="#m415a4a98eb" x="390.69446" y="221.804221" style="fill: #8c8c8c; stroke: #8c8c8c"/>
    </g>
   </g>
   <g id="line2d_24">
    <path d="M 66.039915 261.216 
L 83.126996 261.216 
L 100.214077 261.216 
L 117.301159 261.216 
L 134.38824 259.28946 
L 151.475321 250.114077 
L 168.562403 222.778263 
L 185.649484 181.620298 
L 202.736565 130.562907 
L 219.823647 73.720896 
L 236.910728 37.634197 
L 253.99781 33.166702 
L 271.084891 49.156112 
L 288.171972 53.271405 
L 305.259054 73.863176 
L 322.346135 97.932846 
L 339.433216 126.943725 
L 356.520298 136.936805 
L 373.607379 144.963354 
L 390.69446 222.62872 
" clip-path="url(#p11e8b8ab63)" style="fill: none; stroke-dasharray: 5.55,2.4; stroke-dashoffset: 0; stroke: #ccb974; stroke-width: 1.5"/>
    <defs>
     <path id="mf6f6274438" d="M 0 3 
C 0.795609 3 1.55874 2.683901 2.12132 2.12132 
C 2.683901 1.55874 3 0.795609 3 0 
C 3 -0.795609 2.683901 -1.55874 2.12132 -2.12132 
C 1.55874 -2.683901 0.795609 -3 0 -3 
C -0.795609 -3 -1.55874 -2.683901 -2.12132 -2.12132 
C -2.683901 -1.55874 -3 -0.795609 -3 0 
C -3 0.795609 -2.683901 1.55874 -2.12132 2.12132 
C -1.55874 2.683901 -0.795609 3 0 3 
z
" style="stroke: #ccb974"/>
    </defs>
    <g clip-path="url(#p11e8b8ab63)">
     <use xlink:href="#mf6f6274438" x="66.039915" y="261.216" style="fill: #ccb974; stroke: #ccb974"/>
     <use xlink:href="#mf6f6274438" x="83.126996" y="261.216" style="fill: #ccb974; stroke: #ccb974"/>
     <use xlink:href="#mf6f6274438" x="100.214077" y="261.216" style="fill: #ccb974; stroke: #ccb974"/>
     <use xlink:href="#mf6f6274438" x="117.301159" y="261.216" style="fill: #ccb974; stroke: #ccb974"/>
     <use xlink:href="#mf6f6274438" x="134.38824" y="259.28946" style="fill: #ccb974; stroke: #ccb974"/>
     <use xlink:href="#mf6f6274438" x="151.475321" y="250.114077" style="fill: #ccb974; stroke: #ccb974"/>
     <use xlink:href="#mf6f6274438" x="168.562403" y="222.778263" style="fill: #ccb974; stroke: #ccb974"/>
     <use xlink:href="#mf6f6274438" x="185.649484" y="181.620298" style="fill: #ccb974; stroke: #ccb974"/>
     <use xlink:href="#mf6f6274438" x="202.736565" y="130.562907" style="fill: #ccb974; stroke: #ccb974"/>
     <use xlink:href="#mf6f6274438" x="219.823647" y="73.720896" style="fill: #ccb974; stroke: #ccb974"/>
     <use xlink:href="#mf6f6274438" x="236.910728" y="37.634197" style="fill: #ccb974; stroke: #ccb974"/>
     <use xlink:href="#mf6f6274438" x="253.99781" y="33.166702" style="fill: #ccb974; stroke: #ccb974"/>
     <use xlink:href="#mf6f6274438" x="271.084891" y="49.156112" style="fill: #ccb974; stroke: #ccb974"/>
     <use xlink:href="#mf6f6274438" x="288.171972" y="53.271405" style="fill: #ccb974; stroke: #ccb974"/>
     <use xlink:href="#mf6f6274438" x="305.259054" y="73.863176" style="fill: #ccb974; stroke: #ccb974"/>
     <use xlink:href="#mf6f6274438" x="322.346135" y="97.932846" style="fill: #ccb974; stroke: #ccb974"/>
     <use xlink:href="#mf6f6274438" x="339.433216" y="126.943725" style="fill: #ccb974; stroke: #ccb974"/>
     <use xlink:href="#mf6f6274438" x="356.520298" y="136.936805" style="fill: #ccb974; stroke: #ccb974"/>
     <use xlink:href="#mf6f6274438" x="373.607379" y="144.963354" style="fill: #ccb974; stroke: #ccb974"/>
     <use xlink:href="#mf6f6274438" x="390.69446" y="222.62872" style="fill: #ccb974; stroke: #ccb974"/>
    </g>
   </g>
   <g id="line2d_25">
    <path d="M 66.039915 261.216 
L 83.126996 261.216 
L 100.214077 261.216 
L 117.301159 261.216 
L 134.38824 259.289467 
L 151.475321 250.392911 
L 168.562403 222.982127 
L 185.649484 180.980666 
L 202.736565 129.790819 
L 219.823647 73.052076 
L 236.910728 37.622982 
L 253.99781 33.041222 
L 271.084891 48.086251 
L 288.171972 53.786422 
L 305.259054 71.740805 
L 322.346135 97.016715 
L 339.433216 127.411164 
L 356.520298 137.23661 
L 373.607379 145.055064 
L 390.69446 220.981882 
" clip-path="url(#p11e8b8ab63)" style="fill: none; stroke-dasharray: 5.55,2.4; stroke-dashoffset: 0; stroke: #64b5cd; stroke-width: 1.5"/>
    <defs>
     <path id="m9e7f4c6022" d="M 0 3 
C 0.795609 3 1.55874 2.683901 2.12132 2.12132 
C 2.683901 1.55874 3 0.795609 3 0 
C 3 -0.795609 2.683901 -1.55874 2.12132 -2.12132 
C 1.55874 -2.683901 0.795609 -3 0 -3 
C -0.795609 -3 -1.55874 -2.683901 -2.12132 -2.12132 
C -2.683901 -1.55874 -3 -0.795609 -3 0 
C -3 0.795609 -2.683901 1.55874 -2.12132 2.12132 
C -1.55874 2.683901 -0.795609 3 0 3 
z
" style="stroke: #64b5cd"/>
    </defs>
    <g clip-path="url(#p11e8b8ab63)">
     <use xlink:href="#m9e7f4c6022" x="66.039915" y="261.216" style="fill: #64b5cd; stroke: #64b5cd"/>
     <use xlink:href="#m9e7f4c6022" x="83.126996" y="261.216" style="fill: #64b5cd; stroke: #64b5cd"/>
     <use xlink:href="#m9e7f4c6022" x="100.214077" y="261.216" style="fill: #64b5cd; stroke: #64b5cd"/>
     <use xlink:href="#m9e7f4c6022" x="117.301159" y="261.216" style="fill: #64b5cd; stroke: #64b5cd"/>
     <use xlink:href="#m9e7f4c6022" x="134.38824" y="259.289467" style="fill: #64b5cd; stroke: #64b5cd"/>
     <use xlink:href="#m9e7f4c6022" x="151.475321" y="250.392911" style="fill: #64b5cd; stroke: #64b5cd"/>
     <use xlink:href="#m9e7f4c6022" x="168.562403" y="222.982127" style="fill: #64b5cd; stroke: #64b5cd"/>
     <use xlink:href="#m9e7f4c6022" x="185.649484" y="180.980666" style="fill: #64b5cd; stroke: #64b5cd"/>
     <use xlink:href="#m9e7f4c6022" x="202.736565" y="129.790819" style="fill: #64b5cd; stroke: #64b5cd"/>
     <use xlink:href="#m9e7f4c6022" x="219.823647" y="73.052076" style="fill: #64b5cd; stroke: #64b5cd"/>
     <use xlink:href="#m9e7f4c6022" x="236.910728" y="37.622982" style="fill: #64b5cd; stroke: #64b5cd"/>
     <use xlink:href="#m9e7f4c6022" x="253.99781" y="33.041222" style="fill: #64b5cd; stroke: #64b5cd"/>
     <use xlink:href="#m9e7f4c6022" x="271.084891" y="48.086251" style="fill: #64b5cd; stroke: #64b5cd"/>
     <use xlink:href="#m9e7f4c6022" x="288.171972" y="53.786422" style="fill: #64b5cd; stroke: #64b5cd"/>
     <use xlink:href="#m9e7f4c6022" x="305.259054" y="71.740805" style="fill: #64b5cd; stroke: #64b5cd"/>
     <use xlink:href="#m9e7f4c6022" x="322.346135" y="97.016715" style="fill: #64b5cd; stroke: #64b5cd"/>
     <use xlink:href="#m9e7f4c6022" x="339.433216" y="127.411164" style="fill: #64b5cd; stroke: #64b5cd"/>
     <use xlink:href="#m9e7f4c6022" x="356.520298" y="137.23661" style="fill: #64b5cd; stroke: #64b5cd"/>
     <use xlink:href="#m9e7f4c6022" x="373.607379" y="145.055064" style="fill: #64b5cd; stroke: #64b5cd"/>
     <use xlink:href="#m9e7f4c6022" x="390.69446" y="220.981882" style="fill: #64b5cd; stroke: #64b5cd"/>
    </g>
   </g>
   <g id="line2d_26">
    <path d="M 49.807188 8.643686 
L 406.927188 8.643686 
" clip-path="url(#p11e8b8ab63)" style="fill: none; stroke: #4c72b0; stroke-width: 1.5; stroke-linecap: round"/>
   </g>
   <g id="patch_3">
    <path d="M 49.807188 273.312 
L 49.807188 7.2 
" style="fill: none; stroke: #ffffff; stroke-width: 1.25; stroke-linejoin: miter; stroke-linecap: square"/>
   </g>
   <g id="patch_4">
    <path d="M 406.927188 273.312 
L 406.927188 7.2 
" style="fill: none; stroke: #ffffff; stroke-width: 1.25; stroke-linejoin: miter; stroke-linecap: square"/>
   </g>
   <g id="patch_5">
    <path d="M 49.807188 273.312 
L 406.927188 273.312 
" style="fill: none; stroke: #ffffff; stroke-width: 1.25; stroke-linejoin: miter; stroke-linecap: square"/>
   </g>
   <g id="patch_6">
    <path d="M 49.807188 7.2 
L 406.927188 7.2 
" style="fill: none; stroke: #ffffff; stroke-width: 1.25; stroke-linejoin: miter; stroke-linecap: square"/>
   </g>
   <g id="legend_1">
    <g id="patch_7">
     <path d="M 57.507188 177.459375 
L 136.282656 177.459375 
Q 138.482656 177.459375 138.482656 175.259375 
L 138.482656 14.9 
Q 138.482656 12.7 136.282656 12.7 
L 57.507188 12.7 
Q 55.307188 12.7 55.307188 14.9 
L 55.307188 175.259375 
Q 55.307188 177.459375 57.507188 177.459375 
z
" style="fill: #eaeaf2; opacity: 0.8; stroke: #cccccc; stroke-linejoin: miter"/>
    </g>
    <g id="line2d_27">
     <path d="M 59.707188 21.608281 
L 70.707188 21.608281 
L 81.707188 21.608281 
" style="fill: none; stroke-dasharray: 5.55,2.4; stroke-dashoffset: 0; stroke: #4c72b0; stroke-width: 1.5"/>
     <g>
      <use xlink:href="#m9ac6048539" x="70.707188" y="21.608281" style="fill: #4c72b0; stroke: #4c72b0"/>
     </g>
    </g>
    <g id="text_18">
     <!-- k = 1 -->
     <g style="fill: #262626" transform="translate(90.507188 25.458281) scale(0.11 -0.11)">
      <defs>
       <path id="DejaVuSans-6b" d="M 581 4863 
L 1159 4863 
L 1159 1991 
L 2875 3500 
L 3609 3500 
L 1753 1863 
L 3688 0 
L 2938 0 
L 1159 1709 
L 1159 0 
L 581 0 
L 581 4863 
z
" transform="scale(0.015625)"/>
       <path id="DejaVuSans-3d" d="M 678 2906 
L 4684 2906 
L 4684 2381 
L 678 2381 
L 678 2906 
z
M 678 1631 
L 4684 1631 
L 4684 1100 
L 678 1100 
L 678 1631 
z
" transform="scale(0.015625)"/>
      </defs>
      <use xlink:href="#DejaVuSans-6b"/>
      <use xlink:href="#DejaVuSans-20" x="57.910156"/>
      <use xlink:href="#DejaVuSans-3d" x="89.697266"/>
      <use xlink:href="#DejaVuSans-20" x="173.486328"/>
      <use xlink:href="#DejaVuSans-31" x="205.273438"/>
     </g>
    </g>
    <g id="line2d_28">
     <path d="M 59.707188 37.754219 
L 70.707188 37.754219 
L 81.707188 37.754219 
" style="fill: none; stroke-dasharray: 5.55,2.4; stroke-dashoffset: 0; stroke: #dd8452; stroke-width: 1.5"/>
     <g>
      <use xlink:href="#ma160644fce" x="70.707188" y="37.754219" style="fill: #dd8452; stroke: #dd8452"/>
     </g>
    </g>
    <g id="text_19">
     <!-- k = 2 -->
     <g style="fill: #262626" transform="translate(90.507188 41.604219) scale(0.11 -0.11)">
      <use xlink:href="#DejaVuSans-6b"/>
      <use xlink:href="#DejaVuSans-20" x="57.910156"/>
      <use xlink:href="#DejaVuSans-3d" x="89.697266"/>
      <use xlink:href="#DejaVuSans-20" x="173.486328"/>
      <use xlink:href="#DejaVuSans-32" x="205.273438"/>
     </g>
    </g>
    <g id="line2d_29">
     <path d="M 59.707188 53.900156 
L 70.707188 53.900156 
L 81.707188 53.900156 
" style="fill: none; stroke-dasharray: 5.55,2.4; stroke-dashoffset: 0; stroke: #55a868; stroke-width: 1.5"/>
     <g>
      <use xlink:href="#m59fbbc4490" x="70.707188" y="53.900156" style="fill: #55a868; stroke: #55a868"/>
     </g>
    </g>
    <g id="text_20">
     <!-- k = 4 -->
     <g style="fill: #262626" transform="translate(90.507188 57.750156) scale(0.11 -0.11)">
      <use xlink:href="#DejaVuSans-6b"/>
      <use xlink:href="#DejaVuSans-20" x="57.910156"/>
      <use xlink:href="#DejaVuSans-3d" x="89.697266"/>
      <use xlink:href="#DejaVuSans-20" x="173.486328"/>
      <use xlink:href="#DejaVuSans-34" x="205.273438"/>
     </g>
    </g>
    <g id="line2d_30">
     <path d="M 59.707188 70.046094 
L 70.707188 70.046094 
L 81.707188 70.046094 
" style="fill: none; stroke-dasharray: 5.55,2.4; stroke-dashoffset: 0; stroke: #c44e52; stroke-width: 1.5"/>
     <g>
      <use xlink:href="#m4ffc0fbfec" x="70.707188" y="70.046094" style="fill: #c44e52; stroke: #c44e52"/>
     </g>
    </g>
    <g id="text_21">
     <!-- k = 6 -->
     <g style="fill: #262626" transform="translate(90.507188 73.896094) scale(0.11 -0.11)">
      <use xlink:href="#DejaVuSans-6b"/>
      <use xlink:href="#DejaVuSans-20" x="57.910156"/>
      <use xlink:href="#DejaVuSans-3d" x="89.697266"/>
      <use xlink:href="#DejaVuSans-20" x="173.486328"/>
      <use xlink:href="#DejaVuSans-36" x="205.273438"/>
     </g>
    </g>
    <g id="line2d_31">
     <path d="M 59.707188 86.192031 
L 70.707188 86.192031 
L 81.707188 86.192031 
" style="fill: none; stroke-dasharray: 5.55,2.4; stroke-dashoffset: 0; stroke: #8172b3; stroke-width: 1.5"/>
     <g>
      <use xlink:href="#mdca390bb7c" x="70.707188" y="86.192031" style="fill: #8172b3; stroke: #8172b3"/>
     </g>
    </g>
    <g id="text_22">
     <!-- k = 10 -->
     <g style="fill: #262626" transform="translate(90.507188 90.042031) scale(0.11 -0.11)">
      <use xlink:href="#DejaVuSans-6b"/>
      <use xlink:href="#DejaVuSans-20" x="57.910156"/>
      <use xlink:href="#DejaVuSans-3d" x="89.697266"/>
      <use xlink:href="#DejaVuSans-20" x="173.486328"/>
      <use xlink:href="#DejaVuSans-31" x="205.273438"/>
      <use xlink:href="#DejaVuSans-30" x="268.896484"/>
     </g>
    </g>
    <g id="line2d_32">
     <path d="M 59.707188 102.337969 
L 70.707188 102.337969 
L 81.707188 102.337969 
" style="fill: none; stroke-dasharray: 5.55,2.4; stroke-dashoffset: 0; stroke: #937860; stroke-width: 1.5"/>
     <g>
      <use xlink:href="#m72dabf7184" x="70.707188" y="102.337969" style="fill: #937860; stroke: #937860"/>
     </g>
    </g>
    <g id="text_23">
     <!-- k = 20 -->
     <g style="fill: #262626" transform="translate(90.507188 106.187969) scale(0.11 -0.11)">
      <use xlink:href="#DejaVuSans-6b"/>
      <use xlink:href="#DejaVuSans-20" x="57.910156"/>
      <use xlink:href="#DejaVuSans-3d" x="89.697266"/>
      <use xlink:href="#DejaVuSans-20" x="173.486328"/>
      <use xlink:href="#DejaVuSans-32" x="205.273438"/>
      <use xlink:href="#DejaVuSans-30" x="268.896484"/>
     </g>
    </g>
    <g id="line2d_33">
     <path d="M 59.707188 118.483906 
L 70.707188 118.483906 
L 81.707188 118.483906 
" style="fill: none; stroke-dasharray: 5.55,2.4; stroke-dashoffset: 0; stroke: #da8bc3; stroke-width: 1.5"/>
     <g>
      <use xlink:href="#m86c39f13c5" x="70.707188" y="118.483906" style="fill: #da8bc3; stroke: #da8bc3"/>
     </g>
    </g>
    <g id="text_24">
     <!-- k = 100 -->
     <g style="fill: #262626" transform="translate(90.507188 122.333906) scale(0.11 -0.11)">
      <use xlink:href="#DejaVuSans-6b"/>
      <use xlink:href="#DejaVuSans-20" x="57.910156"/>
      <use xlink:href="#DejaVuSans-3d" x="89.697266"/>
      <use xlink:href="#DejaVuSans-20" x="173.486328"/>
      <use xlink:href="#DejaVuSans-31" x="205.273438"/>
      <use xlink:href="#DejaVuSans-30" x="268.896484"/>
      <use xlink:href="#DejaVuSans-30" x="332.519531"/>
     </g>
    </g>
    <g id="line2d_34">
     <path d="M 59.707188 134.629844 
L 70.707188 134.629844 
L 81.707188 134.629844 
" style="fill: none; stroke-dasharray: 5.55,2.4; stroke-dashoffset: 0; stroke: #8c8c8c; stroke-width: 1.5"/>
     <g>
      <use xlink:href="#m415a4a98eb" x="70.707188" y="134.629844" style="fill: #8c8c8c; stroke: #8c8c8c"/>
     </g>
    </g>
    <g id="text_25">
     <!-- k = 200 -->
     <g style="fill: #262626" transform="translate(90.507188 138.479844) scale(0.11 -0.11)">
      <use xlink:href="#DejaVuSans-6b"/>
      <use xlink:href="#DejaVuSans-20" x="57.910156"/>
      <use xlink:href="#DejaVuSans-3d" x="89.697266"/>
      <use xlink:href="#DejaVuSans-20" x="173.486328"/>
      <use xlink:href="#DejaVuSans-32" x="205.273438"/>
      <use xlink:href="#DejaVuSans-30" x="268.896484"/>
      <use xlink:href="#DejaVuSans-30" x="332.519531"/>
     </g>
    </g>
    <g id="line2d_35">
     <path d="M 59.707188 150.775781 
L 70.707188 150.775781 
L 81.707188 150.775781 
" style="fill: none; stroke-dasharray: 5.55,2.4; stroke-dashoffset: 0; stroke: #ccb974; stroke-width: 1.5"/>
     <g>
      <use xlink:href="#mf6f6274438" x="70.707188" y="150.775781" style="fill: #ccb974; stroke: #ccb974"/>
     </g>
    </g>
    <g id="text_26">
     <!-- k = 300 -->
     <g style="fill: #262626" transform="translate(90.507188 154.625781) scale(0.11 -0.11)">
      <defs>
       <path id="DejaVuSans-33" d="M 2597 2516 
Q 3050 2419 3304 2112 
Q 3559 1806 3559 1356 
Q 3559 666 3084 287 
Q 2609 -91 1734 -91 
Q 1441 -91 1130 -33 
Q 819 25 488 141 
L 488 750 
Q 750 597 1062 519 
Q 1375 441 1716 441 
Q 2309 441 2620 675 
Q 2931 909 2931 1356 
Q 2931 1769 2642 2001 
Q 2353 2234 1838 2234 
L 1294 2234 
L 1294 2753 
L 1863 2753 
Q 2328 2753 2575 2939 
Q 2822 3125 2822 3475 
Q 2822 3834 2567 4026 
Q 2313 4219 1838 4219 
Q 1578 4219 1281 4162 
Q 984 4106 628 3988 
L 628 4550 
Q 988 4650 1302 4700 
Q 1616 4750 1894 4750 
Q 2613 4750 3031 4423 
Q 3450 4097 3450 3541 
Q 3450 3153 3228 2886 
Q 3006 2619 2597 2516 
z
" transform="scale(0.015625)"/>
      </defs>
      <use xlink:href="#DejaVuSans-6b"/>
      <use xlink:href="#DejaVuSans-20" x="57.910156"/>
      <use xlink:href="#DejaVuSans-3d" x="89.697266"/>
      <use xlink:href="#DejaVuSans-20" x="173.486328"/>
      <use xlink:href="#DejaVuSans-33" x="205.273438"/>
      <use xlink:href="#DejaVuSans-30" x="268.896484"/>
      <use xlink:href="#DejaVuSans-30" x="332.519531"/>
     </g>
    </g>
    <g id="line2d_36">
     <path d="M 59.707188 166.921719 
L 70.707188 166.921719 
L 81.707188 166.921719 
" style="fill: none; stroke-dasharray: 5.55,2.4; stroke-dashoffset: 0; stroke: #64b5cd; stroke-width: 1.5"/>
     <g>
      <use xlink:href="#m9e7f4c6022" x="70.707188" y="166.921719" style="fill: #64b5cd; stroke: #64b5cd"/>
     </g>
    </g>
    <g id="text_27">
     <!-- k = 792 -->
     <g style="fill: #262626" transform="translate(90.507188 170.771719) scale(0.11 -0.11)">
      <use xlink:href="#DejaVuSans-6b"/>
      <use xlink:href="#DejaVuSans-20" x="57.910156"/>
      <use xlink:href="#DejaVuSans-3d" x="89.697266"/>
      <use xlink:href="#DejaVuSans-20" x="173.486328"/>
      <use xlink:href="#DejaVuSans-37" x="205.273438"/>
      <use xlink:href="#DejaVuSans-39" x="268.896484"/>
      <use xlink:href="#DejaVuSans-32" x="332.519531"/>
     </g>
    </g>
   </g>
  </g>
 </g>
 <defs>
  <clipPath id="p11e8b8ab63">
   <rect x="49.807188" y="7.2" width="357.12" height="266.112"/>
  </clipPath>
 </defs>
</svg>
