<?xml version="1.0" encoding="utf-8" standalone="no"?>
<!DOCTYPE svg PUBLIC "-//W3C//DTD SVG 1.1//EN"
  "http://www.w3.org/Graphics/SVG/1.1/DTD/svg11.dtd">
<svg xmlns:xlink="http://www.w3.org/1999/xlink" width="421.125937pt" height="316.271687pt" viewBox="0 0 421.125937 316.271687" xmlns="http://www.w3.org/2000/svg" version="1.1">
 <metadata>
  <rdf:RDF xmlns:dc="http://purl.org/dc/elements/1.1/" xmlns:cc="http://creativecommons.org/ns#" xmlns:rdf="http://www.w3.org/1999/02/22-rdf-syntax-ns#">
   <cc:Work>
    <dc:type rdf:resource="http://purl.org/dc/dcmitype/StillImage"/>
    <dc:date>2023-10-29T19:27:02.018707</dc:date>
    <dc:format>image/svg+xml</dc:format>
    <dc:creator>
     <cc:Agent>
      <dc:title>Matplotlib v3.7.1, https://matplotlib.org/</dc:title>
     </cc:Agent>
    </dc:creator>
   </cc:Work>
  </rdf:RDF>
 </metadata>
 <defs>
  <style type="text/css">*{stroke-linejoin: round; stroke-linecap: butt}</style>
 </defs>
 <g id="figure_1">
  <g id="patch_1">
   <path d="M 0 316.271687 
L 421.125937 316.271687 
L 421.125937 0 
L 0 0 
z
" style="fill: #ffffff"/>
  </g>
  <g id="axes_1">
   <g id="patch_2">
    <path d="M 56.805938 273.312 
L 413.925938 273.312 
L 413.925938 7.2 
L 56.805938 7.2 
z
" style="fill: #eaeaf2"/>
   </g>
   <g id="matplotlib.axis_1">
    <g id="xtick_1">
     <g id="line2d_1">
      <path d="M 73.038665 273.312 
L 73.038665 7.2 
" clip-path="url(#p5927b9debd)" style="fill: none; stroke: #ffffff; stroke-linecap: round"/>
     </g>
     <g id="text_1">
      <!-- −1.00 -->
      <g style="fill: #262626" transform="translate(56.183743 291.170281) scale(0.11 -0.11)">
       <defs>
        <path id="DejaVuSans-2212" d="M 678 2272 
L 4684 2272 
L 4684 1741 
L 678 1741 
L 678 2272 
z
" transform="scale(0.015625)"/>
        <path id="DejaVuSans-31" d="M 794 531 
L 1825 531 
L 1825 4091 
L 703 3866 
L 703 4441 
L 1819 4666 
L 2450 4666 
L 2450 531 
L 3481 531 
L 3481 0 
L 794 0 
L 794 531 
z
" transform="scale(0.015625)"/>
        <path id="DejaVuSans-2e" d="M 684 794 
L 1344 794 
L 1344 0 
L 684 0 
L 684 794 
z
" transform="scale(0.015625)"/>
        <path id="DejaVuSans-30" d="M 2034 4250 
Q 1547 4250 1301 3770 
Q 1056 3291 1056 2328 
Q 1056 1369 1301 889 
Q 1547 409 2034 409 
Q 2525 409 2770 889 
Q 3016 1369 3016 2328 
Q 3016 3291 2770 3770 
Q 2525 4250 2034 4250 
z
M 2034 4750 
Q 2819 4750 3233 4129 
Q 3647 3509 3647 2328 
Q 3647 1150 3233 529 
Q 2819 -91 2034 -91 
Q 1250 -91 836 529 
Q 422 1150 422 2328 
Q 422 3509 836 4129 
Q 1250 4750 2034 4750 
z
" transform="scale(0.015625)"/>
       </defs>
       <use xlink:href="#DejaVuSans-2212"/>
       <use xlink:href="#DejaVuSans-31" x="83.789062"/>
       <use xlink:href="#DejaVuSans-2e" x="147.412109"/>
       <use xlink:href="#DejaVuSans-30" x="179.199219"/>
       <use xlink:href="#DejaVuSans-30" x="242.822266"/>
      </g>
     </g>
    </g>
    <g id="xtick_2">
     <g id="line2d_2">
      <path d="M 113.620483 273.312 
L 113.620483 7.2 
" clip-path="url(#p5927b9debd)" style="fill: none; stroke: #ffffff; stroke-linecap: round"/>
     </g>
     <g id="text_2">
      <!-- −0.75 -->
      <g style="fill: #262626" transform="translate(96.765561 291.170281) scale(0.11 -0.11)">
       <defs>
        <path id="DejaVuSans-37" d="M 525 4666 
L 3525 4666 
L 3525 4397 
L 1831 0 
L 1172 0 
L 2766 4134 
L 525 4134 
L 525 4666 
z
" transform="scale(0.015625)"/>
        <path id="DejaVuSans-35" d="M 691 4666 
L 3169 4666 
L 3169 4134 
L 1269 4134 
L 1269 2991 
Q 1406 3038 1543 3061 
Q 1681 3084 1819 3084 
Q 2600 3084 3056 2656 
Q 3513 2228 3513 1497 
Q 3513 744 3044 326 
Q 2575 -91 1722 -91 
Q 1428 -91 1123 -41 
Q 819 9 494 109 
L 494 744 
Q 775 591 1075 516 
Q 1375 441 1709 441 
Q 2250 441 2565 725 
Q 2881 1009 2881 1497 
Q 2881 1984 2565 2268 
Q 2250 2553 1709 2553 
Q 1456 2553 1204 2497 
Q 953 2441 691 2322 
L 691 4666 
z
" transform="scale(0.015625)"/>
       </defs>
       <use xlink:href="#DejaVuSans-2212"/>
       <use xlink:href="#DejaVuSans-30" x="83.789062"/>
       <use xlink:href="#DejaVuSans-2e" x="147.412109"/>
       <use xlink:href="#DejaVuSans-37" x="179.199219"/>
       <use xlink:href="#DejaVuSans-35" x="242.822266"/>
      </g>
     </g>
    </g>
    <g id="xtick_3">
     <g id="line2d_3">
      <path d="M 154.202301 273.312 
L 154.202301 7.2 
" clip-path="url(#p5927b9debd)" style="fill: none; stroke: #ffffff; stroke-linecap: round"/>
     </g>
     <g id="text_3">
      <!-- −0.50 -->
      <g style="fill: #262626" transform="translate(137.347379 291.170281) scale(0.11 -0.11)">
       <use xlink:href="#DejaVuSans-2212"/>
       <use xlink:href="#DejaVuSans-30" x="83.789062"/>
       <use xlink:href="#DejaVuSans-2e" x="147.412109"/>
       <use xlink:href="#DejaVuSans-35" x="179.199219"/>
       <use xlink:href="#DejaVuSans-30" x="242.822266"/>
      </g>
     </g>
    </g>
    <g id="xtick_4">
     <g id="line2d_4">
      <path d="M 194.784119 273.312 
L 194.784119 7.2 
" clip-path="url(#p5927b9debd)" style="fill: none; stroke: #ffffff; stroke-linecap: round"/>
     </g>
     <g id="text_4">
      <!-- −0.25 -->
      <g style="fill: #262626" transform="translate(177.929197 291.170281) scale(0.11 -0.11)">
       <defs>
        <path id="DejaVuSans-32" d="M 1228 531 
L 3431 531 
L 3431 0 
L 469 0 
L 469 531 
Q 828 903 1448 1529 
Q 2069 2156 2228 2338 
Q 2531 2678 2651 2914 
Q 2772 3150 2772 3378 
Q 2772 3750 2511 3984 
Q 2250 4219 1831 4219 
Q 1534 4219 1204 4116 
Q 875 4013 500 3803 
L 500 4441 
Q 881 4594 1212 4672 
Q 1544 4750 1819 4750 
Q 2544 4750 2975 4387 
Q 3406 4025 3406 3419 
Q 3406 3131 3298 2873 
Q 3191 2616 2906 2266 
Q 2828 2175 2409 1742 
Q 1991 1309 1228 531 
z
" transform="scale(0.015625)"/>
       </defs>
       <use xlink:href="#DejaVuSans-2212"/>
       <use xlink:href="#DejaVuSans-30" x="83.789062"/>
       <use xlink:href="#DejaVuSans-2e" x="147.412109"/>
       <use xlink:href="#DejaVuSans-32" x="179.199219"/>
       <use xlink:href="#DejaVuSans-35" x="242.822266"/>
      </g>
     </g>
    </g>
    <g id="xtick_5">
     <g id="line2d_5">
      <path d="M 235.365938 273.312 
L 235.365938 7.2 
" clip-path="url(#p5927b9debd)" style="fill: none; stroke: #ffffff; stroke-linecap: round"/>
     </g>
     <g id="text_5">
      <!-- 0.00 -->
      <g style="fill: #262626" transform="translate(223.119844 291.170281) scale(0.11 -0.11)">
       <use xlink:href="#DejaVuSans-30"/>
       <use xlink:href="#DejaVuSans-2e" x="63.623047"/>
       <use xlink:href="#DejaVuSans-30" x="95.410156"/>
       <use xlink:href="#DejaVuSans-30" x="159.033203"/>
      </g>
     </g>
    </g>
    <g id="xtick_6">
     <g id="line2d_6">
      <path d="M 275.947756 273.312 
L 275.947756 7.2 
" clip-path="url(#p5927b9debd)" style="fill: none; stroke: #ffffff; stroke-linecap: round"/>
     </g>
     <g id="text_6">
      <!-- 0.25 -->
      <g style="fill: #262626" transform="translate(263.701662 291.170281) scale(0.11 -0.11)">
       <use xlink:href="#DejaVuSans-30"/>
       <use xlink:href="#DejaVuSans-2e" x="63.623047"/>
       <use xlink:href="#DejaVuSans-32" x="95.410156"/>
       <use xlink:href="#DejaVuSans-35" x="159.033203"/>
      </g>
     </g>
    </g>
    <g id="xtick_7">
     <g id="line2d_7">
      <path d="M 316.529574 273.312 
L 316.529574 7.2 
" clip-path="url(#p5927b9debd)" style="fill: none; stroke: #ffffff; stroke-linecap: round"/>
     </g>
     <g id="text_7">
      <!-- 0.50 -->
      <g style="fill: #262626" transform="translate(304.28348 291.170281) scale(0.11 -0.11)">
       <use xlink:href="#DejaVuSans-30"/>
       <use xlink:href="#DejaVuSans-2e" x="63.623047"/>
       <use xlink:href="#DejaVuSans-35" x="95.410156"/>
       <use xlink:href="#DejaVuSans-30" x="159.033203"/>
      </g>
     </g>
    </g>
    <g id="xtick_8">
     <g id="line2d_8">
      <path d="M 357.111392 273.312 
L 357.111392 7.2 
" clip-path="url(#p5927b9debd)" style="fill: none; stroke: #ffffff; stroke-linecap: round"/>
     </g>
     <g id="text_8">
      <!-- 0.75 -->
      <g style="fill: #262626" transform="translate(344.865298 291.170281) scale(0.11 -0.11)">
       <use xlink:href="#DejaVuSans-30"/>
       <use xlink:href="#DejaVuSans-2e" x="63.623047"/>
       <use xlink:href="#DejaVuSans-37" x="95.410156"/>
       <use xlink:href="#DejaVuSans-35" x="159.033203"/>
      </g>
     </g>
    </g>
    <g id="xtick_9">
     <g id="line2d_9">
      <path d="M 397.69321 273.312 
L 397.69321 7.2 
" clip-path="url(#p5927b9debd)" style="fill: none; stroke: #ffffff; stroke-linecap: round"/>
     </g>
     <g id="text_9">
      <!-- 1.00 -->
      <g style="fill: #262626" transform="translate(385.447116 291.170281) scale(0.11 -0.11)">
       <use xlink:href="#DejaVuSans-31"/>
       <use xlink:href="#DejaVuSans-2e" x="63.623047"/>
       <use xlink:href="#DejaVuSans-30" x="95.410156"/>
       <use xlink:href="#DejaVuSans-30" x="159.033203"/>
      </g>
     </g>
    </g>
    <g id="text_10">
     <!-- Umbral (adim.) -->
     <g style="fill: #262626" transform="translate(190.018125 306.576062) scale(0.12 -0.12)">
      <defs>
       <path id="DejaVuSans-55" d="M 556 4666 
L 1191 4666 
L 1191 1831 
Q 1191 1081 1462 751 
Q 1734 422 2344 422 
Q 2950 422 3222 751 
Q 3494 1081 3494 1831 
L 3494 4666 
L 4128 4666 
L 4128 1753 
Q 4128 841 3676 375 
Q 3225 -91 2344 -91 
Q 1459 -91 1007 375 
Q 556 841 556 1753 
L 556 4666 
z
" transform="scale(0.015625)"/>
       <path id="DejaVuSans-6d" d="M 3328 2828 
Q 3544 3216 3844 3400 
Q 4144 3584 4550 3584 
Q 5097 3584 5394 3201 
Q 5691 2819 5691 2113 
L 5691 0 
L 5113 0 
L 5113 2094 
Q 5113 2597 4934 2840 
Q 4756 3084 4391 3084 
Q 3944 3084 3684 2787 
Q 3425 2491 3425 1978 
L 3425 0 
L 2847 0 
L 2847 2094 
Q 2847 2600 2669 2842 
Q 2491 3084 2119 3084 
Q 1678 3084 1418 2786 
Q 1159 2488 1159 1978 
L 1159 0 
L 581 0 
L 581 3500 
L 1159 3500 
L 1159 2956 
Q 1356 3278 1631 3431 
Q 1906 3584 2284 3584 
Q 2666 3584 2933 3390 
Q 3200 3197 3328 2828 
z
" transform="scale(0.015625)"/>
       <path id="DejaVuSans-62" d="M 3116 1747 
Q 3116 2381 2855 2742 
Q 2594 3103 2138 3103 
Q 1681 3103 1420 2742 
Q 1159 2381 1159 1747 
Q 1159 1113 1420 752 
Q 1681 391 2138 391 
Q 2594 391 2855 752 
Q 3116 1113 3116 1747 
z
M 1159 2969 
Q 1341 3281 1617 3432 
Q 1894 3584 2278 3584 
Q 2916 3584 3314 3078 
Q 3713 2572 3713 1747 
Q 3713 922 3314 415 
Q 2916 -91 2278 -91 
Q 1894 -91 1617 61 
Q 1341 213 1159 525 
L 1159 0 
L 581 0 
L 581 4863 
L 1159 4863 
L 1159 2969 
z
" transform="scale(0.015625)"/>
       <path id="DejaVuSans-72" d="M 2631 2963 
Q 2534 3019 2420 3045 
Q 2306 3072 2169 3072 
Q 1681 3072 1420 2755 
Q 1159 2438 1159 1844 
L 1159 0 
L 581 0 
L 581 3500 
L 1159 3500 
L 1159 2956 
Q 1341 3275 1631 3429 
Q 1922 3584 2338 3584 
Q 2397 3584 2469 3576 
Q 2541 3569 2628 3553 
L 2631 2963 
z
" transform="scale(0.015625)"/>
       <path id="DejaVuSans-61" d="M 2194 1759 
Q 1497 1759 1228 1600 
Q 959 1441 959 1056 
Q 959 750 1161 570 
Q 1363 391 1709 391 
Q 2188 391 2477 730 
Q 2766 1069 2766 1631 
L 2766 1759 
L 2194 1759 
z
M 3341 1997 
L 3341 0 
L 2766 0 
L 2766 531 
Q 2569 213 2275 61 
Q 1981 -91 1556 -91 
Q 1019 -91 701 211 
Q 384 513 384 1019 
Q 384 1609 779 1909 
Q 1175 2209 1959 2209 
L 2766 2209 
L 2766 2266 
Q 2766 2663 2505 2880 
Q 2244 3097 1772 3097 
Q 1472 3097 1187 3025 
Q 903 2953 641 2809 
L 641 3341 
Q 956 3463 1253 3523 
Q 1550 3584 1831 3584 
Q 2591 3584 2966 3190 
Q 3341 2797 3341 1997 
z
" transform="scale(0.015625)"/>
       <path id="DejaVuSans-6c" d="M 603 4863 
L 1178 4863 
L 1178 0 
L 603 0 
L 603 4863 
z
" transform="scale(0.015625)"/>
       <path id="DejaVuSans-20" transform="scale(0.015625)"/>
       <path id="DejaVuSans-28" d="M 1984 4856 
Q 1566 4138 1362 3434 
Q 1159 2731 1159 2009 
Q 1159 1288 1364 580 
Q 1569 -128 1984 -844 
L 1484 -844 
Q 1016 -109 783 600 
Q 550 1309 550 2009 
Q 550 2706 781 3412 
Q 1013 4119 1484 4856 
L 1984 4856 
z
" transform="scale(0.015625)"/>
       <path id="DejaVuSans-64" d="M 2906 2969 
L 2906 4863 
L 3481 4863 
L 3481 0 
L 2906 0 
L 2906 525 
Q 2725 213 2448 61 
Q 2172 -91 1784 -91 
Q 1150 -91 751 415 
Q 353 922 353 1747 
Q 353 2572 751 3078 
Q 1150 3584 1784 3584 
Q 2172 3584 2448 3432 
Q 2725 3281 2906 2969 
z
M 947 1747 
Q 947 1113 1208 752 
Q 1469 391 1925 391 
Q 2381 391 2643 752 
Q 2906 1113 2906 1747 
Q 2906 2381 2643 2742 
Q 2381 3103 1925 3103 
Q 1469 3103 1208 2742 
Q 947 2381 947 1747 
z
" transform="scale(0.015625)"/>
       <path id="DejaVuSans-69" d="M 603 3500 
L 1178 3500 
L 1178 0 
L 603 0 
L 603 3500 
z
M 603 4863 
L 1178 4863 
L 1178 4134 
L 603 4134 
L 603 4863 
z
" transform="scale(0.015625)"/>
       <path id="DejaVuSans-29" d="M 513 4856 
L 1013 4856 
Q 1481 4119 1714 3412 
Q 1947 2706 1947 2009 
Q 1947 1309 1714 600 
Q 1481 -109 1013 -844 
L 513 -844 
Q 928 -128 1133 580 
Q 1338 1288 1338 2009 
Q 1338 2731 1133 3434 
Q 928 4138 513 4856 
z
" transform="scale(0.015625)"/>
      </defs>
      <use xlink:href="#DejaVuSans-55"/>
      <use xlink:href="#DejaVuSans-6d" x="73.193359"/>
      <use xlink:href="#DejaVuSans-62" x="170.605469"/>
      <use xlink:href="#DejaVuSans-72" x="234.082031"/>
      <use xlink:href="#DejaVuSans-61" x="275.195312"/>
      <use xlink:href="#DejaVuSans-6c" x="336.474609"/>
      <use xlink:href="#DejaVuSans-20" x="364.257812"/>
      <use xlink:href="#DejaVuSans-28" x="396.044922"/>
      <use xlink:href="#DejaVuSans-61" x="435.058594"/>
      <use xlink:href="#DejaVuSans-64" x="496.337891"/>
      <use xlink:href="#DejaVuSans-69" x="559.814453"/>
      <use xlink:href="#DejaVuSans-6d" x="587.597656"/>
      <use xlink:href="#DejaVuSans-2e" x="685.009766"/>
      <use xlink:href="#DejaVuSans-29" x="716.796875"/>
     </g>
    </g>
   </g>
   <g id="matplotlib.axis_2">
    <g id="ytick_1">
     <g id="line2d_10">
      <path d="M 56.805938 265.818187 
L 413.925938 265.818187 
" clip-path="url(#p5927b9debd)" style="fill: none; stroke: #ffffff; stroke-linecap: round"/>
     </g>
     <g id="text_11">
      <!-- 0.00 -->
      <g style="fill: #262626" transform="translate(22.81375 269.997327) scale(0.11 -0.11)">
       <use xlink:href="#DejaVuSans-30"/>
       <use xlink:href="#DejaVuSans-2e" x="63.623047"/>
       <use xlink:href="#DejaVuSans-30" x="95.410156"/>
       <use xlink:href="#DejaVuSans-30" x="159.033203"/>
      </g>
     </g>
    </g>
    <g id="ytick_2">
     <g id="line2d_11">
      <path d="M 56.805938 220.94655 
L 413.925938 220.94655 
" clip-path="url(#p5927b9debd)" style="fill: none; stroke: #ffffff; stroke-linecap: round"/>
     </g>
     <g id="text_12">
      <!-- 0.02 -->
      <g style="fill: #262626" transform="translate(22.81375 225.125691) scale(0.11 -0.11)">
       <use xlink:href="#DejaVuSans-30"/>
       <use xlink:href="#DejaVuSans-2e" x="63.623047"/>
       <use xlink:href="#DejaVuSans-30" x="95.410156"/>
       <use xlink:href="#DejaVuSans-32" x="159.033203"/>
      </g>
     </g>
    </g>
    <g id="ytick_3">
     <g id="line2d_12">
      <path d="M 56.805938 176.074913 
L 413.925938 176.074913 
" clip-path="url(#p5927b9debd)" style="fill: none; stroke: #ffffff; stroke-linecap: round"/>
     </g>
     <g id="text_13">
      <!-- 0.04 -->
      <g style="fill: #262626" transform="translate(22.81375 180.254054) scale(0.11 -0.11)">
       <defs>
        <path id="DejaVuSans-34" d="M 2419 4116 
L 825 1625 
L 2419 1625 
L 2419 4116 
z
M 2253 4666 
L 3047 4666 
L 3047 1625 
L 3713 1625 
L 3713 1100 
L 3047 1100 
L 3047 0 
L 2419 0 
L 2419 1100 
L 313 1100 
L 313 1709 
L 2253 4666 
z
" transform="scale(0.015625)"/>
       </defs>
       <use xlink:href="#DejaVuSans-30"/>
       <use xlink:href="#DejaVuSans-2e" x="63.623047"/>
       <use xlink:href="#DejaVuSans-30" x="95.410156"/>
       <use xlink:href="#DejaVuSans-34" x="159.033203"/>
      </g>
     </g>
    </g>
    <g id="ytick_4">
     <g id="line2d_13">
      <path d="M 56.805938 131.203277 
L 413.925938 131.203277 
" clip-path="url(#p5927b9debd)" style="fill: none; stroke: #ffffff; stroke-linecap: round"/>
     </g>
     <g id="text_14">
      <!-- 0.06 -->
      <g style="fill: #262626" transform="translate(22.81375 135.382417) scale(0.11 -0.11)">
       <defs>
        <path id="DejaVuSans-36" d="M 2113 2584 
Q 1688 2584 1439 2293 
Q 1191 2003 1191 1497 
Q 1191 994 1439 701 
Q 1688 409 2113 409 
Q 2538 409 2786 701 
Q 3034 994 3034 1497 
Q 3034 2003 2786 2293 
Q 2538 2584 2113 2584 
z
M 3366 4563 
L 3366 3988 
Q 3128 4100 2886 4159 
Q 2644 4219 2406 4219 
Q 1781 4219 1451 3797 
Q 1122 3375 1075 2522 
Q 1259 2794 1537 2939 
Q 1816 3084 2150 3084 
Q 2853 3084 3261 2657 
Q 3669 2231 3669 1497 
Q 3669 778 3244 343 
Q 2819 -91 2113 -91 
Q 1303 -91 875 529 
Q 447 1150 447 2328 
Q 447 3434 972 4092 
Q 1497 4750 2381 4750 
Q 2619 4750 2861 4703 
Q 3103 4656 3366 4563 
z
" transform="scale(0.015625)"/>
       </defs>
       <use xlink:href="#DejaVuSans-30"/>
       <use xlink:href="#DejaVuSans-2e" x="63.623047"/>
       <use xlink:href="#DejaVuSans-30" x="95.410156"/>
       <use xlink:href="#DejaVuSans-36" x="159.033203"/>
      </g>
     </g>
    </g>
    <g id="ytick_5">
     <g id="line2d_14">
      <path d="M 56.805938 86.33164 
L 413.925938 86.33164 
" clip-path="url(#p5927b9debd)" style="fill: none; stroke: #ffffff; stroke-linecap: round"/>
     </g>
     <g id="text_15">
      <!-- 0.08 -->
      <g style="fill: #262626" transform="translate(22.81375 90.510781) scale(0.11 -0.11)">
       <defs>
        <path id="DejaVuSans-38" d="M 2034 2216 
Q 1584 2216 1326 1975 
Q 1069 1734 1069 1313 
Q 1069 891 1326 650 
Q 1584 409 2034 409 
Q 2484 409 2743 651 
Q 3003 894 3003 1313 
Q 3003 1734 2745 1975 
Q 2488 2216 2034 2216 
z
M 1403 2484 
Q 997 2584 770 2862 
Q 544 3141 544 3541 
Q 544 4100 942 4425 
Q 1341 4750 2034 4750 
Q 2731 4750 3128 4425 
Q 3525 4100 3525 3541 
Q 3525 3141 3298 2862 
Q 3072 2584 2669 2484 
Q 3125 2378 3379 2068 
Q 3634 1759 3634 1313 
Q 3634 634 3220 271 
Q 2806 -91 2034 -91 
Q 1263 -91 848 271 
Q 434 634 434 1313 
Q 434 1759 690 2068 
Q 947 2378 1403 2484 
z
M 1172 3481 
Q 1172 3119 1398 2916 
Q 1625 2713 2034 2713 
Q 2441 2713 2670 2916 
Q 2900 3119 2900 3481 
Q 2900 3844 2670 4047 
Q 2441 4250 2034 4250 
Q 1625 4250 1398 4047 
Q 1172 3844 1172 3481 
z
" transform="scale(0.015625)"/>
       </defs>
       <use xlink:href="#DejaVuSans-30"/>
       <use xlink:href="#DejaVuSans-2e" x="63.623047"/>
       <use xlink:href="#DejaVuSans-30" x="95.410156"/>
       <use xlink:href="#DejaVuSans-38" x="159.033203"/>
      </g>
     </g>
    </g>
    <g id="ytick_6">
     <g id="line2d_15">
      <path d="M 56.805938 41.460003 
L 413.925938 41.460003 
" clip-path="url(#p5927b9debd)" style="fill: none; stroke: #ffffff; stroke-linecap: round"/>
     </g>
     <g id="text_16">
      <!-- 0.10 -->
      <g style="fill: #262626" transform="translate(22.81375 45.639144) scale(0.11 -0.11)">
       <use xlink:href="#DejaVuSans-30"/>
       <use xlink:href="#DejaVuSans-2e" x="63.623047"/>
       <use xlink:href="#DejaVuSans-31" x="95.410156"/>
       <use xlink:href="#DejaVuSans-30" x="159.033203"/>
      </g>
     </g>
    </g>
    <g id="text_17">
     <!-- r de Pearson (mat. de ady. aplanadas) (adim.) -->
     <g style="fill: #262626" transform="translate(16.318125 277.965375) rotate(-90) scale(0.12 -0.12)">
      <defs>
       <path id="DejaVuSans-65" d="M 3597 1894 
L 3597 1613 
L 953 1613 
Q 991 1019 1311 708 
Q 1631 397 2203 397 
Q 2534 397 2845 478 
Q 3156 559 3463 722 
L 3463 178 
Q 3153 47 2828 -22 
Q 2503 -91 2169 -91 
Q 1331 -91 842 396 
Q 353 884 353 1716 
Q 353 2575 817 3079 
Q 1281 3584 2069 3584 
Q 2775 3584 3186 3129 
Q 3597 2675 3597 1894 
z
M 3022 2063 
Q 3016 2534 2758 2815 
Q 2500 3097 2075 3097 
Q 1594 3097 1305 2825 
Q 1016 2553 972 2059 
L 3022 2063 
z
" transform="scale(0.015625)"/>
       <path id="DejaVuSans-50" d="M 1259 4147 
L 1259 2394 
L 2053 2394 
Q 2494 2394 2734 2622 
Q 2975 2850 2975 3272 
Q 2975 3691 2734 3919 
Q 2494 4147 2053 4147 
L 1259 4147 
z
M 628 4666 
L 2053 4666 
Q 2838 4666 3239 4311 
Q 3641 3956 3641 3272 
Q 3641 2581 3239 2228 
Q 2838 1875 2053 1875 
L 1259 1875 
L 1259 0 
L 628 0 
L 628 4666 
z
" transform="scale(0.015625)"/>
       <path id="DejaVuSans-73" d="M 2834 3397 
L 2834 2853 
Q 2591 2978 2328 3040 
Q 2066 3103 1784 3103 
Q 1356 3103 1142 2972 
Q 928 2841 928 2578 
Q 928 2378 1081 2264 
Q 1234 2150 1697 2047 
L 1894 2003 
Q 2506 1872 2764 1633 
Q 3022 1394 3022 966 
Q 3022 478 2636 193 
Q 2250 -91 1575 -91 
Q 1294 -91 989 -36 
Q 684 19 347 128 
L 347 722 
Q 666 556 975 473 
Q 1284 391 1588 391 
Q 1994 391 2212 530 
Q 2431 669 2431 922 
Q 2431 1156 2273 1281 
Q 2116 1406 1581 1522 
L 1381 1569 
Q 847 1681 609 1914 
Q 372 2147 372 2553 
Q 372 3047 722 3315 
Q 1072 3584 1716 3584 
Q 2034 3584 2315 3537 
Q 2597 3491 2834 3397 
z
" transform="scale(0.015625)"/>
       <path id="DejaVuSans-6f" d="M 1959 3097 
Q 1497 3097 1228 2736 
Q 959 2375 959 1747 
Q 959 1119 1226 758 
Q 1494 397 1959 397 
Q 2419 397 2687 759 
Q 2956 1122 2956 1747 
Q 2956 2369 2687 2733 
Q 2419 3097 1959 3097 
z
M 1959 3584 
Q 2709 3584 3137 3096 
Q 3566 2609 3566 1747 
Q 3566 888 3137 398 
Q 2709 -91 1959 -91 
Q 1206 -91 779 398 
Q 353 888 353 1747 
Q 353 2609 779 3096 
Q 1206 3584 1959 3584 
z
" transform="scale(0.015625)"/>
       <path id="DejaVuSans-6e" d="M 3513 2113 
L 3513 0 
L 2938 0 
L 2938 2094 
Q 2938 2591 2744 2837 
Q 2550 3084 2163 3084 
Q 1697 3084 1428 2787 
Q 1159 2491 1159 1978 
L 1159 0 
L 581 0 
L 581 3500 
L 1159 3500 
L 1159 2956 
Q 1366 3272 1645 3428 
Q 1925 3584 2291 3584 
Q 2894 3584 3203 3211 
Q 3513 2838 3513 2113 
z
" transform="scale(0.015625)"/>
       <path id="DejaVuSans-74" d="M 1172 4494 
L 1172 3500 
L 2356 3500 
L 2356 3053 
L 1172 3053 
L 1172 1153 
Q 1172 725 1289 603 
Q 1406 481 1766 481 
L 2356 481 
L 2356 0 
L 1766 0 
Q 1100 0 847 248 
Q 594 497 594 1153 
L 594 3053 
L 172 3053 
L 172 3500 
L 594 3500 
L 594 4494 
L 1172 4494 
z
" transform="scale(0.015625)"/>
       <path id="DejaVuSans-79" d="M 2059 -325 
Q 1816 -950 1584 -1140 
Q 1353 -1331 966 -1331 
L 506 -1331 
L 506 -850 
L 844 -850 
Q 1081 -850 1212 -737 
Q 1344 -625 1503 -206 
L 1606 56 
L 191 3500 
L 800 3500 
L 1894 763 
L 2988 3500 
L 3597 3500 
L 2059 -325 
z
" transform="scale(0.015625)"/>
       <path id="DejaVuSans-70" d="M 1159 525 
L 1159 -1331 
L 581 -1331 
L 581 3500 
L 1159 3500 
L 1159 2969 
Q 1341 3281 1617 3432 
Q 1894 3584 2278 3584 
Q 2916 3584 3314 3078 
Q 3713 2572 3713 1747 
Q 3713 922 3314 415 
Q 2916 -91 2278 -91 
Q 1894 -91 1617 61 
Q 1341 213 1159 525 
z
M 3116 1747 
Q 3116 2381 2855 2742 
Q 2594 3103 2138 3103 
Q 1681 3103 1420 2742 
Q 1159 2381 1159 1747 
Q 1159 1113 1420 752 
Q 1681 391 2138 391 
Q 2594 391 2855 752 
Q 3116 1113 3116 1747 
z
" transform="scale(0.015625)"/>
      </defs>
      <use xlink:href="#DejaVuSans-72"/>
      <use xlink:href="#DejaVuSans-20" x="41.113281"/>
      <use xlink:href="#DejaVuSans-64" x="72.900391"/>
      <use xlink:href="#DejaVuSans-65" x="136.376953"/>
      <use xlink:href="#DejaVuSans-20" x="197.900391"/>
      <use xlink:href="#DejaVuSans-50" x="229.6875"/>
      <use xlink:href="#DejaVuSans-65" x="286.365234"/>
      <use xlink:href="#DejaVuSans-61" x="347.888672"/>
      <use xlink:href="#DejaVuSans-72" x="409.167969"/>
      <use xlink:href="#DejaVuSans-73" x="450.28125"/>
      <use xlink:href="#DejaVuSans-6f" x="502.380859"/>
      <use xlink:href="#DejaVuSans-6e" x="563.5625"/>
      <use xlink:href="#DejaVuSans-20" x="626.941406"/>
      <use xlink:href="#DejaVuSans-28" x="658.728516"/>
      <use xlink:href="#DejaVuSans-6d" x="697.742188"/>
      <use xlink:href="#DejaVuSans-61" x="795.154297"/>
      <use xlink:href="#DejaVuSans-74" x="856.433594"/>
      <use xlink:href="#DejaVuSans-2e" x="895.642578"/>
      <use xlink:href="#DejaVuSans-20" x="927.429688"/>
      <use xlink:href="#DejaVuSans-64" x="959.216797"/>
      <use xlink:href="#DejaVuSans-65" x="1022.693359"/>
      <use xlink:href="#DejaVuSans-20" x="1084.216797"/>
      <use xlink:href="#DejaVuSans-61" x="1116.003906"/>
      <use xlink:href="#DejaVuSans-64" x="1177.283203"/>
      <use xlink:href="#DejaVuSans-79" x="1240.759766"/>
      <use xlink:href="#DejaVuSans-2e" x="1285.689453"/>
      <use xlink:href="#DejaVuSans-20" x="1317.476562"/>
      <use xlink:href="#DejaVuSans-61" x="1349.263672"/>
      <use xlink:href="#DejaVuSans-70" x="1410.542969"/>
      <use xlink:href="#DejaVuSans-6c" x="1474.019531"/>
      <use xlink:href="#DejaVuSans-61" x="1501.802734"/>
      <use xlink:href="#DejaVuSans-6e" x="1563.082031"/>
      <use xlink:href="#DejaVuSans-61" x="1626.460938"/>
      <use xlink:href="#DejaVuSans-64" x="1687.740234"/>
      <use xlink:href="#DejaVuSans-61" x="1751.216797"/>
      <use xlink:href="#DejaVuSans-73" x="1812.496094"/>
      <use xlink:href="#DejaVuSans-29" x="1864.595703"/>
      <use xlink:href="#DejaVuSans-20" x="1903.609375"/>
      <use xlink:href="#DejaVuSans-28" x="1935.396484"/>
      <use xlink:href="#DejaVuSans-61" x="1974.410156"/>
      <use xlink:href="#DejaVuSans-64" x="2035.689453"/>
      <use xlink:href="#DejaVuSans-69" x="2099.166016"/>
      <use xlink:href="#DejaVuSans-6d" x="2126.949219"/>
      <use xlink:href="#DejaVuSans-2e" x="2224.361328"/>
      <use xlink:href="#DejaVuSans-29" x="2256.148438"/>
     </g>
    </g>
   </g>
   <g id="line2d_16">
    <path d="M 73.038665 248.559294 
L 90.125746 244.904577 
L 107.212827 244.904577 
L 124.299909 244.904577 
L 141.38699 244.904577 
L 158.474071 244.904577 
L 175.561153 244.904577 
L 192.648234 244.904577 
L 209.735315 244.904577 
L 226.822397 244.904577 
L 243.909478 244.904577 
L 260.99656 244.904577 
L 278.083641 244.904577 
L 295.170722 244.904577 
L 312.257804 244.904577 
L 329.344885 244.904577 
L 346.431966 244.904577 
L 363.519048 244.904577 
L 380.606129 244.904577 
L 397.69321 244.904577 
" clip-path="url(#p5927b9debd)" style="fill: none; stroke-dasharray: 5.55,2.4; stroke-dashoffset: 0; stroke: #4c72b0; stroke-width: 1.5"/>
    <defs>
     <path id="m79d293d9ce" d="M 0 3 
C 0.795609 3 1.55874 2.683901 2.12132 2.12132 
C 2.683901 1.55874 3 0.795609 3 0 
C 3 -0.795609 2.683901 -1.55874 2.12132 -2.12132 
C 1.55874 -2.683901 0.795609 -3 0 -3 
C -0.795609 -3 -1.55874 -2.683901 -2.12132 -2.12132 
C -2.683901 -1.55874 -3 -0.795609 -3 0 
C -3 0.795609 -2.683901 1.55874 -2.12132 2.12132 
C -1.55874 2.683901 -0.795609 3 0 3 
z
" style="stroke: #4c72b0"/>
    </defs>
    <g clip-path="url(#p5927b9debd)">
     <use xlink:href="#m79d293d9ce" x="73.038665" y="248.559294" style="fill: #4c72b0; stroke: #4c72b0"/>
     <use xlink:href="#m79d293d9ce" x="90.125746" y="244.904577" style="fill: #4c72b0; stroke: #4c72b0"/>
     <use xlink:href="#m79d293d9ce" x="107.212827" y="244.904577" style="fill: #4c72b0; stroke: #4c72b0"/>
     <use xlink:href="#m79d293d9ce" x="124.299909" y="244.904577" style="fill: #4c72b0; stroke: #4c72b0"/>
     <use xlink:href="#m79d293d9ce" x="141.38699" y="244.904577" style="fill: #4c72b0; stroke: #4c72b0"/>
     <use xlink:href="#m79d293d9ce" x="158.474071" y="244.904577" style="fill: #4c72b0; stroke: #4c72b0"/>
     <use xlink:href="#m79d293d9ce" x="175.561153" y="244.904577" style="fill: #4c72b0; stroke: #4c72b0"/>
     <use xlink:href="#m79d293d9ce" x="192.648234" y="244.904577" style="fill: #4c72b0; stroke: #4c72b0"/>
     <use xlink:href="#m79d293d9ce" x="209.735315" y="244.904577" style="fill: #4c72b0; stroke: #4c72b0"/>
     <use xlink:href="#m79d293d9ce" x="226.822397" y="244.904577" style="fill: #4c72b0; stroke: #4c72b0"/>
     <use xlink:href="#m79d293d9ce" x="243.909478" y="244.904577" style="fill: #4c72b0; stroke: #4c72b0"/>
     <use xlink:href="#m79d293d9ce" x="260.99656" y="244.904577" style="fill: #4c72b0; stroke: #4c72b0"/>
     <use xlink:href="#m79d293d9ce" x="278.083641" y="244.904577" style="fill: #4c72b0; stroke: #4c72b0"/>
     <use xlink:href="#m79d293d9ce" x="295.170722" y="244.904577" style="fill: #4c72b0; stroke: #4c72b0"/>
     <use xlink:href="#m79d293d9ce" x="312.257804" y="244.904577" style="fill: #4c72b0; stroke: #4c72b0"/>
     <use xlink:href="#m79d293d9ce" x="329.344885" y="244.904577" style="fill: #4c72b0; stroke: #4c72b0"/>
     <use xlink:href="#m79d293d9ce" x="346.431966" y="244.904577" style="fill: #4c72b0; stroke: #4c72b0"/>
     <use xlink:href="#m79d293d9ce" x="363.519048" y="244.904577" style="fill: #4c72b0; stroke: #4c72b0"/>
     <use xlink:href="#m79d293d9ce" x="380.606129" y="244.904577" style="fill: #4c72b0; stroke: #4c72b0"/>
     <use xlink:href="#m79d293d9ce" x="397.69321" y="244.904577" style="fill: #4c72b0; stroke: #4c72b0"/>
    </g>
   </g>
   <g id="line2d_17">
    <path d="M 73.038665 248.559294 
L 90.125746 251.725496 
L 107.212827 239.780059 
L 124.299909 238.312819 
L 141.38699 231.655475 
L 158.474071 224.403127 
L 175.561153 220.025848 
L 192.648234 218.324764 
L 209.735315 218.630814 
L 226.822397 214.042679 
L 243.909478 216.32512 
L 260.99656 218.242608 
L 278.083641 223.322747 
L 295.170722 227.837345 
L 312.257804 222.473611 
L 329.344885 217.504196 
L 346.431966 201.990056 
L 363.519048 187.242543 
L 380.606129 172.467241 
L 397.69321 259.252974 
" clip-path="url(#p5927b9debd)" style="fill: none; stroke-dasharray: 5.55,2.4; stroke-dashoffset: 0; stroke: #dd8452; stroke-width: 1.5"/>
    <defs>
     <path id="mce9329ba73" d="M 0 3 
C 0.795609 3 1.55874 2.683901 2.12132 2.12132 
C 2.683901 1.55874 3 0.795609 3 0 
C 3 -0.795609 2.683901 -1.55874 2.12132 -2.12132 
C 1.55874 -2.683901 0.795609 -3 0 -3 
C -0.795609 -3 -1.55874 -2.683901 -2.12132 -2.12132 
C -2.683901 -1.55874 -3 -0.795609 -3 0 
C -3 0.795609 -2.683901 1.55874 -2.12132 2.12132 
C -1.55874 2.683901 -0.795609 3 0 3 
z
" style="stroke: #dd8452"/>
    </defs>
    <g clip-path="url(#p5927b9debd)">
     <use xlink:href="#mce9329ba73" x="73.038665" y="248.559294" style="fill: #dd8452; stroke: #dd8452"/>
     <use xlink:href="#mce9329ba73" x="90.125746" y="251.725496" style="fill: #dd8452; stroke: #dd8452"/>
     <use xlink:href="#mce9329ba73" x="107.212827" y="239.780059" style="fill: #dd8452; stroke: #dd8452"/>
     <use xlink:href="#mce9329ba73" x="124.299909" y="238.312819" style="fill: #dd8452; stroke: #dd8452"/>
     <use xlink:href="#mce9329ba73" x="141.38699" y="231.655475" style="fill: #dd8452; stroke: #dd8452"/>
     <use xlink:href="#mce9329ba73" x="158.474071" y="224.403127" style="fill: #dd8452; stroke: #dd8452"/>
     <use xlink:href="#mce9329ba73" x="175.561153" y="220.025848" style="fill: #dd8452; stroke: #dd8452"/>
     <use xlink:href="#mce9329ba73" x="192.648234" y="218.324764" style="fill: #dd8452; stroke: #dd8452"/>
     <use xlink:href="#mce9329ba73" x="209.735315" y="218.630814" style="fill: #dd8452; stroke: #dd8452"/>
     <use xlink:href="#mce9329ba73" x="226.822397" y="214.042679" style="fill: #dd8452; stroke: #dd8452"/>
     <use xlink:href="#mce9329ba73" x="243.909478" y="216.32512" style="fill: #dd8452; stroke: #dd8452"/>
     <use xlink:href="#mce9329ba73" x="260.99656" y="218.242608" style="fill: #dd8452; stroke: #dd8452"/>
     <use xlink:href="#mce9329ba73" x="278.083641" y="223.322747" style="fill: #dd8452; stroke: #dd8452"/>
     <use xlink:href="#mce9329ba73" x="295.170722" y="227.837345" style="fill: #dd8452; stroke: #dd8452"/>
     <use xlink:href="#mce9329ba73" x="312.257804" y="222.473611" style="fill: #dd8452; stroke: #dd8452"/>
     <use xlink:href="#mce9329ba73" x="329.344885" y="217.504196" style="fill: #dd8452; stroke: #dd8452"/>
     <use xlink:href="#mce9329ba73" x="346.431966" y="201.990056" style="fill: #dd8452; stroke: #dd8452"/>
     <use xlink:href="#mce9329ba73" x="363.519048" y="187.242543" style="fill: #dd8452; stroke: #dd8452"/>
     <use xlink:href="#mce9329ba73" x="380.606129" y="172.467241" style="fill: #dd8452; stroke: #dd8452"/>
     <use xlink:href="#mce9329ba73" x="397.69321" y="259.252974" style="fill: #dd8452; stroke: #dd8452"/>
    </g>
   </g>
   <g id="line2d_18">
    <path d="M 73.038665 248.559294 
L 90.125746 227.174094 
L 107.212827 219.333531 
L 124.299909 210.47072 
L 141.38699 207.030204 
L 158.474071 187.113492 
L 175.561153 166.110857 
L 192.648234 154.140518 
L 209.735315 134.31416 
L 226.822397 119.547168 
L 243.909478 110.503645 
L 260.99656 102.331658 
L 278.083641 95.338926 
L 295.170722 90.74556 
L 312.257804 81.657496 
L 329.344885 88.452439 
L 346.431966 102.453143 
L 363.519048 115.188212 
L 380.606129 124.057589 
L 397.69321 260.625287 
" clip-path="url(#p5927b9debd)" style="fill: none; stroke-dasharray: 5.55,2.4; stroke-dashoffset: 0; stroke: #55a868; stroke-width: 1.5"/>
    <defs>
     <path id="me61856a701" d="M 0 3 
C 0.795609 3 1.55874 2.683901 2.12132 2.12132 
C 2.683901 1.55874 3 0.795609 3 0 
C 3 -0.795609 2.683901 -1.55874 2.12132 -2.12132 
C 1.55874 -2.683901 0.795609 -3 0 -3 
C -0.795609 -3 -1.55874 -2.683901 -2.12132 -2.12132 
C -2.683901 -1.55874 -3 -0.795609 -3 0 
C -3 0.795609 -2.683901 1.55874 -2.12132 2.12132 
C -1.55874 2.683901 -0.795609 3 0 3 
z
" style="stroke: #55a868"/>
    </defs>
    <g clip-path="url(#p5927b9debd)">
     <use xlink:href="#me61856a701" x="73.038665" y="248.559294" style="fill: #55a868; stroke: #55a868"/>
     <use xlink:href="#me61856a701" x="90.125746" y="227.174094" style="fill: #55a868; stroke: #55a868"/>
     <use xlink:href="#me61856a701" x="107.212827" y="219.333531" style="fill: #55a868; stroke: #55a868"/>
     <use xlink:href="#me61856a701" x="124.299909" y="210.47072" style="fill: #55a868; stroke: #55a868"/>
     <use xlink:href="#me61856a701" x="141.38699" y="207.030204" style="fill: #55a868; stroke: #55a868"/>
     <use xlink:href="#me61856a701" x="158.474071" y="187.113492" style="fill: #55a868; stroke: #55a868"/>
     <use xlink:href="#me61856a701" x="175.561153" y="166.110857" style="fill: #55a868; stroke: #55a868"/>
     <use xlink:href="#me61856a701" x="192.648234" y="154.140518" style="fill: #55a868; stroke: #55a868"/>
     <use xlink:href="#me61856a701" x="209.735315" y="134.31416" style="fill: #55a868; stroke: #55a868"/>
     <use xlink:href="#me61856a701" x="226.822397" y="119.547168" style="fill: #55a868; stroke: #55a868"/>
     <use xlink:href="#me61856a701" x="243.909478" y="110.503645" style="fill: #55a868; stroke: #55a868"/>
     <use xlink:href="#me61856a701" x="260.99656" y="102.331658" style="fill: #55a868; stroke: #55a868"/>
     <use xlink:href="#me61856a701" x="278.083641" y="95.338926" style="fill: #55a868; stroke: #55a868"/>
     <use xlink:href="#me61856a701" x="295.170722" y="90.74556" style="fill: #55a868; stroke: #55a868"/>
     <use xlink:href="#me61856a701" x="312.257804" y="81.657496" style="fill: #55a868; stroke: #55a868"/>
     <use xlink:href="#me61856a701" x="329.344885" y="88.452439" style="fill: #55a868; stroke: #55a868"/>
     <use xlink:href="#me61856a701" x="346.431966" y="102.453143" style="fill: #55a868; stroke: #55a868"/>
     <use xlink:href="#me61856a701" x="363.519048" y="115.188212" style="fill: #55a868; stroke: #55a868"/>
     <use xlink:href="#me61856a701" x="380.606129" y="124.057589" style="fill: #55a868; stroke: #55a868"/>
     <use xlink:href="#me61856a701" x="397.69321" y="260.625287" style="fill: #55a868; stroke: #55a868"/>
    </g>
   </g>
   <g id="line2d_19">
    <path d="M 73.038665 248.559294 
L 90.125746 242.511441 
L 107.212827 223.9033 
L 124.299909 226.510212 
L 141.38699 220.186437 
L 158.474071 196.860666 
L 175.561153 173.460719 
L 192.648234 157.007211 
L 209.735315 136.902183 
L 226.822397 116.15177 
L 243.909478 107.687454 
L 260.99656 98.005826 
L 278.083641 88.07487 
L 295.170722 83.402904 
L 312.257804 69.911402 
L 329.344885 81.78578 
L 346.431966 105.790336 
L 363.519048 130.766405 
L 380.606129 164.973957 
L 397.69321 260.926568 
" clip-path="url(#p5927b9debd)" style="fill: none; stroke-dasharray: 5.55,2.4; stroke-dashoffset: 0; stroke: #c44e52; stroke-width: 1.5"/>
    <defs>
     <path id="m964e2c36eb" d="M 0 3 
C 0.795609 3 1.55874 2.683901 2.12132 2.12132 
C 2.683901 1.55874 3 0.795609 3 0 
C 3 -0.795609 2.683901 -1.55874 2.12132 -2.12132 
C 1.55874 -2.683901 0.795609 -3 0 -3 
C -0.795609 -3 -1.55874 -2.683901 -2.12132 -2.12132 
C -2.683901 -1.55874 -3 -0.795609 -3 0 
C -3 0.795609 -2.683901 1.55874 -2.12132 2.12132 
C -1.55874 2.683901 -0.795609 3 0 3 
z
" style="stroke: #c44e52"/>
    </defs>
    <g clip-path="url(#p5927b9debd)">
     <use xlink:href="#m964e2c36eb" x="73.038665" y="248.559294" style="fill: #c44e52; stroke: #c44e52"/>
     <use xlink:href="#m964e2c36eb" x="90.125746" y="242.511441" style="fill: #c44e52; stroke: #c44e52"/>
     <use xlink:href="#m964e2c36eb" x="107.212827" y="223.9033" style="fill: #c44e52; stroke: #c44e52"/>
     <use xlink:href="#m964e2c36eb" x="124.299909" y="226.510212" style="fill: #c44e52; stroke: #c44e52"/>
     <use xlink:href="#m964e2c36eb" x="141.38699" y="220.186437" style="fill: #c44e52; stroke: #c44e52"/>
     <use xlink:href="#m964e2c36eb" x="158.474071" y="196.860666" style="fill: #c44e52; stroke: #c44e52"/>
     <use xlink:href="#m964e2c36eb" x="175.561153" y="173.460719" style="fill: #c44e52; stroke: #c44e52"/>
     <use xlink:href="#m964e2c36eb" x="192.648234" y="157.007211" style="fill: #c44e52; stroke: #c44e52"/>
     <use xlink:href="#m964e2c36eb" x="209.735315" y="136.902183" style="fill: #c44e52; stroke: #c44e52"/>
     <use xlink:href="#m964e2c36eb" x="226.822397" y="116.15177" style="fill: #c44e52; stroke: #c44e52"/>
     <use xlink:href="#m964e2c36eb" x="243.909478" y="107.687454" style="fill: #c44e52; stroke: #c44e52"/>
     <use xlink:href="#m964e2c36eb" x="260.99656" y="98.005826" style="fill: #c44e52; stroke: #c44e52"/>
     <use xlink:href="#m964e2c36eb" x="278.083641" y="88.07487" style="fill: #c44e52; stroke: #c44e52"/>
     <use xlink:href="#m964e2c36eb" x="295.170722" y="83.402904" style="fill: #c44e52; stroke: #c44e52"/>
     <use xlink:href="#m964e2c36eb" x="312.257804" y="69.911402" style="fill: #c44e52; stroke: #c44e52"/>
     <use xlink:href="#m964e2c36eb" x="329.344885" y="81.78578" style="fill: #c44e52; stroke: #c44e52"/>
     <use xlink:href="#m964e2c36eb" x="346.431966" y="105.790336" style="fill: #c44e52; stroke: #c44e52"/>
     <use xlink:href="#m964e2c36eb" x="363.519048" y="130.766405" style="fill: #c44e52; stroke: #c44e52"/>
     <use xlink:href="#m964e2c36eb" x="380.606129" y="164.973957" style="fill: #c44e52; stroke: #c44e52"/>
     <use xlink:href="#m964e2c36eb" x="397.69321" y="260.926568" style="fill: #c44e52; stroke: #c44e52"/>
    </g>
   </g>
   <g id="line2d_20">
    <path d="M 73.038665 248.559294 
L 90.125746 248.45054 
L 107.212827 247.08744 
L 124.299909 246.618748 
L 141.38699 244.768364 
L 158.474071 229.4529 
L 175.561153 195.650261 
L 192.648234 168.073133 
L 209.735315 144.225022 
L 226.822397 117.442743 
L 243.909478 103.006 
L 260.99656 94.870853 
L 278.083641 85.686909 
L 295.170722 88.453249 
L 312.257804 79.224014 
L 329.344885 101.982527 
L 346.431966 143.475897 
L 363.519048 175.181323 
L 380.606129 210.149178 
L 397.69321 260.113075 
" clip-path="url(#p5927b9debd)" style="fill: none; stroke-dasharray: 5.55,2.4; stroke-dashoffset: 0; stroke: #8172b3; stroke-width: 1.5"/>
    <defs>
     <path id="m7a8d84b789" d="M 0 3 
C 0.795609 3 1.55874 2.683901 2.12132 2.12132 
C 2.683901 1.55874 3 0.795609 3 0 
C 3 -0.795609 2.683901 -1.55874 2.12132 -2.12132 
C 1.55874 -2.683901 0.795609 -3 0 -3 
C -0.795609 -3 -1.55874 -2.683901 -2.12132 -2.12132 
C -2.683901 -1.55874 -3 -0.795609 -3 0 
C -3 0.795609 -2.683901 1.55874 -2.12132 2.12132 
C -1.55874 2.683901 -0.795609 3 0 3 
z
" style="stroke: #8172b3"/>
    </defs>
    <g clip-path="url(#p5927b9debd)">
     <use xlink:href="#m7a8d84b789" x="73.038665" y="248.559294" style="fill: #8172b3; stroke: #8172b3"/>
     <use xlink:href="#m7a8d84b789" x="90.125746" y="248.45054" style="fill: #8172b3; stroke: #8172b3"/>
     <use xlink:href="#m7a8d84b789" x="107.212827" y="247.08744" style="fill: #8172b3; stroke: #8172b3"/>
     <use xlink:href="#m7a8d84b789" x="124.299909" y="246.618748" style="fill: #8172b3; stroke: #8172b3"/>
     <use xlink:href="#m7a8d84b789" x="141.38699" y="244.768364" style="fill: #8172b3; stroke: #8172b3"/>
     <use xlink:href="#m7a8d84b789" x="158.474071" y="229.4529" style="fill: #8172b3; stroke: #8172b3"/>
     <use xlink:href="#m7a8d84b789" x="175.561153" y="195.650261" style="fill: #8172b3; stroke: #8172b3"/>
     <use xlink:href="#m7a8d84b789" x="192.648234" y="168.073133" style="fill: #8172b3; stroke: #8172b3"/>
     <use xlink:href="#m7a8d84b789" x="209.735315" y="144.225022" style="fill: #8172b3; stroke: #8172b3"/>
     <use xlink:href="#m7a8d84b789" x="226.822397" y="117.442743" style="fill: #8172b3; stroke: #8172b3"/>
     <use xlink:href="#m7a8d84b789" x="243.909478" y="103.006" style="fill: #8172b3; stroke: #8172b3"/>
     <use xlink:href="#m7a8d84b789" x="260.99656" y="94.870853" style="fill: #8172b3; stroke: #8172b3"/>
     <use xlink:href="#m7a8d84b789" x="278.083641" y="85.686909" style="fill: #8172b3; stroke: #8172b3"/>
     <use xlink:href="#m7a8d84b789" x="295.170722" y="88.453249" style="fill: #8172b3; stroke: #8172b3"/>
     <use xlink:href="#m7a8d84b789" x="312.257804" y="79.224014" style="fill: #8172b3; stroke: #8172b3"/>
     <use xlink:href="#m7a8d84b789" x="329.344885" y="101.982527" style="fill: #8172b3; stroke: #8172b3"/>
     <use xlink:href="#m7a8d84b789" x="346.431966" y="143.475897" style="fill: #8172b3; stroke: #8172b3"/>
     <use xlink:href="#m7a8d84b789" x="363.519048" y="175.181323" style="fill: #8172b3; stroke: #8172b3"/>
     <use xlink:href="#m7a8d84b789" x="380.606129" y="210.149178" style="fill: #8172b3; stroke: #8172b3"/>
     <use xlink:href="#m7a8d84b789" x="397.69321" y="260.113075" style="fill: #8172b3; stroke: #8172b3"/>
    </g>
   </g>
   <g id="line2d_21">
    <path d="M 73.038665 248.559294 
L 90.125746 248.559294 
L 107.212827 248.559294 
L 124.299909 248.515711 
L 141.38699 252.428891 
L 158.474071 257.610999 
L 175.561153 236.691865 
L 192.648234 192.980028 
L 209.735315 158.418186 
L 226.822397 120.194577 
L 243.909478 96.916098 
L 260.99656 84.482508 
L 278.083641 84.897142 
L 295.170722 97.518626 
L 312.257804 108.975623 
L 329.344885 152.174595 
L 346.431966 190.128625 
L 363.519048 216.42014 
L 380.606129 230.408891 
L 397.69321 257.9761 
" clip-path="url(#p5927b9debd)" style="fill: none; stroke-dasharray: 5.55,2.4; stroke-dashoffset: 0; stroke: #937860; stroke-width: 1.5"/>
    <defs>
     <path id="m087b648359" d="M 0 3 
C 0.795609 3 1.55874 2.683901 2.12132 2.12132 
C 2.683901 1.55874 3 0.795609 3 0 
C 3 -0.795609 2.683901 -1.55874 2.12132 -2.12132 
C 1.55874 -2.683901 0.795609 -3 0 -3 
C -0.795609 -3 -1.55874 -2.683901 -2.12132 -2.12132 
C -2.683901 -1.55874 -3 -0.795609 -3 0 
C -3 0.795609 -2.683901 1.55874 -2.12132 2.12132 
C -1.55874 2.683901 -0.795609 3 0 3 
z
" style="stroke: #937860"/>
    </defs>
    <g clip-path="url(#p5927b9debd)">
     <use xlink:href="#m087b648359" x="73.038665" y="248.559294" style="fill: #937860; stroke: #937860"/>
     <use xlink:href="#m087b648359" x="90.125746" y="248.559294" style="fill: #937860; stroke: #937860"/>
     <use xlink:href="#m087b648359" x="107.212827" y="248.559294" style="fill: #937860; stroke: #937860"/>
     <use xlink:href="#m087b648359" x="124.299909" y="248.515711" style="fill: #937860; stroke: #937860"/>
     <use xlink:href="#m087b648359" x="141.38699" y="252.428891" style="fill: #937860; stroke: #937860"/>
     <use xlink:href="#m087b648359" x="158.474071" y="257.610999" style="fill: #937860; stroke: #937860"/>
     <use xlink:href="#m087b648359" x="175.561153" y="236.691865" style="fill: #937860; stroke: #937860"/>
     <use xlink:href="#m087b648359" x="192.648234" y="192.980028" style="fill: #937860; stroke: #937860"/>
     <use xlink:href="#m087b648359" x="209.735315" y="158.418186" style="fill: #937860; stroke: #937860"/>
     <use xlink:href="#m087b648359" x="226.822397" y="120.194577" style="fill: #937860; stroke: #937860"/>
     <use xlink:href="#m087b648359" x="243.909478" y="96.916098" style="fill: #937860; stroke: #937860"/>
     <use xlink:href="#m087b648359" x="260.99656" y="84.482508" style="fill: #937860; stroke: #937860"/>
     <use xlink:href="#m087b648359" x="278.083641" y="84.897142" style="fill: #937860; stroke: #937860"/>
     <use xlink:href="#m087b648359" x="295.170722" y="97.518626" style="fill: #937860; stroke: #937860"/>
     <use xlink:href="#m087b648359" x="312.257804" y="108.975623" style="fill: #937860; stroke: #937860"/>
     <use xlink:href="#m087b648359" x="329.344885" y="152.174595" style="fill: #937860; stroke: #937860"/>
     <use xlink:href="#m087b648359" x="346.431966" y="190.128625" style="fill: #937860; stroke: #937860"/>
     <use xlink:href="#m087b648359" x="363.519048" y="216.42014" style="fill: #937860; stroke: #937860"/>
     <use xlink:href="#m087b648359" x="380.606129" y="230.408891" style="fill: #937860; stroke: #937860"/>
     <use xlink:href="#m087b648359" x="397.69321" y="257.9761" style="fill: #937860; stroke: #937860"/>
    </g>
   </g>
   <g id="line2d_22">
    <path d="M 73.038665 248.559294 
L 90.125746 248.559294 
L 107.212827 248.559294 
L 124.299909 248.559294 
L 141.38699 248.183195 
L 158.474071 257.003412 
L 175.561153 260.662637 
L 192.648234 233.077993 
L 209.735315 189.50194 
L 226.822397 128.720071 
L 243.909478 84.503797 
L 260.99656 76.67197 
L 278.083641 101.250272 
L 295.170722 142.480671 
L 312.257804 173.08344 
L 329.344885 210.829286 
L 346.431966 233.687934 
L 363.519048 239.943414 
L 380.606129 259.109628 
L 397.69321 258.785548 
" clip-path="url(#p5927b9debd)" style="fill: none; stroke-dasharray: 5.55,2.4; stroke-dashoffset: 0; stroke: #da8bc3; stroke-width: 1.5"/>
    <defs>
     <path id="meaefd31d0e" d="M 0 3 
C 0.795609 3 1.55874 2.683901 2.12132 2.12132 
C 2.683901 1.55874 3 0.795609 3 0 
C 3 -0.795609 2.683901 -1.55874 2.12132 -2.12132 
C 1.55874 -2.683901 0.795609 -3 0 -3 
C -0.795609 -3 -1.55874 -2.683901 -2.12132 -2.12132 
C -2.683901 -1.55874 -3 -0.795609 -3 0 
C -3 0.795609 -2.683901 1.55874 -2.12132 2.12132 
C -1.55874 2.683901 -0.795609 3 0 3 
z
" style="stroke: #da8bc3"/>
    </defs>
    <g clip-path="url(#p5927b9debd)">
     <use xlink:href="#meaefd31d0e" x="73.038665" y="248.559294" style="fill: #da8bc3; stroke: #da8bc3"/>
     <use xlink:href="#meaefd31d0e" x="90.125746" y="248.559294" style="fill: #da8bc3; stroke: #da8bc3"/>
     <use xlink:href="#meaefd31d0e" x="107.212827" y="248.559294" style="fill: #da8bc3; stroke: #da8bc3"/>
     <use xlink:href="#meaefd31d0e" x="124.299909" y="248.559294" style="fill: #da8bc3; stroke: #da8bc3"/>
     <use xlink:href="#meaefd31d0e" x="141.38699" y="248.183195" style="fill: #da8bc3; stroke: #da8bc3"/>
     <use xlink:href="#meaefd31d0e" x="158.474071" y="257.003412" style="fill: #da8bc3; stroke: #da8bc3"/>
     <use xlink:href="#meaefd31d0e" x="175.561153" y="260.662637" style="fill: #da8bc3; stroke: #da8bc3"/>
     <use xlink:href="#meaefd31d0e" x="192.648234" y="233.077993" style="fill: #da8bc3; stroke: #da8bc3"/>
     <use xlink:href="#meaefd31d0e" x="209.735315" y="189.50194" style="fill: #da8bc3; stroke: #da8bc3"/>
     <use xlink:href="#meaefd31d0e" x="226.822397" y="128.720071" style="fill: #da8bc3; stroke: #da8bc3"/>
     <use xlink:href="#meaefd31d0e" x="243.909478" y="84.503797" style="fill: #da8bc3; stroke: #da8bc3"/>
     <use xlink:href="#meaefd31d0e" x="260.99656" y="76.67197" style="fill: #da8bc3; stroke: #da8bc3"/>
     <use xlink:href="#meaefd31d0e" x="278.083641" y="101.250272" style="fill: #da8bc3; stroke: #da8bc3"/>
     <use xlink:href="#meaefd31d0e" x="295.170722" y="142.480671" style="fill: #da8bc3; stroke: #da8bc3"/>
     <use xlink:href="#meaefd31d0e" x="312.257804" y="173.08344" style="fill: #da8bc3; stroke: #da8bc3"/>
     <use xlink:href="#meaefd31d0e" x="329.344885" y="210.829286" style="fill: #da8bc3; stroke: #da8bc3"/>
     <use xlink:href="#meaefd31d0e" x="346.431966" y="233.687934" style="fill: #da8bc3; stroke: #da8bc3"/>
     <use xlink:href="#meaefd31d0e" x="363.519048" y="239.943414" style="fill: #da8bc3; stroke: #da8bc3"/>
     <use xlink:href="#meaefd31d0e" x="380.606129" y="259.109628" style="fill: #da8bc3; stroke: #da8bc3"/>
     <use xlink:href="#meaefd31d0e" x="397.69321" y="258.785548" style="fill: #da8bc3; stroke: #da8bc3"/>
    </g>
   </g>
   <g id="line2d_23">
    <path d="M 73.038665 248.559294 
L 90.125746 248.559294 
L 107.212827 248.559294 
L 124.299909 248.559294 
L 141.38699 247.377658 
L 158.474071 257.956662 
L 175.561153 255.836435 
L 192.648234 242.463042 
L 209.735315 196.857597 
L 226.822397 132.477387 
L 243.909478 81.377507 
L 260.99656 77.888013 
L 278.083641 112.768416 
L 295.170722 153.421678 
L 312.257804 193.027775 
L 329.344885 221.339055 
L 346.431966 238.422467 
L 363.519048 252.662888 
L 380.606129 257.979844 
L 397.69321 261.19847 
" clip-path="url(#p5927b9debd)" style="fill: none; stroke-dasharray: 5.55,2.4; stroke-dashoffset: 0; stroke: #8c8c8c; stroke-width: 1.5"/>
    <defs>
     <path id="m5341a1a6ba" d="M 0 3 
C 0.795609 3 1.55874 2.683901 2.12132 2.12132 
C 2.683901 1.55874 3 0.795609 3 0 
C 3 -0.795609 2.683901 -1.55874 2.12132 -2.12132 
C 1.55874 -2.683901 0.795609 -3 0 -3 
C -0.795609 -3 -1.55874 -2.683901 -2.12132 -2.12132 
C -2.683901 -1.55874 -3 -0.795609 -3 0 
C -3 0.795609 -2.683901 1.55874 -2.12132 2.12132 
C -1.55874 2.683901 -0.795609 3 0 3 
z
" style="stroke: #8c8c8c"/>
    </defs>
    <g clip-path="url(#p5927b9debd)">
     <use xlink:href="#m5341a1a6ba" x="73.038665" y="248.559294" style="fill: #8c8c8c; stroke: #8c8c8c"/>
     <use xlink:href="#m5341a1a6ba" x="90.125746" y="248.559294" style="fill: #8c8c8c; stroke: #8c8c8c"/>
     <use xlink:href="#m5341a1a6ba" x="107.212827" y="248.559294" style="fill: #8c8c8c; stroke: #8c8c8c"/>
     <use xlink:href="#m5341a1a6ba" x="124.299909" y="248.559294" style="fill: #8c8c8c; stroke: #8c8c8c"/>
     <use xlink:href="#m5341a1a6ba" x="141.38699" y="247.377658" style="fill: #8c8c8c; stroke: #8c8c8c"/>
     <use xlink:href="#m5341a1a6ba" x="158.474071" y="257.956662" style="fill: #8c8c8c; stroke: #8c8c8c"/>
     <use xlink:href="#m5341a1a6ba" x="175.561153" y="255.836435" style="fill: #8c8c8c; stroke: #8c8c8c"/>
     <use xlink:href="#m5341a1a6ba" x="192.648234" y="242.463042" style="fill: #8c8c8c; stroke: #8c8c8c"/>
     <use xlink:href="#m5341a1a6ba" x="209.735315" y="196.857597" style="fill: #8c8c8c; stroke: #8c8c8c"/>
     <use xlink:href="#m5341a1a6ba" x="226.822397" y="132.477387" style="fill: #8c8c8c; stroke: #8c8c8c"/>
     <use xlink:href="#m5341a1a6ba" x="243.909478" y="81.377507" style="fill: #8c8c8c; stroke: #8c8c8c"/>
     <use xlink:href="#m5341a1a6ba" x="260.99656" y="77.888013" style="fill: #8c8c8c; stroke: #8c8c8c"/>
     <use xlink:href="#m5341a1a6ba" x="278.083641" y="112.768416" style="fill: #8c8c8c; stroke: #8c8c8c"/>
     <use xlink:href="#m5341a1a6ba" x="295.170722" y="153.421678" style="fill: #8c8c8c; stroke: #8c8c8c"/>
     <use xlink:href="#m5341a1a6ba" x="312.257804" y="193.027775" style="fill: #8c8c8c; stroke: #8c8c8c"/>
     <use xlink:href="#m5341a1a6ba" x="329.344885" y="221.339055" style="fill: #8c8c8c; stroke: #8c8c8c"/>
     <use xlink:href="#m5341a1a6ba" x="346.431966" y="238.422467" style="fill: #8c8c8c; stroke: #8c8c8c"/>
     <use xlink:href="#m5341a1a6ba" x="363.519048" y="252.662888" style="fill: #8c8c8c; stroke: #8c8c8c"/>
     <use xlink:href="#m5341a1a6ba" x="380.606129" y="257.979844" style="fill: #8c8c8c; stroke: #8c8c8c"/>
     <use xlink:href="#m5341a1a6ba" x="397.69321" y="261.19847" style="fill: #8c8c8c; stroke: #8c8c8c"/>
    </g>
   </g>
   <g id="line2d_24">
    <path d="M 73.038665 248.559294 
L 90.125746 248.559294 
L 107.212827 248.559294 
L 124.299909 248.559294 
L 141.38699 247.377658 
L 158.474071 252.771903 
L 175.561153 255.068815 
L 192.648234 245.459392 
L 209.735315 198.077734 
L 226.822397 132.808161 
L 243.909478 80.182171 
L 260.99656 79.199408 
L 278.083641 115.222981 
L 295.170722 160.903564 
L 312.257804 199.493802 
L 329.344885 225.739054 
L 346.431966 238.986329 
L 363.519048 252.664081 
L 380.606129 258.189187 
L 397.69321 261.180933 
" clip-path="url(#p5927b9debd)" style="fill: none; stroke-dasharray: 5.55,2.4; stroke-dashoffset: 0; stroke: #ccb974; stroke-width: 1.5"/>
    <defs>
     <path id="mc277b6ef2f" d="M 0 3 
C 0.795609 3 1.55874 2.683901 2.12132 2.12132 
C 2.683901 1.55874 3 0.795609 3 0 
C 3 -0.795609 2.683901 -1.55874 2.12132 -2.12132 
C 1.55874 -2.683901 0.795609 -3 0 -3 
C -0.795609 -3 -1.55874 -2.683901 -2.12132 -2.12132 
C -2.683901 -1.55874 -3 -0.795609 -3 0 
C -3 0.795609 -2.683901 1.55874 -2.12132 2.12132 
C -1.55874 2.683901 -0.795609 3 0 3 
z
" style="stroke: #ccb974"/>
    </defs>
    <g clip-path="url(#p5927b9debd)">
     <use xlink:href="#mc277b6ef2f" x="73.038665" y="248.559294" style="fill: #ccb974; stroke: #ccb974"/>
     <use xlink:href="#mc277b6ef2f" x="90.125746" y="248.559294" style="fill: #ccb974; stroke: #ccb974"/>
     <use xlink:href="#mc277b6ef2f" x="107.212827" y="248.559294" style="fill: #ccb974; stroke: #ccb974"/>
     <use xlink:href="#mc277b6ef2f" x="124.299909" y="248.559294" style="fill: #ccb974; stroke: #ccb974"/>
     <use xlink:href="#mc277b6ef2f" x="141.38699" y="247.377658" style="fill: #ccb974; stroke: #ccb974"/>
     <use xlink:href="#mc277b6ef2f" x="158.474071" y="252.771903" style="fill: #ccb974; stroke: #ccb974"/>
     <use xlink:href="#mc277b6ef2f" x="175.561153" y="255.068815" style="fill: #ccb974; stroke: #ccb974"/>
     <use xlink:href="#mc277b6ef2f" x="192.648234" y="245.459392" style="fill: #ccb974; stroke: #ccb974"/>
     <use xlink:href="#mc277b6ef2f" x="209.735315" y="198.077734" style="fill: #ccb974; stroke: #ccb974"/>
     <use xlink:href="#mc277b6ef2f" x="226.822397" y="132.808161" style="fill: #ccb974; stroke: #ccb974"/>
     <use xlink:href="#mc277b6ef2f" x="243.909478" y="80.182171" style="fill: #ccb974; stroke: #ccb974"/>
     <use xlink:href="#mc277b6ef2f" x="260.99656" y="79.199408" style="fill: #ccb974; stroke: #ccb974"/>
     <use xlink:href="#mc277b6ef2f" x="278.083641" y="115.222981" style="fill: #ccb974; stroke: #ccb974"/>
     <use xlink:href="#mc277b6ef2f" x="295.170722" y="160.903564" style="fill: #ccb974; stroke: #ccb974"/>
     <use xlink:href="#mc277b6ef2f" x="312.257804" y="199.493802" style="fill: #ccb974; stroke: #ccb974"/>
     <use xlink:href="#mc277b6ef2f" x="329.344885" y="225.739054" style="fill: #ccb974; stroke: #ccb974"/>
     <use xlink:href="#mc277b6ef2f" x="346.431966" y="238.986329" style="fill: #ccb974; stroke: #ccb974"/>
     <use xlink:href="#mc277b6ef2f" x="363.519048" y="252.664081" style="fill: #ccb974; stroke: #ccb974"/>
     <use xlink:href="#mc277b6ef2f" x="380.606129" y="258.189187" style="fill: #ccb974; stroke: #ccb974"/>
     <use xlink:href="#mc277b6ef2f" x="397.69321" y="261.180933" style="fill: #ccb974; stroke: #ccb974"/>
    </g>
   </g>
   <g id="line2d_25">
    <path d="M 73.038665 248.559294 
L 90.125746 248.559294 
L 107.212827 248.559294 
L 124.299909 248.559294 
L 141.38699 247.377658 
L 158.474071 251.610567 
L 175.561153 253.966884 
L 192.648234 245.042044 
L 209.735315 199.560376 
L 226.822397 134.406962 
L 243.909478 80.884258 
L 260.99656 78.361079 
L 278.083641 115.91051 
L 295.170722 162.360883 
L 312.257804 199.690027 
L 329.344885 228.68047 
L 346.431966 241.070411 
L 363.519048 252.652046 
L 380.606129 258.189187 
L 397.69321 261.216 
" clip-path="url(#p5927b9debd)" style="fill: none; stroke-dasharray: 5.55,2.4; stroke-dashoffset: 0; stroke: #64b5cd; stroke-width: 1.5"/>
    <defs>
     <path id="m3a2ae39d7d" d="M 0 3 
C 0.795609 3 1.55874 2.683901 2.12132 2.12132 
C 2.683901 1.55874 3 0.795609 3 0 
C 3 -0.795609 2.683901 -1.55874 2.12132 -2.12132 
C 1.55874 -2.683901 0.795609 -3 0 -3 
C -0.795609 -3 -1.55874 -2.683901 -2.12132 -2.12132 
C -2.683901 -1.55874 -3 -0.795609 -3 0 
C -3 0.795609 -2.683901 1.55874 -2.12132 2.12132 
C -1.55874 2.683901 -0.795609 3 0 3 
z
" style="stroke: #64b5cd"/>
    </defs>
    <g clip-path="url(#p5927b9debd)">
     <use xlink:href="#m3a2ae39d7d" x="73.038665" y="248.559294" style="fill: #64b5cd; stroke: #64b5cd"/>
     <use xlink:href="#m3a2ae39d7d" x="90.125746" y="248.559294" style="fill: #64b5cd; stroke: #64b5cd"/>
     <use xlink:href="#m3a2ae39d7d" x="107.212827" y="248.559294" style="fill: #64b5cd; stroke: #64b5cd"/>
     <use xlink:href="#m3a2ae39d7d" x="124.299909" y="248.559294" style="fill: #64b5cd; stroke: #64b5cd"/>
     <use xlink:href="#m3a2ae39d7d" x="141.38699" y="247.377658" style="fill: #64b5cd; stroke: #64b5cd"/>
     <use xlink:href="#m3a2ae39d7d" x="158.474071" y="251.610567" style="fill: #64b5cd; stroke: #64b5cd"/>
     <use xlink:href="#m3a2ae39d7d" x="175.561153" y="253.966884" style="fill: #64b5cd; stroke: #64b5cd"/>
     <use xlink:href="#m3a2ae39d7d" x="192.648234" y="245.042044" style="fill: #64b5cd; stroke: #64b5cd"/>
     <use xlink:href="#m3a2ae39d7d" x="209.735315" y="199.560376" style="fill: #64b5cd; stroke: #64b5cd"/>
     <use xlink:href="#m3a2ae39d7d" x="226.822397" y="134.406962" style="fill: #64b5cd; stroke: #64b5cd"/>
     <use xlink:href="#m3a2ae39d7d" x="243.909478" y="80.884258" style="fill: #64b5cd; stroke: #64b5cd"/>
     <use xlink:href="#m3a2ae39d7d" x="260.99656" y="78.361079" style="fill: #64b5cd; stroke: #64b5cd"/>
     <use xlink:href="#m3a2ae39d7d" x="278.083641" y="115.91051" style="fill: #64b5cd; stroke: #64b5cd"/>
     <use xlink:href="#m3a2ae39d7d" x="295.170722" y="162.360883" style="fill: #64b5cd; stroke: #64b5cd"/>
     <use xlink:href="#m3a2ae39d7d" x="312.257804" y="199.690027" style="fill: #64b5cd; stroke: #64b5cd"/>
     <use xlink:href="#m3a2ae39d7d" x="329.344885" y="228.68047" style="fill: #64b5cd; stroke: #64b5cd"/>
     <use xlink:href="#m3a2ae39d7d" x="346.431966" y="241.070411" style="fill: #64b5cd; stroke: #64b5cd"/>
     <use xlink:href="#m3a2ae39d7d" x="363.519048" y="252.652046" style="fill: #64b5cd; stroke: #64b5cd"/>
     <use xlink:href="#m3a2ae39d7d" x="380.606129" y="258.189187" style="fill: #64b5cd; stroke: #64b5cd"/>
     <use xlink:href="#m3a2ae39d7d" x="397.69321" y="261.216" style="fill: #64b5cd; stroke: #64b5cd"/>
    </g>
   </g>
   <g id="line2d_26">
    <path d="M 56.805938 19.296 
L 413.925938 19.296 
" clip-path="url(#p5927b9debd)" style="fill: none; stroke: #4c72b0; stroke-width: 1.5; stroke-linecap: round"/>
   </g>
   <g id="patch_3">
    <path d="M 56.805938 273.312 
L 56.805938 7.2 
" style="fill: none; stroke: #ffffff; stroke-width: 1.25; stroke-linejoin: miter; stroke-linecap: square"/>
   </g>
   <g id="patch_4">
    <path d="M 413.925938 273.312 
L 413.925938 7.2 
" style="fill: none; stroke: #ffffff; stroke-width: 1.25; stroke-linejoin: miter; stroke-linecap: square"/>
   </g>
   <g id="patch_5">
    <path d="M 56.805937 273.312 
L 413.925938 273.312 
" style="fill: none; stroke: #ffffff; stroke-width: 1.25; stroke-linejoin: miter; stroke-linecap: square"/>
   </g>
   <g id="patch_6">
    <path d="M 56.805937 7.2 
L 413.925938 7.2 
" style="fill: none; stroke: #ffffff; stroke-width: 1.25; stroke-linejoin: miter; stroke-linecap: square"/>
   </g>
   <g id="legend_1">
    <g id="patch_7">
     <path d="M 64.505938 177.459375 
L 143.281406 177.459375 
Q 145.481406 177.459375 145.481406 175.259375 
L 145.481406 14.9 
Q 145.481406 12.7 143.281406 12.7 
L 64.505938 12.7 
Q 62.305938 12.7 62.305938 14.9 
L 62.305938 175.259375 
Q 62.305938 177.459375 64.505938 177.459375 
z
" style="fill: #eaeaf2; opacity: 0.8; stroke: #cccccc; stroke-linejoin: miter"/>
    </g>
    <g id="line2d_27">
     <path d="M 66.705938 21.608281 
L 77.705938 21.608281 
L 88.705938 21.608281 
" style="fill: none; stroke-dasharray: 5.55,2.4; stroke-dashoffset: 0; stroke: #4c72b0; stroke-width: 1.5"/>
     <g>
      <use xlink:href="#m79d293d9ce" x="77.705938" y="21.608281" style="fill: #4c72b0; stroke: #4c72b0"/>
     </g>
    </g>
    <g id="text_18">
     <!-- k = 1 -->
     <g style="fill: #262626" transform="translate(97.505938 25.458281) scale(0.11 -0.11)">
      <defs>
       <path id="DejaVuSans-6b" d="M 581 4863 
L 1159 4863 
L 1159 1991 
L 2875 3500 
L 3609 3500 
L 1753 1863 
L 3688 0 
L 2938 0 
L 1159 1709 
L 1159 0 
L 581 0 
L 581 4863 
z
" transform="scale(0.015625)"/>
       <path id="DejaVuSans-3d" d="M 678 2906 
L 4684 2906 
L 4684 2381 
L 678 2381 
L 678 2906 
z
M 678 1631 
L 4684 1631 
L 4684 1100 
L 678 1100 
L 678 1631 
z
" transform="scale(0.015625)"/>
      </defs>
      <use xlink:href="#DejaVuSans-6b"/>
      <use xlink:href="#DejaVuSans-20" x="57.910156"/>
      <use xlink:href="#DejaVuSans-3d" x="89.697266"/>
      <use xlink:href="#DejaVuSans-20" x="173.486328"/>
      <use xlink:href="#DejaVuSans-31" x="205.273438"/>
     </g>
    </g>
    <g id="line2d_28">
     <path d="M 66.705938 37.754219 
L 77.705938 37.754219 
L 88.705938 37.754219 
" style="fill: none; stroke-dasharray: 5.55,2.4; stroke-dashoffset: 0; stroke: #dd8452; stroke-width: 1.5"/>
     <g>
      <use xlink:href="#mce9329ba73" x="77.705938" y="37.754219" style="fill: #dd8452; stroke: #dd8452"/>
     </g>
    </g>
    <g id="text_19">
     <!-- k = 2 -->
     <g style="fill: #262626" transform="translate(97.505938 41.604219) scale(0.11 -0.11)">
      <use xlink:href="#DejaVuSans-6b"/>
      <use xlink:href="#DejaVuSans-20" x="57.910156"/>
      <use xlink:href="#DejaVuSans-3d" x="89.697266"/>
      <use xlink:href="#DejaVuSans-20" x="173.486328"/>
      <use xlink:href="#DejaVuSans-32" x="205.273438"/>
     </g>
    </g>
    <g id="line2d_29">
     <path d="M 66.705938 53.900156 
L 77.705938 53.900156 
L 88.705938 53.900156 
" style="fill: none; stroke-dasharray: 5.55,2.4; stroke-dashoffset: 0; stroke: #55a868; stroke-width: 1.5"/>
     <g>
      <use xlink:href="#me61856a701" x="77.705938" y="53.900156" style="fill: #55a868; stroke: #55a868"/>
     </g>
    </g>
    <g id="text_20">
     <!-- k = 4 -->
     <g style="fill: #262626" transform="translate(97.505938 57.750156) scale(0.11 -0.11)">
      <use xlink:href="#DejaVuSans-6b"/>
      <use xlink:href="#DejaVuSans-20" x="57.910156"/>
      <use xlink:href="#DejaVuSans-3d" x="89.697266"/>
      <use xlink:href="#DejaVuSans-20" x="173.486328"/>
      <use xlink:href="#DejaVuSans-34" x="205.273438"/>
     </g>
    </g>
    <g id="line2d_30">
     <path d="M 66.705938 70.046094 
L 77.705938 70.046094 
L 88.705938 70.046094 
" style="fill: none; stroke-dasharray: 5.55,2.4; stroke-dashoffset: 0; stroke: #c44e52; stroke-width: 1.5"/>
     <g>
      <use xlink:href="#m964e2c36eb" x="77.705938" y="70.046094" style="fill: #c44e52; stroke: #c44e52"/>
     </g>
    </g>
    <g id="text_21">
     <!-- k = 6 -->
     <g style="fill: #262626" transform="translate(97.505938 73.896094) scale(0.11 -0.11)">
      <use xlink:href="#DejaVuSans-6b"/>
      <use xlink:href="#DejaVuSans-20" x="57.910156"/>
      <use xlink:href="#DejaVuSans-3d" x="89.697266"/>
      <use xlink:href="#DejaVuSans-20" x="173.486328"/>
      <use xlink:href="#DejaVuSans-36" x="205.273438"/>
     </g>
    </g>
    <g id="line2d_31">
     <path d="M 66.705938 86.192031 
L 77.705938 86.192031 
L 88.705938 86.192031 
" style="fill: none; stroke-dasharray: 5.55,2.4; stroke-dashoffset: 0; stroke: #8172b3; stroke-width: 1.5"/>
     <g>
      <use xlink:href="#m7a8d84b789" x="77.705938" y="86.192031" style="fill: #8172b3; stroke: #8172b3"/>
     </g>
    </g>
    <g id="text_22">
     <!-- k = 10 -->
     <g style="fill: #262626" transform="translate(97.505938 90.042031) scale(0.11 -0.11)">
      <use xlink:href="#DejaVuSans-6b"/>
      <use xlink:href="#DejaVuSans-20" x="57.910156"/>
      <use xlink:href="#DejaVuSans-3d" x="89.697266"/>
      <use xlink:href="#DejaVuSans-20" x="173.486328"/>
      <use xlink:href="#DejaVuSans-31" x="205.273438"/>
      <use xlink:href="#DejaVuSans-30" x="268.896484"/>
     </g>
    </g>
    <g id="line2d_32">
     <path d="M 66.705938 102.337969 
L 77.705938 102.337969 
L 88.705938 102.337969 
" style="fill: none; stroke-dasharray: 5.55,2.4; stroke-dashoffset: 0; stroke: #937860; stroke-width: 1.5"/>
     <g>
      <use xlink:href="#m087b648359" x="77.705938" y="102.337969" style="fill: #937860; stroke: #937860"/>
     </g>
    </g>
    <g id="text_23">
     <!-- k = 20 -->
     <g style="fill: #262626" transform="translate(97.505938 106.187969) scale(0.11 -0.11)">
      <use xlink:href="#DejaVuSans-6b"/>
      <use xlink:href="#DejaVuSans-20" x="57.910156"/>
      <use xlink:href="#DejaVuSans-3d" x="89.697266"/>
      <use xlink:href="#DejaVuSans-20" x="173.486328"/>
      <use xlink:href="#DejaVuSans-32" x="205.273438"/>
      <use xlink:href="#DejaVuSans-30" x="268.896484"/>
     </g>
    </g>
    <g id="line2d_33">
     <path d="M 66.705938 118.483906 
L 77.705938 118.483906 
L 88.705938 118.483906 
" style="fill: none; stroke-dasharray: 5.55,2.4; stroke-dashoffset: 0; stroke: #da8bc3; stroke-width: 1.5"/>
     <g>
      <use xlink:href="#meaefd31d0e" x="77.705938" y="118.483906" style="fill: #da8bc3; stroke: #da8bc3"/>
     </g>
    </g>
    <g id="text_24">
     <!-- k = 100 -->
     <g style="fill: #262626" transform="translate(97.505938 122.333906) scale(0.11 -0.11)">
      <use xlink:href="#DejaVuSans-6b"/>
      <use xlink:href="#DejaVuSans-20" x="57.910156"/>
      <use xlink:href="#DejaVuSans-3d" x="89.697266"/>
      <use xlink:href="#DejaVuSans-20" x="173.486328"/>
      <use xlink:href="#DejaVuSans-31" x="205.273438"/>
      <use xlink:href="#DejaVuSans-30" x="268.896484"/>
      <use xlink:href="#DejaVuSans-30" x="332.519531"/>
     </g>
    </g>
    <g id="line2d_34">
     <path d="M 66.705938 134.629844 
L 77.705938 134.629844 
L 88.705938 134.629844 
" style="fill: none; stroke-dasharray: 5.55,2.4; stroke-dashoffset: 0; stroke: #8c8c8c; stroke-width: 1.5"/>
     <g>
      <use xlink:href="#m5341a1a6ba" x="77.705938" y="134.629844" style="fill: #8c8c8c; stroke: #8c8c8c"/>
     </g>
    </g>
    <g id="text_25">
     <!-- k = 200 -->
     <g style="fill: #262626" transform="translate(97.505938 138.479844) scale(0.11 -0.11)">
      <use xlink:href="#DejaVuSans-6b"/>
      <use xlink:href="#DejaVuSans-20" x="57.910156"/>
      <use xlink:href="#DejaVuSans-3d" x="89.697266"/>
      <use xlink:href="#DejaVuSans-20" x="173.486328"/>
      <use xlink:href="#DejaVuSans-32" x="205.273438"/>
      <use xlink:href="#DejaVuSans-30" x="268.896484"/>
      <use xlink:href="#DejaVuSans-30" x="332.519531"/>
     </g>
    </g>
    <g id="line2d_35">
     <path d="M 66.705938 150.775781 
L 77.705938 150.775781 
L 88.705938 150.775781 
" style="fill: none; stroke-dasharray: 5.55,2.4; stroke-dashoffset: 0; stroke: #ccb974; stroke-width: 1.5"/>
     <g>
      <use xlink:href="#mc277b6ef2f" x="77.705938" y="150.775781" style="fill: #ccb974; stroke: #ccb974"/>
     </g>
    </g>
    <g id="text_26">
     <!-- k = 300 -->
     <g style="fill: #262626" transform="translate(97.505938 154.625781) scale(0.11 -0.11)">
      <defs>
       <path id="DejaVuSans-33" d="M 2597 2516 
Q 3050 2419 3304 2112 
Q 3559 1806 3559 1356 
Q 3559 666 3084 287 
Q 2609 -91 1734 -91 
Q 1441 -91 1130 -33 
Q 819 25 488 141 
L 488 750 
Q 750 597 1062 519 
Q 1375 441 1716 441 
Q 2309 441 2620 675 
Q 2931 909 2931 1356 
Q 2931 1769 2642 2001 
Q 2353 2234 1838 2234 
L 1294 2234 
L 1294 2753 
L 1863 2753 
Q 2328 2753 2575 2939 
Q 2822 3125 2822 3475 
Q 2822 3834 2567 4026 
Q 2313 4219 1838 4219 
Q 1578 4219 1281 4162 
Q 984 4106 628 3988 
L 628 4550 
Q 988 4650 1302 4700 
Q 1616 4750 1894 4750 
Q 2613 4750 3031 4423 
Q 3450 4097 3450 3541 
Q 3450 3153 3228 2886 
Q 3006 2619 2597 2516 
z
" transform="scale(0.015625)"/>
      </defs>
      <use xlink:href="#DejaVuSans-6b"/>
      <use xlink:href="#DejaVuSans-20" x="57.910156"/>
      <use xlink:href="#DejaVuSans-3d" x="89.697266"/>
      <use xlink:href="#DejaVuSans-20" x="173.486328"/>
      <use xlink:href="#DejaVuSans-33" x="205.273438"/>
      <use xlink:href="#DejaVuSans-30" x="268.896484"/>
      <use xlink:href="#DejaVuSans-30" x="332.519531"/>
     </g>
    </g>
    <g id="line2d_36">
     <path d="M 66.705938 166.921719 
L 77.705938 166.921719 
L 88.705938 166.921719 
" style="fill: none; stroke-dasharray: 5.55,2.4; stroke-dashoffset: 0; stroke: #64b5cd; stroke-width: 1.5"/>
     <g>
      <use xlink:href="#m3a2ae39d7d" x="77.705938" y="166.921719" style="fill: #64b5cd; stroke: #64b5cd"/>
     </g>
    </g>
    <g id="text_27">
     <!-- k = 792 -->
     <g style="fill: #262626" transform="translate(97.505938 170.771719) scale(0.11 -0.11)">
      <defs>
       <path id="DejaVuSans-39" d="M 703 97 
L 703 672 
Q 941 559 1184 500 
Q 1428 441 1663 441 
Q 2288 441 2617 861 
Q 2947 1281 2994 2138 
Q 2813 1869 2534 1725 
Q 2256 1581 1919 1581 
Q 1219 1581 811 2004 
Q 403 2428 403 3163 
Q 403 3881 828 4315 
Q 1253 4750 1959 4750 
Q 2769 4750 3195 4129 
Q 3622 3509 3622 2328 
Q 3622 1225 3098 567 
Q 2575 -91 1691 -91 
Q 1453 -91 1209 -44 
Q 966 3 703 97 
z
M 1959 2075 
Q 2384 2075 2632 2365 
Q 2881 2656 2881 3163 
Q 2881 3666 2632 3958 
Q 2384 4250 1959 4250 
Q 1534 4250 1286 3958 
Q 1038 3666 1038 3163 
Q 1038 2656 1286 2365 
Q 1534 2075 1959 2075 
z
" transform="scale(0.015625)"/>
      </defs>
      <use xlink:href="#DejaVuSans-6b"/>
      <use xlink:href="#DejaVuSans-20" x="57.910156"/>
      <use xlink:href="#DejaVuSans-3d" x="89.697266"/>
      <use xlink:href="#DejaVuSans-20" x="173.486328"/>
      <use xlink:href="#DejaVuSans-37" x="205.273438"/>
      <use xlink:href="#DejaVuSans-39" x="268.896484"/>
      <use xlink:href="#DejaVuSans-32" x="332.519531"/>
     </g>
    </g>
   </g>
  </g>
 </g>
 <defs>
  <clipPath id="p5927b9debd">
   <rect x="56.805938" y="7.2" width="357.12" height="266.112"/>
  </clipPath>
 </defs>
</svg>
